<svg xmlns="http://www.w3.org/2000/svg" viewBox="0 0 48 48" width="48" height="48">
	<path fill="#181717" d="M24 4C13.1 4 4 13.1 4 24c0 8.8 5.7 16.2 13.6 18.8 1 .2 1.4-.4 1.4-.9v-3.5c-5.5 1.2-6.7-2.6-6.7-2.6-.9-2.2-2.2-2.7-2.2-2.7-1.7-1.2.1-1.2.1-1.2 2 .1 3.1 2.1 3.1 2.1 1.7 3 4.5 2.1 5.6 1.6.2-1.2.7-2.1 1.3-2.6-4.4-.5-8.9-2.2-8.9-9.8 0-2.2.8-4 2.1-5.5-.2-.5-.9-2.5.2-5.1 0 0 1.6-.5 5.3 2.1 1.6-.5 3.2-.8 4.8-.8 1.6 0 3.2.3 4.8.8 3.7-2.6 5.3-2.1 5.3-2.1 1.1 2.6.4 4.6.2 5.1 1.3 1.5 2.1 3.3 2.1 5.5 0 7.6-4.5 9.3-8.9 9.8.7.6 1.3 1.9 1.3 3.9v5.9c0 .5.4 1.1 1.4.9C38.3 40.2 44 32.8 44 24c0-10.9-9.1-20-20-20z"/>
</svg>