<?xml version="1.0" encoding="UTF-8"?>
<svg version="1.1" xmlns="http://www.w3.org/2000/svg">
<path d="M0 0 C684.09 0 1368.18 0 2073 0 C2073 554.4 2073 1108.8 2073 1680 C1388.91 1680 704.82 1680 0 1680 C0 1125.6 0 571.2 0 0 Z " fill="#3498DB" transform="translate(0,0)"/>
<path d="M0 0 C684.09 0 1368.18 0 2073 0 C2073 554.4 2073 1108.8 2073 1680 C1388.91 1680 704.82 1680 0 1680 C0 1125.6 0 571.2 0 0 Z M511 47 C510.35160156 47.3187207 509.70320313 47.63744141 509.03515625 47.96582031 C500.42631555 52.24040805 492.57155938 57.03796372 485 63 C484.09765625 63.69867188 483.1953125 64.39734375 482.265625 65.1171875 C462.71702619 80.63457808 451.10558149 98.95712066 438.98681641 120.47802734 C436.01840475 125.74739174 433.00935847 130.9935402 430.00521851 136.24258423 C428.99632659 138.0064222 427.98878655 139.77102538 426.98168945 141.53588867 C421.89772961 150.44403952 416.77631233 159.3302553 411.64453125 168.2109375 C407.07295377 176.12733791 402.53053067 184.0600753 398 192 C392.24415456 202.08733474 386.45535763 212.15514953 380.64453125 222.2109375 C376.07295377 230.12733791 371.53053067 238.0600753 367 246 C361.24496542 256.08591367 355.45754152 266.15263466 349.64672852 276.20654297 C344.70988315 284.7542456 339.81432158 293.32510287 334.92538452 301.90023804 C329.70145878 311.05945478 324.40710245 320.17562065 319.07788086 329.27392578 C314.60443788 336.92648793 310.23530727 344.63432516 305.89160156 352.36108398 C302.01653442 359.23973841 298.05769056 366.06552081 294.0625 372.875 C289.19350577 381.17602485 284.43293263 389.53012972 279.75 397.9375 C275.57167028 405.43883883 271.34164757 412.89696963 266.95678711 420.27929688 C263.00094219 426.95612268 259.15590204 433.69558809 255.3125 440.4375 C250.0660551 449.63924475 244.80071901 458.82934912 239.5 468 C233.94230531 477.61570562 228.42458373 487.25361331 222.92437744 496.9022522 C218.29124313 505.02696918 213.60615213 513.11945144 208.875 521.1875 C203.45027022 530.44045319 198.1832495 539.77398183 192.96386719 549.14404297 C189.37653576 555.57361365 185.71654677 561.94938593 181.95678711 568.27929688 C178.00094219 574.95612268 174.15590204 581.69558809 170.3125 588.4375 C165.0660551 597.63924475 159.80071901 606.82934912 154.5 616 C148.94230531 625.61570562 143.42458373 635.25361331 137.92437744 644.9022522 C133.29124313 653.02696918 128.60615213 661.11945144 123.875 669.1875 C118.45027022 678.44045319 113.1832495 687.77398183 107.96386719 697.14404297 C104.37653576 703.57361365 100.71654677 709.94938593 96.95678711 716.27929688 C92.29401315 724.14930446 87.78115215 732.1051833 83.25244141 740.05273438 C79.17393668 747.20789206 75.06901842 754.34673049 70.9362793 761.47070312 C67.94209753 766.63831881 64.96872009 771.81772799 62 777 C61.566875 777.75055664 61.13375 778.50111328 60.6875 779.27441406 C41.03539469 813.5162158 36.96458989 853.40863643 46.64941406 891.55810547 C51.66570884 909.55324154 60.69325338 925.52482189 70.16015625 941.49609375 C74.16109454 948.24645794 78.05577204 955.055745 81.9375 961.875 C83.28974888 964.24774722 84.64274399 966.62006804 85.99609375 968.9921875 C86.33015228 969.57777939 86.66421082 970.16337128 87.00839233 970.76670837 C90.48479375 976.85649658 93.99110979 982.92889421 97.5 989 C103.03239114 998.57375227 108.53030585 1008.16669358 114.01025391 1017.77050781 C118.8171789 1026.19367294 123.64765707 1034.60289286 128.5 1043 C134.03230627 1052.57380158 139.53030562 1062.16669318 145.01025391 1071.77050781 C149.8171789 1080.19367294 154.64765707 1088.60289286 159.5 1097 C165.03230627 1106.57380158 170.53030562 1116.16669318 176.01025391 1125.77050781 C181.4290845 1135.26591391 186.88249121 1144.74096161 192.35327148 1154.20654297 C197.29011685 1162.7542456 202.18567842 1171.32510287 207.07461548 1179.90023804 C212.29854122 1189.05945478 217.59289755 1198.17562065 222.92211914 1207.27392578 C227.39556212 1214.92648793 231.76469273 1222.63432516 236.10839844 1230.36108398 C239.98346558 1237.23973841 243.94230944 1244.06552081 247.9375 1250.875 C252.80649423 1259.17602485 257.56706737 1267.53012972 262.25 1275.9375 C266.42832972 1283.43883883 270.65835243 1290.89696963 275.04321289 1298.27929688 C278.99905781 1304.95612268 282.84409796 1311.69558809 286.6875 1318.4375 C291.93394517 1327.63924521 297.19936291 1336.82930146 302.5 1346 C308.03241574 1355.573738 313.53030591 1365.16669369 319.01025391 1374.77050781 C324.4290845 1384.26591391 329.88249121 1393.74096161 335.35327148 1403.20654297 C340.29011685 1411.7542456 345.18567842 1420.32510287 350.07461548 1428.90023804 C355.29854122 1438.05945478 360.59289755 1447.17562065 365.92211914 1456.27392578 C370.39556212 1463.92648793 374.76469273 1471.63432516 379.10839844 1479.36108398 C382.98346558 1486.23973841 386.94230944 1493.06552081 390.9375 1499.875 C395.80649423 1508.17602485 400.56706737 1516.53012972 405.25 1524.9375 C409.42879983 1532.43968282 413.65756418 1539.89977161 418.04541016 1547.28149414 C421.6357861 1553.33800866 425.11914205 1559.45342183 428.59963989 1565.5736084 C431.72042483 1571.05632197 434.8577194 1576.52958413 438 1582 C438.352901 1582.61470154 438.705802 1583.22940308 439.06939697 1583.86273193 C441.17464336 1587.52586304 443.29234221 1591.18136355 445.42572021 1594.82818604 C446.40107117 1596.50005655 447.36698429 1598.17742207 448.33251953 1599.85498047 C452.61934286 1607.14744253 457.46821008 1613.60694212 463 1620 C463.51715576 1620.60690674 464.03431152 1621.21381348 464.56713867 1621.83911133 C470.77520286 1629.03764238 477.38420071 1635.28293423 485 1641 C485.96164062 1641.72703125 486.92328125 1642.4540625 487.9140625 1643.203125 C502.60089125 1653.83713265 518.86738321 1661.96629916 536.375 1666.625 C537.49636353 1666.93497925 537.49636353 1666.93497925 538.64038086 1667.2512207 C557.61955785 1672.03247224 577.56359473 1671.2958797 596.98074596 1671.26933783 C601.03040731 1671.26603357 605.08004889 1671.27438457 609.12970364 1671.28115618 C616.20959405 1671.29140607 623.28945715 1671.29430876 630.36935425 1671.29224396 C640.89788709 1671.28918095 651.42638993 1671.29754643 661.95491692 1671.30799321 C681.85605907 1671.3272895 701.75719087 1671.33295974 721.65834127 1671.33410732 C737.02857822 1671.33502784 752.39881114 1671.33915193 767.76904678 1671.34550858 C772.19973886 1671.34730376 776.63043093 1671.34908339 781.06112301 1671.35085833 C782.16271617 1671.35130043 783.26430933 1671.35174252 784.39928409 1671.35219802 C815.36441937 1671.36449807 846.32955326 1671.37239996 877.29469109 1671.37151146 C878.46104129 1671.3714803 879.62739149 1671.37144914 880.82908563 1671.37141704 C886.74012095 1671.37125084 892.65115627 1671.37105276 898.56219159 1671.37084763 C900.32300421 1671.37078779 900.32300421 1671.37078779 902.11938879 1671.37072675 C904.49324579 1671.37064587 906.86710279 1671.37056228 909.24095979 1671.37047596 C946.18067513 1671.36925025 983.12035376 1671.38427093 1020.06005859 1671.41162109 C1061.59649618 1671.44236228 1103.13290965 1671.45955246 1144.66935933 1671.45769465 C1149.10068011 1671.4575454 1153.5320009 1671.45744798 1157.96332169 1671.45738602 C1159.05436355 1671.45736271 1160.14540542 1671.4573394 1161.26950916 1671.45731538 C1178.80073179 1671.45725393 1196.33192244 1671.4700064 1213.86313556 1671.48725055 C1231.48867412 1671.5042287 1249.11416606 1671.50616368 1266.73970829 1671.4930319 C1277.19984432 1671.48565815 1287.65983843 1671.48925362 1298.11995933 1671.50891658 C1305.11976429 1671.52095918 1312.11946699 1671.51827822 1319.11926736 1671.50397559 C1323.09891748 1671.49624873 1327.07829396 1671.49455506 1331.05792426 1671.51089029 C1348.07462637 1671.5762266 1364.37262143 1670.95369275 1381 1667 C1381.67564207 1666.84462975 1382.35128415 1666.68925949 1383.04740022 1666.52918105 C1404.70846452 1661.51008426 1425.09040909 1650.10917082 1441.53173828 1635.3125 C1442.90733288 1634.08283646 1444.31024952 1632.88393135 1445.71484375 1631.6875 C1458.58871196 1620.57907751 1467.74412217 1606.5550792 1476.0625 1591.875 C1477.04838454 1590.14988641 1478.03428199 1588.42477996 1479.02111816 1586.70021057 C1479.69247899 1585.52672389 1480.36329531 1584.35292553 1481.03356934 1583.17881775 C1484.35462792 1577.36488983 1487.73861539 1571.58851846 1491.125 1565.8125 C1496.2024619 1557.13568968 1501.17883775 1548.4067007 1506.10595703 1539.64379883 C1510.57770844 1531.70688008 1515.16358617 1523.84006157 1519.76953125 1515.98046875 C1524.29494861 1508.24411224 1528.71575883 1500.45286273 1533.10766602 1492.64013672 C1536.98304743 1485.76111502 1540.94206913 1478.93488878 1544.9375 1472.125 C1549.80649423 1463.82397515 1554.56706737 1455.46987028 1559.25 1447.0625 C1563.42832972 1439.56116117 1567.65835243 1432.10303037 1572.04321289 1424.72070312 C1575.99905781 1418.04387732 1579.84409796 1411.30441191 1583.6875 1404.5625 C1588.9339449 1395.36075525 1594.19928099 1386.17065088 1599.5 1377 C1605.05769469 1367.38429438 1610.57541627 1357.74638669 1616.07562256 1348.0977478 C1620.70875687 1339.97303082 1625.39384787 1331.88054856 1630.125 1323.8125 C1635.54972978 1314.55954681 1640.8167505 1305.22601817 1646.03613281 1295.85595703 C1649.62346424 1289.42638635 1653.28345323 1283.05061407 1657.04321289 1276.72070312 C1660.99905781 1270.04387732 1664.84409796 1263.30441191 1668.6875 1256.5625 C1673.9339449 1247.36075525 1679.19928099 1238.17065088 1684.5 1229 C1690.05732129 1219.38494042 1695.57420115 1209.74742069 1701.07461548 1200.09976196 C1706.29854122 1190.94054522 1711.59289755 1181.82437935 1716.92211914 1172.72607422 C1721.39556212 1165.07351207 1725.76469273 1157.36567484 1730.10839844 1149.63891602 C1733.98346558 1142.76026159 1737.94230944 1135.93447919 1741.9375 1129.125 C1746.80649423 1120.82397515 1751.56706737 1112.46987028 1756.25 1104.0625 C1760.42832972 1096.56116117 1764.65835243 1089.10303037 1769.04321289 1081.72070312 C1772.99905781 1075.04387732 1776.84409796 1068.30441191 1780.6875 1061.5625 C1785.9339449 1052.36075525 1791.19928099 1043.17065088 1796.5 1034 C1802.05769469 1024.38429438 1807.57541627 1014.74638669 1813.07562256 1005.0977478 C1817.70875687 996.97303082 1822.39384787 988.88054856 1827.125 980.8125 C1832.54437107 971.56868716 1837.81079615 962.24680002 1843.01855469 952.88232422 C1846.38277516 946.84483507 1849.82674534 940.86835223 1853.375 934.9375 C1874.46408001 899.4347141 1884.95876719 858.36835515 1874.625 817.4296875 C1869.26887646 797.2990521 1860.39184994 780.26061031 1849.8046875 762.43359375 C1845.81149308 755.70892187 1841.93092224 748.9218201 1838.0625 742.125 C1836.71028977 739.75223071 1835.35727553 737.37992086 1834.00390625 735.0078125 C1833.66985275 734.42223068 1833.33579926 733.83664886 1832.99162292 733.23332214 C1829.51522152 727.14352087 1826.00889588 721.0711156 1822.5 715 C1816.96760886 705.42624773 1811.46969415 695.83330642 1805.98974609 686.22949219 C1801.1828211 677.80632706 1796.35234293 669.39710714 1791.5 661 C1785.96769373 651.42619842 1780.46969438 641.83330682 1774.98974609 632.22949219 C1770.1828211 623.80632706 1765.35234293 615.39710714 1760.5 607 C1754.96769373 597.42619842 1749.46969438 587.83330682 1743.98974609 578.22949219 C1738.5709155 568.73408609 1733.11750879 559.25903839 1727.64672852 549.79345703 C1722.7095099 541.24510815 1717.81317064 532.67382616 1712.92437744 524.0977478 C1708.29124313 515.97303082 1703.60615213 507.88054856 1698.875 499.8125 C1693.45027022 490.55954681 1688.1832495 481.22601817 1682.96386719 471.85595703 C1679.37653576 465.42638635 1675.71654677 459.05061407 1671.95678711 452.72070312 C1668.00094219 446.04387732 1664.15590204 439.30441191 1660.3125 432.5625 C1655.0660551 423.36075525 1649.80071901 414.17065088 1644.5 405 C1638.94230531 395.38429438 1633.42458373 385.74638669 1627.92437744 376.0977478 C1623.29124313 367.97303082 1618.60615213 359.88054856 1613.875 351.8125 C1608.45027022 342.55954681 1603.1832495 333.22601817 1597.96386719 323.85595703 C1594.37653576 317.42638635 1590.71654677 311.05061407 1586.95678711 304.72070312 C1583.00094219 298.04387732 1579.15590204 291.30441191 1575.3125 284.5625 C1570.0660551 275.36075525 1564.80071901 266.17065088 1559.5 257 C1553.94230531 247.38429438 1548.42458373 237.74638669 1542.92437744 228.0977478 C1538.29124313 219.97303082 1533.60615213 211.88054856 1528.875 203.8125 C1523.45027022 194.55954681 1518.1832495 185.22601817 1512.96386719 175.85595703 C1509.37605836 169.42553069 1505.71698495 163.04802537 1501.95458984 156.71850586 C1498.3642139 150.66199134 1494.88085795 144.54657817 1491.40036011 138.4263916 C1488.27957517 132.94367803 1485.1422806 127.47041587 1482 122 C1481.4706485 121.07794769 1481.4706485 121.07794769 1480.93060303 120.13726807 C1478.82535664 116.47413696 1476.70765779 112.81863645 1474.57427979 109.17181396 C1473.59892883 107.49994345 1472.63301571 105.82257793 1471.66748047 104.14501953 C1467.38218108 96.85514991 1462.52874207 90.39122583 1457 84 C1456.22599854 83.101604 1455.45199707 82.20320801 1454.65454102 81.27758789 C1430.87625055 53.96959904 1395.27521623 35.73969462 1359 33 C1354.48931758 32.86066478 1349.98157315 32.86396129 1345.46901417 32.87136555 C1344.10182939 32.87001732 1342.734645 32.86823254 1341.36746129 32.86605331 C1337.61327849 32.8613363 1333.85912001 32.86282076 1330.10493603 32.86533108 C1326.01949163 32.86696676 1321.93405238 32.86282116 1317.84860963 32.85942191 C1310.68906722 32.85427071 1303.52953157 32.85285022 1296.36998749 32.85387802 C1285.72326653 32.85540269 1275.07655305 32.85124176 1264.42983355 32.8460034 C1244.30826763 32.83632992 1224.18670426 32.83351916 1204.06513629 32.83294634 C1188.52675798 32.83248688 1172.98838066 32.83042901 1157.45000267 32.82724571 C1152.97809845 32.82634818 1148.50619423 32.82545836 1144.03429002 32.82457083 C1142.92257655 32.82434979 1141.81086308 32.82412874 1140.66546133 32.82390099 C1109.39275705 32.81774635 1078.12005312 32.81380047 1046.84734821 32.81424427 C1045.66817293 32.81425985 1044.48899764 32.81427543 1043.27408977 32.81429148 C1037.29747236 32.81437459 1031.32085495 32.81447363 1025.34423754 32.81457619 C1024.15724951 32.81459613 1022.97026148 32.81461608 1021.74730411 32.81463663 C1019.34692477 32.81467706 1016.94654543 32.81471886 1014.54616609 32.81476202 C977.19882363 32.81537479 939.85149025 32.80786795 902.50415039 32.79418945 C860.54926731 32.77882979 818.5943902 32.77022316 776.63950413 32.77115268 C772.16602814 32.77122731 767.69255215 32.77127601 763.21907616 32.77130699 C761.56683867 32.77132447 761.56683867 32.77132447 759.88122265 32.77134231 C742.15349081 32.77137308 724.42576685 32.76498655 706.69803736 32.75637473 C688.8819904 32.74789899 671.06595497 32.74690769 653.24990711 32.75348405 C642.66598652 32.75718019 632.08210095 32.75534538 621.49818407 32.74554171 C614.42568942 32.73954416 607.35322015 32.74083469 600.28072666 32.74801221 C596.25286219 32.75189558 592.22506552 32.75266394 588.19720582 32.74455485 C584.52610373 32.73722889 580.85512535 32.73926739 577.18402859 32.74847872 C575.25596207 32.75098647 573.32789017 32.74377516 571.39983746 32.73605594 C550.34575968 32.82132619 529.82249345 37.63686803 511 47 Z " fill="#3498DB" transform="translate(0,0)"/>
<path d="M0 0 C1.41646725 -0.00706311 2.83292696 -0.01580978 4.24937439 -0.02610779 C8.08633489 -0.04857058 11.92288227 -0.04566913 15.7598834 -0.03678632 C18.96801749 -0.03166769 22.17607454 -0.03897624 25.38420069 -0.04625839 C32.95590961 -0.06324824 40.52741697 -0.05970172 48.09912109 -0.04296875 C55.89844536 -0.02605506 63.69720963 -0.04187331 71.49647272 -0.07419163 C78.20328697 -0.1009255 84.9099273 -0.10815313 91.61678946 -0.09967655 C95.61778479 -0.09475749 99.61844342 -0.09690687 103.61939621 -0.11746407 C107.38386019 -0.13588076 111.14752201 -0.12979074 114.91194344 -0.10526466 C116.94285478 -0.09790577 118.97380921 -0.11506666 121.00465393 -0.13308716 C128.31139562 -0.05744838 133.55527552 0.55227698 139.13525391 5.53344727 C140.90698242 7.6003418 140.90698242 7.6003418 142.01416016 9.66625977 C142.67146118 10.85421143 142.67146118 10.85421143 143.34204102 12.06616211 C144.0131189 13.34934326 144.0131189 13.34934326 144.69775391 14.65844727 C145.19605713 15.56933105 145.69436035 16.48021484 146.20776367 17.41870117 C147.29074692 19.39993422 148.36556404 21.3856481 149.43310547 23.37524414 C151.80170403 27.76999327 154.23510967 32.12766805 156.66625977 36.48803711 C158.58749157 39.93488786 160.50047422 43.38622441 162.41259766 46.83813477 C165.78842291 52.92140843 169.20310314 58.98181471 172.63525391 65.03344727 C177.9959373 74.48706814 183.28062694 83.98142637 188.54931641 93.48657227 C192.5446467 100.68803181 196.57309512 107.86949231 200.63525391 115.03344727 C205.96844482 124.44052376 211.23202503 133.88494048 216.47680664 143.34155273 C222.42157772 154.05817667 228.40749279 164.75145693 234.40136719 175.44067383 C237.31464531 180.63715471 240.22478217 185.83539422 243.13525391 191.03344727 C244.30190571 193.11678892 245.46857237 195.20012226 246.63525391 197.28344727 C264.13525391 228.53344727 264.13525391 228.53344727 281.63525391 259.78344727 C282.21267334 260.81453613 282.79009277 261.845625 283.38500977 262.90795898 C284.5525497 264.99288662 285.7200301 267.0778476 286.88745117 269.1628418 C289.79027143 274.34705626 292.69409858 279.53070143 295.60009766 284.71313477 C301.65585477 295.51548038 307.69134265 306.3285774 313.69775391 317.15844727 C318.828245 326.40795027 324.00429458 335.62994843 329.22143555 344.83081055 C333.39997117 352.2093438 337.52422866 359.61711993 341.63525391 367.03344727 C346.43878427 375.69625067 351.26322527 384.34645621 356.13525391 392.97094727 C356.66981201 393.91808594 357.20437012 394.86522461 357.75512695 395.84106445 C361.10308259 401.75661325 364.51707537 407.62330515 368.06103516 413.42407227 C369.13525391 415.53344727 369.13525391 415.53344727 369.13525391 418.53344727 C369.79525391 418.53344727 370.45525391 418.53344727 371.13525391 418.53344727 C371.35568359 417.7484082 371.57611328 416.96336914 371.80322266 416.15454102 C373.56637201 411.36146345 375.97220795 407.05429705 378.44775391 402.59594727 C378.97973389 401.62939209 379.51171387 400.66283691 380.05981445 399.66699219 C384.34183769 391.90899572 388.69764489 384.19287477 393.07055664 376.48583984 C399.19306652 365.6908169 405.20671024 354.8358061 411.22363281 343.98168945 C422.05516995 324.44342246 432.93762576 304.93441264 443.86474609 285.44946289 C451.1137897 272.5213885 458.33768685 259.57985563 465.52954102 246.61987305 C470.2861994 238.05185673 475.06979529 229.49922191 479.86352539 220.9519043 C484.16250202 213.2822834 488.43378317 205.59757483 492.69775391 197.90844727 C497.30818152 189.59642377 501.94762369 181.30217627 506.63525391 173.03344727 C513.23565778 161.38877464 519.73407354 149.68841036 526.22363281 137.98168945 C537.05516995 118.44342246 547.93762576 98.93441264 558.86474609 79.44946289 C560.6011699 76.35269353 562.33714005 73.25567065 564.07275391 70.15844727 C564.64703125 69.13364258 565.22130859 68.10883789 565.81298828 67.05297852 C569.48842439 60.48882172 573.1476023 53.91583945 576.7956543 47.33642578 C578.67717441 43.94553579 580.56423423 40.55777141 582.45166016 37.17016602 C584.90161252 32.76955292 587.32269357 28.35470992 589.72509766 23.92797852 C590.86160426 21.85885156 591.99831356 19.78983592 593.13525391 17.72094727 C593.63871338 16.77848145 594.14217285 15.83601563 594.66088867 14.86499023 C598.04383262 8.75339584 601.75978536 3.72118154 608.13525391 0.53344727 C610.02215938 0.43337945 611.91263556 0.39834694 613.80218506 0.39300537 C615.00790161 0.38729523 616.21361816 0.38158508 617.45587158 0.3757019 C618.79919423 0.37445648 620.142517 0.3733314 621.48583984 0.37231445 C622.89510224 0.36768706 624.30436338 0.3626625 625.71362305 0.35726929 C629.54849544 0.34413369 633.38335031 0.33769781 637.21824169 0.33325863 C639.61402561 0.33032912 642.00980473 0.32622449 644.40558624 0.32175446 C651.90098478 0.30807503 659.39637236 0.29841117 666.89178252 0.29455256 C675.54456885 0.29007381 684.19719705 0.27253632 692.84993529 0.24355197 C699.53706618 0.22192963 706.2241526 0.21184795 712.91131806 0.21051145 C716.90553756 0.2094636 720.8996085 0.20356043 724.8937912 0.18569183 C728.65306862 0.16920204 732.412086 0.16705994 736.17138672 0.17583084 C737.54922431 0.1766008 738.92707593 0.17226389 740.30487823 0.16237259 C742.19000557 0.14963588 744.07523756 0.15732786 745.96038818 0.16595459 C747.01416531 0.16448803 748.06794243 0.16302147 749.15365219 0.16151047 C753.5490752 0.70981293 756.92300983 2.27291674 759.99853516 5.47094727 C760.71589844 6.49188477 760.71589844 6.49188477 761.44775391 7.53344727 C761.93888672 8.21407227 762.43001953 8.89469727 762.93603516 9.59594727 C765.46427691 13.68066358 765.75106673 17.86258461 765.13525391 22.53344727 C764.05465836 25.57338816 762.54018242 28.29613236 760.94775391 31.09594727 C760.49996582 31.91401855 760.05217773 32.73208984 759.59082031 33.57495117 C758.12475068 36.23893752 756.6329873 38.88714826 755.13525391 41.53344727 C754.64299316 42.40952637 754.15073242 43.28560547 753.64355469 44.18823242 C751.0062657 48.88159676 748.35226497 53.56518445 745.68994141 58.24438477 C741.7772331 65.1405057 737.95489119 72.0855705 734.13525391 79.03344727 C728.84329959 88.65600983 723.49260655 98.24219797 718.06884766 107.79125977 C713.69624211 115.50509462 709.40847014 123.26433125 705.13525391 131.03344727 C700.35239756 139.72913776 695.53669201 148.40379981 690.63525391 157.03344727 C685.75746395 165.62291272 680.96016775 174.2546943 676.19775391 182.90844727 C670.62425798 193.03576968 665.01186897 203.13978251 659.35424805 213.22045898 C655.09410811 220.81349287 650.85938739 228.42032885 646.63525391 236.03344727 C641.24802086 245.74171184 635.83525579 255.43524978 630.40478516 265.11938477 C626.12976315 272.74717684 621.87804026 280.38768382 617.63525391 288.03344727 C612.2479625 297.74167961 606.83525593 307.43524952 601.40478516 317.11938477 C597.12976315 324.74717684 592.87804026 332.38768382 588.63525391 340.03344727 C583.25162168 349.73508554 577.84280114 359.42218988 572.41577148 369.09960938 C569.34776873 374.57351521 566.28761057 380.05166577 563.24072266 385.53735352 C562.91544586 386.12280441 562.59016907 386.70825531 562.2550354 387.31144714 C560.64130464 390.21711934 559.03088981 393.12453807 557.42431641 396.03417969 C554.72379743 400.91811985 552.01090859 405.78538473 549.15478516 410.58032227 C548.72206299 411.31500732 548.28934082 412.04969238 547.84350586 412.80664062 C547.07112895 414.11027051 546.28567465 415.4062968 545.48364258 416.69189453 C543.06489396 420.79641982 543.03013638 422.9724991 544.13525391 427.53344727 C545.38129096 430.35225055 545.38129096 430.35225055 547.02197266 433.14672852 C547.62332031 434.21665039 548.22466797 435.28657227 548.84423828 436.38891602 C549.49714844 437.52973633 550.15005859 438.67055664 550.82275391 439.84594727 C551.50527867 441.05378142 552.18690525 442.26212351 552.86767578 443.47094727 C554.26802234 445.95477365 555.67300946 448.43587982 557.08203125 450.91479492 C560.12590911 456.27302326 563.12805769 461.65457852 566.13525391 467.03344727 C567.29016653 469.09336289 568.44511474 471.15325856 569.60009766 473.21313477 C573.31765846 479.85141387 577.0079543 486.50471027 580.69775391 493.15844727 C585.30818152 501.47047076 589.94762369 509.76471826 594.63525391 518.03344727 C601.23565778 529.67811989 607.73407354 541.37848417 614.22363281 553.08520508 C624.48369395 571.59262571 634.78464723 590.0765213 645.13525391 608.53344727 C652.96155718 622.48910268 660.76578859 636.45645745 668.52954102 650.44702148 C673.2861994 659.0150378 678.06979529 667.56767262 682.86352539 676.11499023 C687.16250202 683.78461113 691.43378317 691.4693197 695.69775391 699.15844727 C700.30818152 707.47047076 704.94762369 715.76471826 709.63525391 724.03344727 C716.23565778 735.67811989 722.73407354 747.37848417 729.22363281 759.08520508 C732.37934534 764.77757848 735.53795257 770.46834267 738.69775391 776.15844727 C739.31166992 777.26397949 739.92558594 778.36951172 740.55810547 779.50854492 C746.05283692 789.39703609 751.57853269 799.26805227 757.11181641 809.13500977 C757.62075439 810.04742432 758.12969238 810.95983887 758.65405273 811.89990234 C759.62950353 813.63423359 760.6186435 815.36094739 761.62231445 817.07910156 C762.07646729 817.86454346 762.53062012 818.64998535 762.99853516 819.45922852 C763.39854736 820.13896729 763.79855957 820.81870605 764.21069336 821.51904297 C766.22395383 825.90547343 765.89011635 830.19295199 764.43603516 834.70141602 C762.01219218 840.15250591 758.52518186 843.83848329 753.13525391 846.53344727 C751.23573871 846.63568056 749.33260775 846.67294662 747.43035889 846.68061829 C745.60916283 846.69135124 745.60916283 846.69135124 743.75117493 846.70230103 C742.39840724 846.70514142 741.04563927 846.70785314 739.69287109 846.71044922 C738.27375624 846.71671304 736.85464302 846.72335977 735.43553162 846.73036194 C731.57380581 846.74778036 727.71209239 846.75832623 723.85033703 846.76656747 C721.43780235 846.77171641 719.02527152 846.77779222 716.61273956 846.7840786 C709.06501829 846.80313402 701.51730682 846.81736376 693.96956611 846.82569057 C685.25617342 846.83546185 676.54303485 846.86177689 667.8297317 846.90219146 C661.09589317 846.93235303 654.36212747 846.94715951 647.6282227 846.95047158 C643.60600471 846.95282225 639.58405808 846.96178441 635.56191254 846.98693275 C631.77631693 847.01021911 627.99117121 847.01444471 624.20552254 847.00417137 C622.81800146 847.00367601 621.43045821 847.00999665 620.04300499 847.02372742 C607.05599379 847.14503371 607.05599379 847.14503371 602.13525391 842.53344727 C600.48291016 840.61352539 600.48291016 840.61352539 599.19775391 838.56469727 C598.70146484 837.77450195 598.20517578 836.98430664 597.69384766 836.17016602 C594.74261007 831.17747085 591.92097973 826.12004158 589.13525391 821.03344727 C588.14117038 819.22925022 587.14565533 817.42584743 586.15014648 815.62243652 C585.47243545 814.39442152 584.79519079 813.16614901 584.1184082 811.93762207 C580.82061593 805.95275455 577.48068675 799.99179908 574.13525391 794.03344727 C569.25775328 785.33796249 564.40789366 776.62755173 559.57275391 767.90844727 C554.9623263 759.59642377 550.32288412 751.30217627 545.63525391 743.03344727 C537.73715077 729.09932639 529.98353129 715.08538505 522.21923828 701.07641602 C515.73112994 689.37263733 509.23393869 677.67532576 502.63525391 666.03344727 C496.03495209 654.38871588 489.53643497 642.68841163 483.046875 630.98168945 C479.89116247 625.28931605 476.7325566 619.59855111 473.57275391 613.90844727 C472.95158691 612.78986328 472.33041992 611.6712793 471.69042969 610.51879883 C466.94867855 601.98537871 462.18207181 593.46607851 457.40673828 584.95141602 C453.10779482 577.28198483 448.83663647 569.59741583 444.57275391 561.90844727 C439.9623263 553.59642377 435.32288412 545.30217627 430.63525391 537.03344727 C422.73715077 523.09932639 414.98353129 509.08538505 407.21923828 495.07641602 C400.62713807 483.18504831 394.02291962 471.30184364 387.32275391 459.47094727 C385.25979783 455.82537177 383.19734928 452.17950967 381.13525391 448.53344727 C380.62994141 447.64077148 380.12462891 446.7480957 379.60400391 445.82836914 C378.17238818 443.29508038 376.74668242 440.75856289 375.32275391 438.22094727 C374.89567139 437.46740967 374.46858887 436.71387207 374.02856445 435.9375 C371.13525391 430.76258659 371.13525391 430.76258659 371.13525391 428.53344727 C370.47525391 428.53344727 369.81525391 428.53344727 369.13525391 428.53344727 C368.81621094 429.70327148 368.81621094 429.70327148 368.49072266 430.89672852 C366.65495608 435.82208495 364.07581621 440.17930768 361.44775391 444.72094727 C360.26575795 446.78677803 359.08481101 448.85320928 357.90478516 450.92016602 C357.28684082 452.00088379 356.66889648 453.08160156 356.03222656 454.19506836 C352.85653662 459.78379221 349.74774583 465.40936015 346.63525391 471.03344727 C341.4856143 480.32543144 336.28944174 489.58911601 331.04931641 498.83032227 C326.87075595 506.20904854 322.74624064 513.6168916 318.63525391 521.03344727 C314.00459505 529.38753386 309.34660205 537.72459287 304.63525391 546.03344727 C299.30206299 555.44052376 294.03848278 564.88494048 288.79370117 574.34155273 C282.84893009 585.05817667 276.86301502 595.75145693 270.86914062 606.44067383 C267.9558625 611.63715471 265.04572564 616.83539422 262.13525391 622.03344727 C260.96860211 624.11678892 259.80193544 626.20012226 258.63525391 628.28344727 C258.05775391 629.31469727 257.48025391 630.34594727 256.88525391 631.40844727 C223.6352539 690.78344727 223.6352539 690.78344727 221.88549805 693.90795898 C220.71795811 695.99288662 219.55047772 698.0778476 218.38305664 700.1628418 C215.48023638 705.34705626 212.57640923 710.53070143 209.67041016 715.71313477 C203.61465305 726.51548038 197.57916516 737.3285774 191.57275391 748.15844727 C186.44226281 757.40795027 181.26621323 766.62994843 176.04907227 775.83081055 C171.87053389 783.20934865 167.74676953 790.61738824 163.63525391 798.03344727 C161.75327648 801.422656 159.87056666 804.81145606 157.98730469 808.19995117 C156.75800914 810.41255351 155.52980897 812.62576479 154.30273438 814.83959961 C152.5653634 817.97007859 150.8201062 821.09603118 149.07275391 824.22094727 C148.56099609 825.14649414 148.04923828 826.07204102 147.52197266 827.02563477 C138.18198439 843.66556122 138.18198439 843.66556122 131.13525391 846.53344727 C126.52386547 847.15360916 121.91512471 847.11195327 117.27050781 847.09863281 C115.85403704 847.1089729 114.43757749 847.12096376 113.02113342 847.13447571 C109.18420847 847.16546498 105.34765949 847.17080133 101.51062441 847.16954398 C98.30248333 847.17037588 95.09442323 847.18262894 91.88630712 847.19449359 C84.3146151 847.22184802 76.74311771 847.22720186 69.17138672 847.21972656 C61.37190276 847.21248664 53.57332294 847.24589862 45.7740351 847.29878396 C39.06721264 847.34261265 32.36068179 847.35927644 25.65371835 847.35474807 C21.65255972 847.35242981 17.65213182 847.36066646 13.6511116 847.39581871 C9.88643837 847.42786062 6.12325854 847.42590066 2.35856438 847.39837456 C0.32760183 847.39182352 -1.70338151 847.4197203 -3.73414612 847.44882202 C-9.79774588 847.37241413 -13.8983001 847.18878418 -18.62246704 843.15559387 C-23.65751592 837.97200363 -25.33851751 833.4932125 -25.24902344 826.34082031 C-24.52900207 821.08063878 -21.82814008 816.86790623 -19.17724609 812.34594727 C-18.58927246 811.30349854 -18.00129883 810.2610498 -17.39550781 809.18701172 C-15.57012286 805.95840162 -13.71792923 802.74616005 -11.86474609 799.53344727 C-10.78520906 797.62612673 -9.7082793 795.71732755 -8.63427734 793.80688477 C-6.51278506 790.03494004 -4.38195874 786.26854096 -2.24365234 782.50610352 C1.4016565 776.07893292 4.98981856 769.62054354 8.57275391 763.15844727 C13.97879566 753.4094273 19.41020374 743.67517277 24.86328125 733.95239258 C29.16229107 726.28258198 33.43369499 718.59773383 37.69775391 710.90844727 C42.30818152 702.59642377 46.94762369 694.30217627 51.63525391 686.03344727 C58.23565778 674.38877464 64.73407354 662.68841036 71.22363281 650.98168945 C79.73931884 635.62082745 88.27247434 620.27013218 96.86376953 604.95141602 C101.16271299 597.28198483 105.43387134 589.59741583 109.69775391 581.90844727 C114.30818152 573.59642377 118.94762369 565.30217627 123.63525391 557.03344727 C130.88370203 544.24547141 138.00960003 531.39013163 145.13525391 518.53344727 C152.77790099 504.7439617 160.43675564 490.96571046 168.21289062 477.25097656 C173.12631202 468.57461176 177.97814383 459.86434116 182.79541016 451.13427734 C185.51379454 446.21364393 188.24249798 441.30865008 191.11962891 436.47875977 C191.55178711 435.74520264 191.98394531 435.01164551 192.42919922 434.25585938 C193.20084415 432.95390381 193.98551866 431.65952842 194.78662109 430.37548828 C197.20540544 426.27072428 197.24043944 424.09467611 196.13525391 419.53344727 C194.88921686 416.71464398 194.88921686 416.71464398 193.24853516 413.92016602 C192.6471875 412.85024414 192.04583984 411.78032227 191.42626953 410.67797852 C190.77335938 409.5371582 190.12044922 408.39633789 189.44775391 407.22094727 C188.76522915 406.01311311 188.08360257 404.80477102 187.40283203 403.59594727 C186.00248547 401.11212088 184.59749836 398.63101471 183.18847656 396.15209961 C180.14459887 390.79387156 177.14241117 385.41233752 174.13525391 380.03344727 C172.97905477 377.97091875 171.82280436 375.90841898 170.66650391 373.84594727 C166.33728972 366.11520765 162.03993618 358.36683346 157.74072266 350.61938477 C153.5557492 343.08123383 149.35230448 335.55369547 145.13525391 328.03344727 C139.64503475 318.24276299 134.18727864 308.43441554 128.74072266 298.61938477 C124.55574906 291.08123356 120.35224956 283.55372644 116.13525391 276.03344727 C107.47885906 260.59415659 98.8927788 245.11588813 90.31103516 229.63500977 C84.47939168 219.12010799 78.63139252 208.61618708 72.69775391 198.15844727 C67.42545379 188.86628331 62.25361487 179.52082191 57.10476685 170.15997314 C52.66446649 162.08936041 48.18463459 154.04324982 43.63525391 146.03344727 C38.75746395 137.44398181 33.96016775 128.81220023 29.19775391 120.15844727 C23.62425798 110.03112486 18.01186897 99.92711202 12.35424805 89.84643555 C7.46585201 81.13363332 2.61282994 72.40148811 -2.2331543 63.66503906 C-5.41578762 57.93063589 -8.60709174 52.20134532 -11.81787109 46.48266602 C-12.4553125 45.34700195 -13.09275391 44.21133789 -13.74951172 43.04125977 C-14.96048522 40.88560012 -16.17265539 38.73061212 -17.38623047 36.57641602 C-26.22442868 20.84546913 -26.22442868 20.84546913 -24.86474609 12.53344727 C-22.99321038 7.862606 -20.26094023 4.16072881 -15.99140549 1.39647102 C-10.99682013 -0.63039131 -5.31158743 -0.02780173 0 0 Z " fill="#3498DB" transform="translate(589.86474609375,428.466552734375)"/>
</svg>
