<svg viewBox="0 0 128 128" width="48" height="48" xmlns="http://www.w3.org/2000/svg">
  <g fill="none" fill-rule="evenodd">
    <circle cx="64" cy="64" r="64" fill="#512BD4"/>
    <path fill="#FFF" fill-rule="nonzero" d="M63.936 26.737l19.874 33.124c.29.495.29 1.108 0 1.603l-19.874 33.12c-.292.486-.832.786-1.416.786-.585 0-1.126-.3-1.416-.786L41.23 61.464c-.29-.495-.29-1.108 0-1.603l19.874-33.124c.29-.495.832-.8 1.416-.8.584 0 1.126.305 1.416.8z"/>
    <path fill="#512BD4" fill-rule="nonzero" d="M48.297 77.622c-.482-.832-.482-1.86 0-2.692l19.874-33.12c.484-.832 1.404-1.354 2.384-1.354.98 0 1.9.522 2.384 1.354l19.874 33.12c.482.832.482 1.86 0 2.692L72.94 110.742c-.484.832-1.404 1.354-2.384 1.354-.98 0-1.9-.522-2.384-1.354l-19.875-33.12z"/>
  </g>
</svg>