<svg xmlns="http://www.w3.org/2000/svg" width="401" height="68" viewBox="0 0 401 68" fill="none"><g clip-path="url(#clip0_535_406)"><path d="M54.6052 32.7328L69.4277 63.6706H80.607L54.6052 9.39844L28.6034 63.6706H39.7827L54.6052 32.7328Z" fill="#76BF25"></path><path d="M0 63.6706H11.1793L30.5046 23.3343L37.311 37.5398L42.9 25.8727L30.5046 0L0 63.6706Z" fill="#2A2725"></path><path d="M52.3016 45.4977L46.7126 57.1648L49.8299 63.6706H61.0092L52.3016 45.4977Z" fill="#2A2725"></path><path d="M97.8503 33.7162L95.376 39.3977H90.9064L101.818 14.4302H106.275L117.187 39.3977H112.722L110.249 33.7162H97.8503ZM108.547 29.822L104.047 19.5351L99.5477 29.822H108.547Z" fill="#2A2725"></path><path d="M127.537 39.684C124.917 39.684 122.661 38.7852 120.772 36.9877C118.882 35.1902 117.937 32.8363 117.937 29.926C117.937 27.0209 118.923 24.6572 120.895 22.8348C122.867 21.0125 125.27 20.103 128.103 20.1065C130.935 20.1065 133.332 21.0947 135.294 23.0711L132.956 25.9638C131.327 24.536 129.685 23.8217 128.031 23.8209C126.438 23.7978 124.898 24.3926 123.727 25.4823C122.51 26.5891 121.902 28.0181 121.902 29.7694C121.903 31.5207 122.506 33.0028 123.709 34.2157C124.914 35.4303 126.396 36.0376 128.155 36.0376C129.914 36.0376 131.573 35.2278 133.133 33.6084L135.472 36.1762C133.181 38.5156 130.536 39.6848 127.537 39.684Z" fill="#2A2725"></path><path d="M143.587 23.6091V33.254C143.587 34.1588 143.823 34.8795 144.295 35.4162C144.767 35.9529 145.428 36.2203 146.278 36.2186C147.127 36.2186 147.942 35.8022 148.723 34.9694L150.353 37.794C148.958 39.0557 147.417 39.6866 145.731 39.6866C144.928 39.7016 144.131 39.5527 143.386 39.2488C142.642 38.945 141.967 38.4925 141.401 37.9186C140.207 36.7399 139.613 35.1504 139.618 33.15V23.6116H137.245V20.4018H139.618V14.4302H143.587V20.3941H148.546V23.6039L143.587 23.6091Z" fill="#2A2725"></path><path d="M152.868 16.609C152.467 16.1965 152.219 15.6566 152.168 15.081C152.116 14.5053 152.264 13.9295 152.586 13.4513C152.908 12.9731 153.384 12.6219 153.933 12.4575C154.483 12.293 155.072 12.3254 155.6 12.5491C156.129 12.7728 156.564 13.1741 156.833 13.6848C157.101 14.1955 157.186 14.784 157.073 15.3506C156.959 15.9171 156.655 16.4267 156.212 16.7928C155.768 17.1589 155.213 17.3589 154.639 17.3588C154.309 17.3624 153.981 17.2977 153.677 17.1687C153.372 17.0398 153.097 16.8493 152.868 16.609ZM156.588 39.3976H152.62V20.3953H156.588V39.3976Z" fill="#2A2725"></path><path d="M166.432 39.3977L158.851 20.3954H162.96L168.7 34.7562L174.438 20.3954H178.549L170.967 39.3977H166.432Z" fill="#2A2725"></path><path d="M198.357 31.6465H183.585C183.679 33.028 184.306 34.1408 185.464 34.9847C186.616 35.8281 188.008 36.2727 189.431 36.252C191.792 36.252 193.587 35.5017 194.817 34.0012L197.083 36.5023C195.053 38.6226 192.407 39.6822 189.148 39.6814C186.503 39.6814 184.253 38.7942 182.398 37.0198C180.544 35.2454 179.616 32.8641 179.617 29.8759C179.617 26.8886 180.562 24.5134 182.452 22.7501C184.342 20.9868 186.567 20.1056 189.127 20.1064C191.689 20.1064 193.868 20.8862 195.665 22.4458C197.461 24.0053 198.359 26.1547 198.357 28.8937V31.6465ZM183.585 28.5034H194.391C194.391 26.9088 193.896 25.6822 192.904 24.8236C191.913 23.9651 190.69 23.5371 189.237 23.5397C187.819 23.5276 186.44 23.9996 185.322 24.8788C184.163 25.7716 183.584 26.9798 183.583 28.5034H183.585Z" fill="#2A2725"></path><path d="M214.723 33.7162L212.243 39.3951H207.786L218.697 14.4276H223.162L234.075 39.3951H229.61L227.123 33.7162H214.723ZM225.419 29.8221L220.922 19.5351L216.421 29.8221H225.419Z" fill="#76BF25"></path><path d="M249.478 33.7162C249.478 35.5266 248.829 36.9731 247.53 38.0559C246.231 39.1387 244.565 39.6805 242.533 39.6814C241.079 39.6666 239.637 39.4134 238.264 38.9316C236.848 38.4633 235.523 37.7499 234.35 36.8233L236.26 33.7162C238.457 35.3828 240.583 36.216 242.637 36.216C243.529 36.216 244.244 36.008 244.764 35.592C245.009 35.4078 245.207 35.1675 245.343 34.891C245.478 34.6145 245.546 34.3095 245.542 34.0012C245.542 33.0494 244.29 32.1935 241.787 31.4334C241.598 31.3627 241.456 31.3152 241.363 31.2908C237.44 30.2192 235.48 28.4332 235.481 25.933C235.481 24.1706 236.16 22.7582 237.518 21.696C238.876 20.6337 240.643 20.1039 242.817 20.1065C244.989 20.1065 247.044 20.7484 248.981 22.0324L247.494 24.997C246.02 23.9903 244.279 23.4535 242.498 23.4563C241.554 23.4563 240.786 23.6274 240.196 23.9698C239.917 24.1174 239.685 24.3416 239.527 24.6166C239.37 24.8916 239.292 25.206 239.305 25.5234C239.305 26.1422 239.612 26.5946 240.225 26.8805C240.799 27.1467 241.399 27.3503 242.016 27.4878C242.78 27.6787 243.459 27.8691 244.053 28.0592C244.648 28.2492 245.22 28.4632 245.771 28.7011C246.395 28.9782 246.992 29.3131 247.554 29.7013C248.837 30.5693 249.478 31.9076 249.478 33.7162Z" fill="#76BF25"></path><path d="M266.523 33.7162C266.523 35.5266 265.873 36.9731 264.573 38.0559C263.273 39.1387 261.608 39.6805 259.577 39.6814C258.124 39.6668 256.682 39.4136 255.309 38.9316C253.892 38.463 252.567 37.7496 251.393 36.8233L253.303 33.7162C255.5 35.3828 257.626 36.216 259.679 36.216C260.577 36.216 261.285 36.008 261.806 35.592C262.051 35.4078 262.25 35.1676 262.385 34.8911C262.521 34.6146 262.589 34.3096 262.585 34.0012C262.585 33.0494 261.333 32.1935 258.83 31.4334C258.64 31.3627 258.499 31.3152 258.405 31.2908C254.484 30.2192 252.524 28.4332 252.524 25.933C252.524 24.1706 253.203 22.7582 254.561 21.696C255.92 20.6337 257.685 20.1039 259.858 20.1065C262.03 20.1065 264.085 20.7484 266.022 22.0324L264.534 24.997C263.06 23.9902 261.32 23.4534 259.539 23.4563C258.593 23.4563 257.826 23.6274 257.236 23.9698C256.957 24.1176 256.725 24.3419 256.567 24.6168C256.41 24.8917 256.332 25.206 256.344 25.5234C256.344 26.1422 256.652 26.5946 257.266 26.8805C257.839 27.1466 258.439 27.3501 259.055 27.4878C259.819 27.6787 260.499 27.8691 261.093 28.0592C261.687 28.2492 262.26 28.4632 262.811 28.7011C263.434 28.9782 264.031 29.313 264.593 29.7013C265.88 30.5693 266.523 31.9076 266.523 33.7162Z" fill="#76BF25"></path><path d="M283.311 30.6823V20.3941H287.279V39.3964H283.311V35.9298C282.696 37.0649 281.79 38.0121 280.686 38.672C279.583 39.3319 278.324 39.6801 277.041 39.6802C274.919 39.6802 273.2 39.0254 271.886 37.7157C270.572 36.4061 269.917 34.5127 269.92 32.0356V20.3903H273.888V30.821C273.888 34.3218 275.329 36.0723 278.21 36.0723C279.533 36.0905 280.812 35.5986 281.787 34.6972C282.803 33.7865 283.311 32.4482 283.311 30.6823Z" fill="#76BF25"></path><path d="M302.016 24.1458C300.055 24.1458 298.579 24.7877 297.589 26.0717C296.598 27.3556 296.102 29.0821 296.1 31.2511V39.3951H292.132V20.3928H296.1V24.2151C296.723 23.0422 297.617 22.0377 298.706 21.2864C299.726 20.5508 300.941 20.1403 302.195 20.1078L302.229 24.1445L302.016 24.1458Z" fill="#76BF25"></path><path d="M320.403 39.3977H316.791V36.8619C315.232 38.745 313.141 39.6866 310.519 39.6866C308.559 39.6866 306.935 39.1268 305.648 38.0072C304.361 36.8876 303.718 35.3935 303.718 33.525C303.718 31.6556 304.403 30.2565 305.773 29.3278C307.143 28.399 308.997 27.9347 311.335 27.9347H316.472V27.2195C316.472 24.6953 315.079 23.4332 312.292 23.4332C310.543 23.4332 308.724 24.0752 306.835 25.3591L305.064 22.858C307.266 21.0552 310.022 20.0823 312.858 20.1065C315.078 20.1065 316.891 20.6719 318.297 21.8026C319.703 22.9333 320.405 24.7137 320.403 27.1438V39.3977ZM316.44 32.3258V30.7183H311.976C309.118 30.7183 307.689 31.623 307.689 33.4325C307.689 34.3621 308.043 35.0708 308.752 35.5587C309.46 36.0466 310.446 36.2906 311.711 36.2906C312.902 36.3139 314.067 35.9367 315.022 35.2185C315.968 34.5046 316.44 33.5404 316.44 32.3258Z" fill="#76BF25"></path><path d="M329.013 29.1107V39.3976H325.045V20.3953H329.013V23.862C329.627 22.7253 330.534 21.7767 331.638 21.1159C332.743 20.455 334.003 20.1063 335.287 20.1064C337.409 20.1064 339.127 20.7613 340.442 22.0709C341.756 23.3805 342.411 25.2739 342.408 27.751V39.3951H338.44V28.9656C338.44 25.4648 336.999 23.7143 334.118 23.7143C332.795 23.6959 331.516 24.1878 330.541 25.0894C329.521 26.0079 329.012 27.3483 329.013 29.1107Z" fill="#76BF25"></path><path d="M355.407 39.684C352.784 39.684 350.528 38.7852 348.64 36.9877C346.752 35.1902 345.807 32.8363 345.804 29.926C345.804 27.0209 346.79 24.6572 348.763 22.8348C350.736 21.0125 353.14 20.103 355.973 20.1065C358.807 20.1065 361.204 21.0947 363.164 23.0711L360.826 25.9638C359.196 24.536 357.555 23.8217 355.902 23.8209C354.309 23.7983 352.768 24.393 351.597 25.4823C350.381 26.5891 349.773 28.0181 349.772 29.7694C349.771 31.5207 350.373 33.0028 351.579 34.2157C352.784 35.4303 354.266 36.0376 356.027 36.0376C357.788 36.0376 359.446 35.2278 361.003 33.6084L363.343 36.1762C361.051 38.5156 358.405 39.6848 355.407 39.684Z" fill="#76BF25"></path><path d="M384.102 31.6465H369.33C369.424 33.028 370.051 34.1408 371.209 34.9847C372.361 35.8279 373.753 36.2724 375.176 36.252C377.537 36.252 379.332 35.5017 380.562 34.0012L382.828 36.5023C380.797 38.6226 378.152 39.6822 374.893 39.6814C372.248 39.6814 369.998 38.7942 368.143 37.0198C366.288 35.2454 365.361 32.8641 365.362 29.8759C365.362 26.8886 366.308 24.5134 368.198 22.7501C370.089 20.9868 372.313 20.1056 374.872 20.1064C377.434 20.1064 379.613 20.8862 381.41 22.4458C383.206 24.0053 384.104 26.1547 384.102 28.8937V31.6465ZM369.33 28.5034H380.136C380.136 26.9088 379.641 25.6822 378.649 24.8236C377.658 23.9651 376.435 23.5371 374.982 23.5397C373.564 23.5276 372.185 23.9996 371.067 24.8788C369.908 25.7716 369.329 26.9798 369.328 28.5034H369.33Z" fill="#76BF25"></path><path d="M401.001 33.7162C401.001 35.5266 400.351 36.9731 399.052 38.0559C397.752 39.1387 396.087 39.6805 394.056 39.6814C392.602 39.6668 391.161 39.4136 389.788 38.9316C388.371 38.463 387.046 37.7496 385.872 36.8233L387.782 33.7162C389.979 35.3828 392.104 36.216 394.158 36.216C395.055 36.216 395.764 36.008 396.285 35.592C396.53 35.4078 396.728 35.1676 396.864 34.8911C396.999 34.6146 397.068 34.3096 397.064 34.0012C397.064 33.0494 395.812 32.1935 393.309 31.4334C393.119 31.3627 392.978 31.3152 392.883 31.2908C388.963 30.2192 387.003 28.4332 387.003 25.933C387.003 24.1706 387.682 22.7582 389.04 21.696C390.398 20.6337 392.165 20.1039 394.34 20.1065C396.512 20.1065 398.567 20.7484 400.505 22.0324L399.016 24.997C397.542 23.9902 395.802 23.4534 394.022 23.4563C393.077 23.4563 392.309 23.6274 391.718 23.9698C391.439 24.1175 391.207 24.3418 391.05 24.6167C390.892 24.8916 390.815 25.206 390.827 25.5234C390.827 26.1422 391.134 26.5946 391.747 26.8805C392.321 27.1466 392.92 27.3501 393.537 27.4878C394.301 27.6787 394.98 27.8691 395.574 28.0592C396.168 28.2492 396.741 28.4632 397.292 28.7011C397.918 28.9782 398.516 29.313 399.081 29.7013C400.361 30.5693 401.001 31.9076 401.001 33.7162Z" fill="#76BF25"></path><path d="M92.8534 49.3174H94.3191L96.447 61.9282L103.854 49.3174H105.32L96.6876 63.6885H95.4435L92.8534 49.3174Z" fill="#B8B5B4"></path><path d="M107.187 63.8888C106.616 63.8979 106.05 63.7768 105.531 63.5344C105.057 63.3098 104.636 62.9854 104.296 62.583C103.955 62.1723 103.694 61.7006 103.526 61.1925C103.342 60.6416 103.25 60.0636 103.255 59.4823C103.252 58.6388 103.426 57.8042 103.764 57.0326C104.429 55.4896 105.623 54.2396 107.127 53.5107C107.865 53.1491 108.675 52.9624 109.496 52.9651C110.064 52.9549 110.627 53.0757 111.142 53.3181C111.614 53.5467 112.034 53.8705 112.376 54.2695C112.727 54.6839 112.993 55.1638 113.159 55.6819C113.342 56.2365 113.434 56.8178 113.43 57.4024C113.431 58.2391 113.258 59.0668 112.921 59.8316C112.59 60.5984 112.128 61.3007 111.556 61.9064C110.987 62.5071 110.313 62.9975 109.568 63.3534C108.825 63.7113 108.011 63.8943 107.187 63.8888ZM107.442 62.6742C108.022 62.6694 108.593 62.5274 109.108 62.2595C109.659 61.9802 110.155 61.6026 110.573 61.145C111.009 60.6688 111.362 60.1214 111.617 59.526C111.885 58.9105 112.022 58.2452 112.018 57.5731C112.021 57.1202 111.954 56.6696 111.818 56.2378C111.697 55.8434 111.503 55.4757 111.247 55.1542C111.005 54.8553 110.704 54.6105 110.363 54.4352C110.01 54.2598 109.621 54.1717 109.228 54.1784C108.652 54.1818 108.084 54.3235 107.573 54.5918C107.022 54.8756 106.526 55.256 106.107 55.7153C105.666 56.1973 105.309 56.7518 105.053 57.3548C104.786 57.9742 104.649 58.6427 104.652 59.318C104.648 59.768 104.715 60.2157 104.851 60.6443C104.974 61.0353 105.168 61.3995 105.424 61.7177C105.664 62.0155 105.965 62.2574 106.307 62.4264C106.663 62.5978 107.054 62.6835 107.448 62.6768L107.442 62.6742Z" fill="#B8B5B4"></path><path d="M117.466 63.8888C115.833 63.8888 115.017 62.9845 115.017 61.1758C115.018 60.8884 115.035 60.6012 115.067 60.3156C115.105 59.9851 115.162 59.6572 115.237 59.3334L116.563 53.1396H117.908L116.664 59.0907C116.539 59.608 116.471 60.1376 116.462 60.67C116.462 62.0061 117.038 62.6742 118.189 62.6742C118.58 62.6715 118.967 62.6029 119.335 62.4713C119.736 62.3307 120.114 62.1331 120.46 61.8846C120.83 61.6182 121.172 61.3126 121.478 60.973C121.807 60.6116 122.09 60.2105 122.321 59.7789L123.722 53.1396H125.087L123.26 61.742C123.226 61.8678 123.206 61.997 123.2 62.1272C123.2 62.357 123.327 62.4713 123.582 62.4713L123.327 63.6859C123.219 63.7001 123.129 63.709 123.056 63.7167C122.984 63.7244 122.912 63.727 122.845 63.727C122.593 63.7447 122.343 63.6689 122.143 63.5139C122.062 63.442 121.999 63.3528 121.957 63.2528C121.915 63.1528 121.896 63.0445 121.901 62.9361C121.901 62.8963 121.901 62.8424 121.911 62.7756C121.922 62.7088 121.932 62.6138 121.952 62.4919C121.972 62.3699 121.998 62.2145 122.032 62.0258C122.067 61.837 122.115 61.5944 122.183 61.2978C121.607 62.0858 120.868 62.7385 120.018 63.2109C119.237 63.65 118.36 63.8832 117.466 63.8888Z" fill="#B8B5B4"></path><path d="M129.149 63.8888C128.401 63.894 127.659 63.7568 126.962 63.4844C126.317 63.2401 125.744 62.8361 125.295 62.3096L126.098 61.3787C126.995 62.3494 128.079 62.8352 129.351 62.836C130.234 62.836 130.96 62.6301 131.528 62.2184C131.797 62.0385 132.016 61.7928 132.166 61.5043C132.315 61.2158 132.389 60.8938 132.381 60.5686C132.389 60.3545 132.333 60.143 132.221 59.9613C132.094 59.7821 131.93 59.6334 131.74 59.526C131.485 59.3802 131.215 59.2614 130.936 59.1716C130.616 59.0651 130.247 58.9559 129.832 58.8481C129.351 58.7128 128.933 58.5815 128.578 58.4539C128.266 58.3471 127.969 58.2009 127.694 58.0187C127.474 57.8714 127.292 57.6739 127.162 57.4422C127.036 57.1949 126.975 56.9199 126.982 56.6423C126.973 56.0995 127.1 55.5632 127.353 55.0836C127.595 54.6295 127.931 54.2326 128.337 53.919C128.764 53.5932 129.247 53.3499 129.762 53.2013C130.313 53.0375 130.884 52.9558 131.458 52.9587C132.144 52.9435 132.824 53.0807 133.451 53.3605C133.969 53.587 134.419 53.9465 134.756 54.4031L133.915 55.212C133.626 54.8008 133.224 54.4842 132.758 54.3017C132.258 54.0962 131.723 53.9928 131.183 53.9974C130.817 53.9962 130.453 54.0441 130.099 54.1399C129.772 54.2251 129.462 54.3691 129.185 54.5649C128.928 54.7508 128.715 54.9931 128.564 55.2736C128.403 55.5857 128.324 55.9338 128.333 56.2853C128.333 56.7133 128.503 57.0202 128.843 57.2059C129.353 57.4497 129.889 57.6365 130.439 57.7632C131.524 58.0328 132.35 58.3396 132.918 58.6837C133.485 59.0278 133.77 59.5508 133.771 60.2527C133.776 60.7592 133.658 61.2592 133.429 61.71C133.198 62.1596 132.873 62.5538 132.477 62.8655C132.037 63.205 131.541 63.462 131.011 63.6243C130.408 63.8088 129.78 63.898 129.149 63.8888Z" fill="#B8B5B4"></path><path d="M142.48 53.1423H143.766L143.223 55.6729C143.697 54.9542 144.302 54.3325 145.006 53.8408C145.597 53.4138 146.297 53.1649 147.023 53.123C147.13 53.123 147.22 53.123 147.294 53.132C147.368 53.141 147.438 53.15 147.506 53.1628L147.243 54.3569C146.379 54.3827 145.538 54.6493 144.815 55.1273C144.052 55.6279 143.43 56.3181 143.008 57.1315L141.642 63.6899H140.278L142.48 53.1423Z" fill="#B8B5B4"></path><path d="M150.992 63.8888C150.402 63.8994 149.817 63.7816 149.276 63.5434C148.789 63.3257 148.356 63.0011 148.01 62.5933C147.663 62.1766 147.398 61.6974 147.228 61.181C147.044 60.6195 146.952 60.0313 146.957 59.4399C146.956 58.6093 147.119 57.7869 147.438 57.021C147.753 56.2576 148.202 55.5581 148.764 54.9564C149.333 54.351 150.011 53.86 150.762 53.5094C151.544 53.1422 152.398 52.9558 153.261 52.9637C153.699 52.9613 154.135 53.0223 154.555 53.1448C154.94 53.2547 155.302 53.4368 155.62 53.6815C155.922 53.9195 156.166 54.2243 156.333 54.5725C156.51 54.9553 156.597 55.3739 156.588 55.7961C156.588 56.8361 156.133 57.6189 155.223 58.1444C154.312 58.67 152.907 58.9332 151.006 58.9341C150.632 58.9341 150.228 58.9276 149.793 58.9135C149.357 58.8994 148.886 58.8737 148.378 58.8326C148.364 58.9422 148.354 59.0436 148.347 59.1369C148.347 59.2307 148.337 59.3257 148.337 59.4194C148.335 59.8612 148.395 60.301 148.518 60.7252C148.629 61.1208 148.813 61.4918 149.061 61.8191C149.3 62.1354 149.609 62.3916 149.963 62.5676C150.358 62.7572 150.791 62.8509 151.228 62.8411C151.56 62.8395 151.891 62.7915 152.211 62.6986C152.544 62.6056 152.864 62.4733 153.166 62.3044C153.468 62.1353 153.748 61.9277 153.998 61.6868C154.247 61.4489 154.462 61.176 154.634 60.8767L155.759 61.222C155.512 61.6196 155.215 61.9834 154.876 62.3044C154.528 62.6354 154.14 62.921 153.721 63.1544C153.303 63.3894 152.858 63.5731 152.396 63.7013C151.938 63.827 151.466 63.89 150.992 63.8888ZM153.12 54.0307C152.555 54.0231 151.995 54.1333 151.475 54.3542C150.99 54.5627 150.542 54.8498 150.149 55.2042C149.761 55.5558 149.429 55.9654 149.165 56.4188C148.904 56.8612 148.702 57.336 148.563 57.8312C149.045 57.8581 149.49 57.8812 149.898 57.9018C150.307 57.9223 150.698 57.9326 151.073 57.9326C151.745 57.9425 152.418 57.8883 153.081 57.7708C153.542 57.6918 153.989 57.5415 154.405 57.3253C154.706 57.1692 154.956 56.9307 155.128 56.6371C155.274 56.3706 155.35 56.0709 155.349 55.7666C155.349 55.1589 155.128 54.7168 154.686 54.4403C154.213 54.1583 153.67 54.0172 153.12 54.0333V54.0307Z" fill="#B8B5B4"></path><path d="M159.565 53.1422H160.829L160.307 55.5316C160.593 55.1488 160.92 54.7987 161.281 54.4878C161.642 54.1768 162.032 53.9025 162.445 53.6686C162.847 53.4422 163.275 53.2655 163.719 53.1422C164.151 53.0229 164.597 52.962 165.044 52.9612C165.859 52.9612 166.441 53.1837 166.79 53.6288C167.139 54.0739 167.313 54.6877 167.312 55.47C167.312 55.7918 167.288 56.1132 167.242 56.4317C167.196 56.7629 167.132 57.1237 167.053 57.514L165.768 63.6885H164.401L165.647 57.7991C165.769 57.2331 165.837 56.6565 165.848 56.0773C165.848 54.837 165.325 54.2164 164.28 54.2156C163.879 54.2207 163.482 54.2958 163.106 54.4377C162.686 54.5932 162.287 54.8044 161.922 55.0656C161.533 55.3417 161.18 55.6647 160.869 56.0272C160.551 56.3924 160.281 56.7971 160.065 57.2316L158.719 63.6885H157.356L159.565 53.1422Z" fill="#B8B5B4"></path><path d="M172.634 63.8888C172.088 63.8984 171.548 63.7769 171.059 63.5344C170.602 63.3035 170.201 62.9754 169.883 62.5727C169.553 62.1525 169.305 61.6734 169.151 61.1604C168.98 60.6138 168.894 60.0439 168.896 59.4707C168.897 58.6369 169.06 57.8114 169.378 57.0415C169.688 56.2787 170.122 55.5738 170.664 54.9564C171.187 54.3583 171.817 53.864 172.521 53.4991C173.199 53.141 173.953 52.9538 174.719 52.9535C175.549 52.9535 176.238 53.1859 176.787 53.6507C177.321 54.0962 177.723 54.6811 177.95 55.3416L179.317 48.9039H180.681L177.95 61.8794C177.932 61.9594 177.919 62.0404 177.911 62.1221C177.911 62.3519 178.038 62.4662 178.293 62.4662L178.038 63.6808C177.93 63.6949 177.84 63.7039 177.766 63.7116C177.692 63.7193 177.623 63.7219 177.556 63.7219C177.291 63.7406 177.029 63.657 176.823 63.4882C176.742 63.4167 176.677 63.328 176.633 63.2284C176.589 63.1288 176.567 63.0207 176.569 62.9117C176.573 62.7795 176.586 62.6477 176.61 62.5175C176.636 62.348 176.696 62.0553 176.79 61.6367C176.267 62.3153 175.607 62.8742 174.853 63.2763C174.175 63.6623 173.413 63.8727 172.634 63.8888ZM173.196 62.6742C173.556 62.6666 173.912 62.598 174.25 62.4713C174.641 62.3312 175.015 62.1446 175.363 61.9154C175.722 61.6816 176.05 61.4024 176.338 61.0847C176.615 60.7874 176.831 60.4385 176.975 60.0575L177.638 56.7989C177.6 56.4382 177.491 56.0889 177.316 55.7717C177.148 55.4603 176.933 55.1767 176.68 54.9307C176.429 54.6902 176.137 54.4982 175.817 54.3645C175.506 54.2321 175.171 54.1636 174.833 54.1629C174.229 54.1635 173.634 54.32 173.106 54.6175C172.562 54.9182 172.076 55.3158 171.671 55.791C171.26 56.2767 170.931 56.8277 170.697 57.4216C170.463 58.0002 170.341 58.6186 170.337 59.2435C170.334 59.693 170.401 60.1402 170.537 60.5685C170.662 60.9633 170.859 61.3309 171.119 61.6522C171.367 61.9573 171.675 62.2085 172.023 62.3904C172.385 62.5798 172.787 62.678 173.196 62.6768V62.6742Z" fill="#B8B5B4"></path><path d="M182.792 53.1423H184.077L183.536 55.6729C184.009 54.9539 184.614 54.3321 185.318 53.8408C185.91 53.4138 186.609 53.1649 187.335 53.123C187.442 53.123 187.533 53.123 187.607 53.132C187.681 53.141 187.751 53.15 187.818 53.1628L187.556 54.3569C186.691 54.3827 185.851 54.6493 185.127 55.1273C184.364 55.6279 183.742 56.3181 183.32 57.1315L181.955 63.6899H180.59L182.792 53.1423Z" fill="#B8B5B4"></path><path d="M191.303 63.8888C190.713 63.8994 190.128 63.7816 189.587 63.5434C189.1 63.3258 188.668 63.0012 188.322 62.5933C187.975 62.177 187.709 61.6977 187.539 61.181C187.355 60.6195 187.263 60.0313 187.268 59.4399C187.268 58.6094 187.431 57.7871 187.749 57.021C188.064 56.2576 188.513 55.5581 189.075 54.9564C189.644 54.351 190.322 53.86 191.073 53.5094C191.856 53.1422 192.71 52.9558 193.573 52.9637C194.01 52.9613 194.446 53.0223 194.866 53.1448C195.252 53.2547 195.613 53.4368 195.931 53.6815C196.233 53.9195 196.477 54.2243 196.644 54.5725C196.821 54.9553 196.908 55.3739 196.899 55.7961C196.899 56.8361 196.443 57.6189 195.532 58.1444C194.622 58.67 193.217 58.9332 191.317 58.9341C190.943 58.9341 190.538 58.9272 190.103 58.9135C189.667 58.8998 189.196 58.8729 188.688 58.8326C188.674 58.9422 188.664 59.0436 188.657 59.1369C188.657 59.2307 188.647 59.3257 188.647 59.4194C188.645 59.8611 188.706 60.3009 188.828 60.7252C188.939 61.1208 189.123 61.4918 189.37 61.8191C189.61 62.1351 189.919 62.3912 190.273 62.5676C190.668 62.7572 191.101 62.8509 191.538 62.8411C191.871 62.8394 192.202 62.7914 192.522 62.6986C192.854 62.6054 193.174 62.4731 193.476 62.3044C193.778 62.135 194.058 61.9275 194.309 61.6868C194.558 61.4486 194.772 61.1758 194.945 60.8767L196.07 61.222C195.824 61.6199 195.527 61.9838 195.187 62.3044C194.839 62.6354 194.451 62.921 194.032 63.1544C193.614 63.3892 193.169 63.5728 192.708 63.7013C192.25 63.8269 191.778 63.8899 191.303 63.8888ZM193.431 54.0307C192.867 54.0233 192.307 54.1334 191.786 54.3542C191.301 54.5629 190.853 54.85 190.46 55.2042C190.072 55.5558 189.74 55.9654 189.476 56.4188C189.215 56.8612 189.013 57.336 188.874 57.8312C189.356 57.8581 189.801 57.8812 190.21 57.9018C190.618 57.9223 191.009 57.9326 191.384 57.9326C192.057 57.9425 192.729 57.8883 193.392 57.7708C193.854 57.6918 194.301 57.5415 194.717 57.3253C195.017 57.1688 195.268 56.9303 195.439 56.6371C195.585 56.3706 195.661 56.0709 195.66 55.7666C195.66 55.1589 195.439 54.7168 194.998 54.4403C194.523 54.1578 193.979 54.0167 193.429 54.0333L193.431 54.0307Z" fill="#B8B5B4"></path><path d="M204.635 63.8105C204.139 63.8105 203.751 63.6821 203.471 63.4253C203.191 63.1685 203.049 62.8051 203.049 62.3326C203.05 62.2445 203.056 62.1565 203.07 62.0694C203.084 61.9744 203.103 61.873 203.13 61.7651L205.819 48.9116H207.182L204.572 61.3004C204.559 61.3601 204.55 61.4206 204.543 61.4814C204.536 61.5423 204.532 61.6036 204.533 61.665C204.533 62.2582 204.847 62.5548 205.475 62.5548C205.651 62.5514 205.826 62.5312 205.997 62.4944C206.195 62.4549 206.389 62.4008 206.579 62.3326L206.54 63.4458C206.231 63.5626 205.911 63.6486 205.586 63.7026C205.273 63.7664 204.954 63.8024 204.635 63.8105Z" fill="#B8B5B4"></path><path d="M209.913 53.1422L210.696 50.9967H210.238L210.658 48.9116H212.004L211.561 50.9967L210.619 53.1422H209.913Z" fill="#B8B5B4"></path><path d="M215.373 63.8888C214.831 63.8988 214.294 63.7773 213.808 63.5344C213.357 63.3012 212.959 62.9733 212.643 62.5728C212.314 62.1522 212.065 61.6732 211.911 61.1604C211.74 60.6139 211.654 60.0439 211.656 59.4708C211.656 58.6368 211.82 57.8111 212.139 57.0416C212.448 56.2785 212.882 55.5736 213.424 54.9564C213.945 54.3603 214.571 53.8663 215.27 53.4992C215.945 53.1405 216.696 52.9532 217.458 52.9535C218.302 52.9535 218.998 53.1859 219.546 53.6507C220.081 54.0961 220.484 54.681 220.712 55.3416L221.193 53.1345H222.558L220.712 61.8794C220.688 61.9632 220.675 62.0494 220.671 62.1362C220.671 62.3519 220.798 62.4598 221.053 62.4598L220.798 63.6744C220.691 63.6885 220.591 63.7014 220.496 63.7155C220.417 63.7273 220.336 63.7337 220.256 63.7347C220.003 63.7285 219.759 63.6382 219.563 63.478C219.487 63.4075 219.427 63.3212 219.387 63.225C219.347 63.1287 219.328 63.0249 219.332 62.9207C219.336 62.7783 219.353 62.6365 219.382 62.497C219.415 62.3216 219.472 62.0314 219.553 61.6265C219.03 62.3051 218.369 62.864 217.616 63.2661C216.931 63.6577 216.161 63.8717 215.373 63.8888ZM215.936 62.6742C216.306 62.6674 216.672 62.5989 217.02 62.4713C217.413 62.3333 217.787 62.1466 218.134 61.9154C218.488 61.6794 218.812 61.4004 219.098 61.0847C219.375 60.7874 219.591 60.4385 219.735 60.0575L220.398 56.7989C220.36 56.4382 220.251 56.0889 220.076 55.7717C219.91 55.4621 219.695 55.1816 219.439 54.941C219.185 54.705 218.893 54.5136 218.576 54.3748C218.26 54.234 217.917 54.1618 217.571 54.163C216.97 54.1628 216.379 54.3193 215.855 54.6175C215.313 54.9219 214.831 55.323 214.431 55.8013C214.02 56.2907 213.691 56.8445 213.457 57.4409C213.222 58.0192 213.099 58.6377 213.095 59.2628C213.092 59.7127 213.16 60.1603 213.295 60.5891C213.419 60.9812 213.617 61.3456 213.877 61.6625C214.128 61.9628 214.435 62.2102 214.781 62.3904C215.138 62.5787 215.534 62.6769 215.936 62.6768V62.6742Z" fill="#B8B5B4"></path><path d="M226.616 63.8888C225.868 63.894 225.125 63.7567 224.427 63.4844C223.783 63.2405 223.21 62.8364 222.762 62.3096L223.564 61.3787C224.461 62.3494 225.546 62.8351 226.818 62.836C227.7 62.836 228.426 62.6301 228.995 62.2184C229.263 62.0379 229.482 61.792 229.631 61.5037C229.78 61.2153 229.855 60.8937 229.848 60.5685C229.856 60.3545 229.8 60.143 229.688 59.9612C229.563 59.7817 229.4 59.6322 229.212 59.5234C228.957 59.3778 228.687 59.2591 228.408 59.1691C228.087 59.0625 227.718 58.9533 227.304 58.8455C226.823 58.7171 226.402 58.5797 226.048 58.4513C225.737 58.3446 225.441 58.1983 225.166 58.0161C224.946 57.8692 224.763 57.6716 224.634 57.4396C224.508 57.1924 224.446 56.9174 224.453 56.6397C224.444 56.0967 224.572 55.5603 224.825 55.081C225.067 54.6267 225.403 54.2297 225.809 53.9165C226.236 53.5906 226.718 53.3472 227.233 53.1987C227.783 53.0351 228.355 52.9534 228.929 52.9561C229.613 52.9396 230.291 53.0741 230.918 53.3502C231.435 53.5774 231.885 53.9368 232.222 54.3928L231.379 55.2017C231.091 54.7907 230.689 54.4741 230.224 54.2914C229.375 53.9498 228.439 53.8935 227.556 54.1309C227.229 54.2161 226.919 54.3601 226.642 54.5559C226.384 54.7418 226.172 54.9841 226.02 55.2646C225.859 55.5764 225.78 55.9247 225.79 56.2763C225.79 56.7077 225.959 57.0146 226.299 57.1969C226.81 57.4406 227.345 57.6274 227.895 57.7541C228.978 58.0238 229.805 58.3306 230.374 58.6747C230.944 59.0188 231.228 59.5418 231.227 60.2437C231.232 60.7501 231.115 61.2502 230.886 61.701C230.655 62.1509 230.329 62.5451 229.932 62.8565C229.493 63.1963 228.997 63.4533 228.467 63.6153C227.868 63.8018 227.243 63.894 226.616 63.8888Z" fill="#B8B5B4"></path><path d="M236.01 63.8888C235.262 63.894 234.52 63.7568 233.823 63.4844C233.178 63.2405 232.605 62.8364 232.157 62.3096L232.959 61.3787C233.857 62.3494 234.942 62.8351 236.212 62.836C237.095 62.836 237.822 62.6301 238.39 62.2184C238.659 62.0379 238.877 61.7921 239.027 61.5037C239.176 61.2153 239.25 60.8937 239.244 60.5686C239.251 60.3545 239.196 60.143 239.083 59.9613C238.956 59.7821 238.791 59.6334 238.601 59.526C238.346 59.3801 238.077 59.2614 237.798 59.1716C237.477 59.0651 237.108 58.9559 236.694 58.8481C236.212 58.7128 235.793 58.5815 235.439 58.4539C235.127 58.3472 234.831 58.2009 234.556 58.0187C234.336 57.8718 234.153 57.6742 234.024 57.4422C233.898 57.195 233.836 56.92 233.843 56.6423C233.834 56.0995 233.961 55.5632 234.214 55.0836C234.457 54.6295 234.793 54.2325 235.199 53.919C235.626 53.5931 236.108 53.3498 236.623 53.2013C237.174 53.0377 237.745 52.956 238.319 52.9587C239.002 52.942 239.681 53.0765 240.307 53.3528C240.825 53.5796 241.275 53.9391 241.612 54.3954L240.769 55.2043C240.481 54.7932 240.079 54.4767 239.614 54.294C238.768 53.9539 237.836 53.8972 236.955 54.1322C236.628 54.217 236.318 54.361 236.041 54.5572C235.783 54.743 235.57 54.9853 235.418 55.2659C235.258 55.578 235.179 55.9262 235.189 56.2776C235.189 56.709 235.358 57.0159 235.698 57.1982C236.209 57.4419 236.744 57.6287 237.294 57.7554C238.378 58.0251 239.205 58.3319 239.773 58.676C240.342 59.0201 240.627 59.5431 240.627 60.245C240.634 60.7523 240.518 61.2538 240.29 61.7061C240.059 62.1561 239.733 62.5503 239.337 62.8617C238.897 63.2012 238.401 63.4582 237.871 63.6205C237.268 63.8061 236.641 63.8966 236.01 63.8888Z" fill="#B8B5B4"></path><path d="M245.146 63.8888C243.512 63.8888 242.695 62.9845 242.696 61.1758C242.697 60.8883 242.714 60.6012 242.747 60.3156C242.784 59.9852 242.841 59.6572 242.916 59.3334L244.238 53.1422H245.584L244.339 59.0933C244.214 59.6106 244.147 60.1402 244.137 60.6725C244.137 62.0087 244.713 62.6767 245.864 62.6767C246.255 62.6741 246.642 62.6055 247.01 62.4739C247.411 62.3329 247.789 62.1353 248.135 61.8871C248.505 61.6201 248.846 61.3146 249.153 60.9755C249.482 60.6141 249.765 60.213 249.996 59.7815L251.397 53.1422H252.77L250.942 61.7446C250.907 61.8702 250.887 61.9994 250.881 62.1298C250.881 62.3596 251.009 62.4739 251.263 62.4739L251.002 63.6885C250.895 63.7026 250.805 63.7116 250.731 63.7193C250.657 63.727 250.587 63.7296 250.521 63.7296C250.269 63.7471 250.019 63.6713 249.818 63.5164C249.738 63.4443 249.674 63.355 249.633 63.255C249.591 63.155 249.572 63.047 249.577 62.9387C249.577 62.8989 249.577 62.8449 249.586 62.7782C249.595 62.7114 249.607 62.6164 249.627 62.4944C249.647 62.3724 249.674 62.2171 249.707 62.0284C249.74 61.8396 249.791 61.5969 249.859 61.3004C249.283 62.0883 248.544 62.7409 247.694 63.2134C246.915 63.6513 246.038 63.8836 245.146 63.8888Z" fill="#B8B5B4"></path><path d="M255.765 53.1423H257.05L256.507 55.6729C256.982 54.9544 257.587 54.3328 258.29 53.8408C258.882 53.4142 259.581 53.1654 260.307 53.123C260.415 53.123 260.506 53.123 260.578 53.132C260.651 53.141 260.723 53.15 260.79 53.1628L260.535 54.3569C259.67 54.3827 258.829 54.6493 258.105 55.1273C257.343 55.6286 256.721 56.3186 256.298 57.1315L254.933 63.6899H253.569L255.765 53.1423Z" fill="#B8B5B4"></path><path d="M263.996 63.8888C263.454 63.8988 262.917 63.7773 262.431 63.5344C261.979 63.3012 261.582 62.9733 261.266 62.5728C260.937 62.1522 260.688 61.6732 260.534 61.1604C260.363 60.6139 260.277 60.0439 260.279 59.4708C260.279 58.6368 260.443 57.8111 260.762 57.0416C261.071 56.2785 261.505 55.5736 262.047 54.9564C262.568 54.36 263.194 53.866 263.893 53.4992C264.567 53.1405 265.318 52.9532 266.081 52.9535C266.925 52.9535 267.621 53.1859 268.169 53.6507C268.704 54.0961 269.107 54.681 269.334 55.3416L269.816 53.1345H271.181L269.334 61.8794C269.311 61.9632 269.298 62.0494 269.294 62.1362C269.294 62.3519 269.421 62.4598 269.676 62.4598L269.421 63.6744C269.314 63.6885 269.213 63.7014 269.119 63.7155C269.039 63.7273 268.959 63.7337 268.878 63.7347C268.626 63.7285 268.382 63.6382 268.186 63.478C268.109 63.4075 268.049 63.3212 268.01 63.225C267.97 63.1287 267.951 63.0249 267.955 62.9207C267.959 62.7783 267.976 62.6365 268.005 62.497C268.038 62.3216 268.095 62.0314 268.176 61.6265C267.652 62.3051 266.992 62.864 266.239 63.2661C265.554 63.6577 264.783 63.8717 263.996 63.8888ZM264.558 62.6742C264.928 62.6676 265.295 62.599 265.643 62.4713C266.036 62.3333 266.41 62.1466 266.757 61.9154C267.111 61.6794 267.435 61.4004 267.721 61.0847C267.997 60.7874 268.214 60.4385 268.358 60.0575L269.021 56.7989C268.983 56.4382 268.873 56.0889 268.699 55.7717C268.532 55.4621 268.317 55.1816 268.062 54.941C267.808 54.705 267.516 54.5136 267.199 54.3748C266.882 54.234 266.54 54.1618 266.194 54.163C265.593 54.1628 265.001 54.3193 264.478 54.6175C263.936 54.9219 263.453 55.323 263.054 55.8013C262.642 56.2906 262.313 56.8445 262.078 57.4409C261.844 58.0195 261.722 58.6379 261.718 59.2628C261.715 59.7127 261.783 60.1603 261.918 60.5891C262.042 60.9812 262.239 61.3456 262.5 61.6625C262.751 61.9628 263.058 62.2102 263.404 62.3904C263.76 62.5785 264.156 62.6768 264.558 62.6768V62.6742Z" fill="#B8B5B4"></path><path d="M274.175 53.1422H275.436L274.916 55.5316C275.201 55.1488 275.527 54.7987 275.889 54.4878C276.249 54.1771 276.639 53.9028 277.052 53.6686C277.454 53.4425 277.882 53.2658 278.326 53.1422C278.757 53.0229 279.203 52.962 279.65 52.9612C280.466 52.9612 281.048 53.1837 281.397 53.6288C281.746 54.0739 281.92 54.6877 281.918 55.47C281.918 55.7918 281.894 56.1132 281.848 56.4317C281.801 56.7629 281.738 57.1237 281.658 57.514L280.373 63.6885H279.008L280.253 57.7991C280.376 57.2332 280.443 56.6565 280.454 56.0773C280.454 54.837 279.932 54.2164 278.887 54.2156C278.486 54.2207 278.089 54.2958 277.713 54.4377C277.293 54.593 276.894 54.8041 276.529 55.0656C276.14 55.3417 275.786 55.6646 275.475 56.0272C275.157 56.3927 274.887 56.7974 274.671 57.2316L273.326 63.6885H271.961L274.175 53.1422Z" fill="#B8B5B4"></path><path d="M287.485 63.8888C286.911 63.8973 286.341 63.7762 285.819 63.5344C285.337 63.308 284.909 62.98 284.563 62.5727C284.215 62.1569 283.949 61.6774 283.781 61.1604C283.598 60.6058 283.506 60.0245 283.51 59.4399C283.508 58.5976 283.679 57.7641 284.012 56.9915C284.337 56.2223 284.796 55.5186 285.369 54.914C285.936 54.3152 286.61 53.8307 287.357 53.4863C288.116 53.1353 288.942 52.9561 289.776 52.9612C290.726 52.9612 291.506 53.1867 292.114 53.6378C292.719 54.083 293.143 54.7338 293.309 55.47L291.908 55.895C291.766 55.3836 291.454 54.937 291.024 54.6303C290.569 54.3192 290.028 54.1602 289.478 54.1758C288.889 54.175 288.308 54.3135 287.782 54.5802C287.236 54.853 286.743 55.2232 286.327 55.6728C285.892 56.1451 285.546 56.6939 285.308 57.2919C285.053 57.9149 284.924 58.5825 284.926 59.2563C284.921 59.7127 284.989 60.1669 285.126 60.6019C285.249 60.9933 285.439 61.3597 285.689 61.6842C285.923 61.9889 286.221 62.2379 286.561 62.4135C286.913 62.5894 287.302 62.6774 287.696 62.6703C288.025 62.6691 288.353 62.6211 288.67 62.5278C288.995 62.4348 289.309 62.3024 289.603 62.1336C289.888 61.9714 290.154 61.7781 290.396 61.5571C290.614 61.3623 290.794 61.1286 290.927 60.8677L292.193 61.2734C291.971 61.6598 291.693 62.0111 291.369 62.3159C290.676 62.9688 289.836 63.4412 288.921 63.6923C288.453 63.8224 287.97 63.8884 287.485 63.8888Z" fill="#B8B5B4"></path><path d="M298.004 63.8888C297.414 63.8994 296.828 63.7816 296.287 63.5434C295.8 63.3257 295.368 63.0011 295.022 62.5933C294.674 62.177 294.409 61.6976 294.24 61.181C294.055 60.6195 293.964 60.0313 293.968 59.4399C293.967 58.6093 294.131 57.7869 294.45 57.021C294.764 56.2573 295.213 55.5577 295.775 54.9564C296.345 54.351 297.023 53.86 297.773 53.5094C298.556 53.1421 299.41 52.9556 300.273 52.9638C300.711 52.9613 301.146 53.0223 301.567 53.1448C301.952 53.2547 302.313 53.4368 302.631 53.6815C302.934 53.9195 303.178 54.2243 303.345 54.5725C303.521 54.9553 303.609 55.374 303.599 55.7961C303.599 56.8361 303.144 57.6189 302.234 58.1444C301.324 58.67 299.919 58.9332 298.018 58.9341C297.644 58.9341 297.24 58.9276 296.803 58.9135C296.366 58.8994 295.898 58.8737 295.39 58.8326C295.375 58.9422 295.365 59.0436 295.359 59.1369C295.359 59.2307 295.349 59.3257 295.349 59.4194C295.346 59.8612 295.407 60.301 295.53 60.7252C295.641 61.1208 295.825 61.4918 296.072 61.8191C296.311 62.1358 296.621 62.392 296.975 62.5676C297.369 62.7572 297.803 62.8509 298.239 62.8411C298.572 62.8395 298.903 62.7915 299.223 62.6986C299.555 62.6054 299.876 62.4731 300.178 62.3044C300.48 62.1353 300.759 61.9277 301.009 61.6868C301.258 61.4485 301.473 61.1758 301.646 60.8767L302.77 61.222C302.523 61.62 302.226 61.9838 301.887 62.3044C301.539 62.6357 301.151 62.9213 300.733 63.1544C300.314 63.3894 299.869 63.5731 299.407 63.7013C298.95 63.827 298.478 63.89 298.004 63.8888ZM300.132 54.0307C299.567 54.0231 299.007 54.1333 298.486 54.3543C298.002 54.5627 297.554 54.8498 297.161 55.2042C296.773 55.5554 296.441 55.9652 296.177 56.4188C295.916 56.8612 295.713 57.336 295.574 57.8312C296.056 57.8577 296.501 57.8812 296.909 57.9018C297.316 57.9223 297.708 57.9326 298.084 57.9326C298.757 57.9425 299.429 57.8883 300.092 57.7708C300.554 57.6918 301.001 57.5415 301.417 57.3253C301.717 57.1693 301.968 56.9307 302.14 56.6371C302.286 56.3706 302.361 56.0709 302.36 55.7666C302.36 55.1589 302.139 54.7168 301.697 54.4403C301.224 54.1581 300.681 54.017 300.132 54.0333V54.0307Z" fill="#B8B5B4"></path><path d="M311.601 53.1423H312.806L312.384 55.1876C312.913 54.5329 313.562 53.9864 314.295 53.5775C314.98 53.1806 315.755 52.9684 316.545 52.9612C317.085 52.9527 317.618 53.0774 318.1 53.3246C318.555 53.5614 318.955 53.8926 319.274 54.2965C319.604 54.7169 319.852 55.196 320.007 55.7089C320.177 56.2527 320.263 56.8195 320.262 57.3895C320.261 58.2149 320.104 59.0325 319.798 59.7982C319.502 60.5629 319.074 61.2688 318.534 61.8833C318.01 62.4812 317.38 62.9753 316.677 63.3406C315.992 63.7009 315.231 63.8885 314.459 63.8875C313.616 63.8875 312.923 63.6616 312.381 63.2096C311.841 62.7589 311.434 62.1667 311.207 61.4981L309.829 67.9974H308.464L311.601 53.1423ZM314.332 62.6768C314.936 62.6756 315.531 62.5183 316.058 62.2197C316.603 61.9193 317.089 61.5217 317.492 61.0462C317.903 60.5637 318.232 60.0163 318.466 59.4259C318.702 58.8513 318.825 58.236 318.828 57.6142C318.831 57.1613 318.763 56.7107 318.627 56.2789C318.504 55.8806 318.306 55.5096 318.045 55.1863C317.797 54.8804 317.49 54.6287 317.142 54.4467C316.775 54.2606 316.368 54.1672 315.958 54.1745C315.596 54.1816 315.239 54.2534 314.902 54.3864C314.511 54.533 314.137 54.723 313.788 54.9526C313.43 55.1868 313.103 55.4659 312.815 55.7833C312.543 56.0741 312.327 56.4138 312.178 56.7848L311.496 60.0229C311.559 60.39 311.678 60.7451 311.848 61.0757C312.007 61.3895 312.217 61.6739 312.47 61.9167C312.716 62.1509 313.001 62.3391 313.313 62.4726C313.633 62.6091 313.977 62.6786 314.325 62.6768H314.332Z" fill="#B8B5B4"></path><path d="M323.238 63.8105C322.742 63.8105 322.355 63.6821 322.073 63.4253C321.79 63.1685 321.652 62.8051 321.652 62.3326C321.653 62.2446 321.659 62.1566 321.672 62.0694C321.685 61.9744 321.705 61.873 321.733 61.7651L324.422 48.9116H325.787L323.178 61.3004C323.165 61.3601 323.155 61.4206 323.149 61.4814C323.14 61.5422 323.137 61.6036 323.138 61.665C323.138 62.2582 323.453 62.5548 324.081 62.5548C324.256 62.5514 324.431 62.5312 324.603 62.4944C324.801 62.4549 324.995 62.4008 325.185 62.3326L325.145 63.4458C324.837 63.5626 324.517 63.6486 324.192 63.7026C323.877 63.7664 323.558 63.8025 323.238 63.8105Z" fill="#B8B5B4"></path><path d="M329.582 63.8888C327.949 63.8888 327.132 62.9845 327.133 61.1758C327.134 60.8884 327.151 60.6012 327.183 60.3156C327.221 59.9851 327.278 59.6572 327.353 59.3334L328.678 53.1396H330.024L328.778 59.0907C328.654 59.6081 328.587 60.1377 328.577 60.67C328.577 62.0061 329.153 62.6742 330.304 62.6742C330.695 62.6715 331.082 62.6029 331.45 62.4713C331.851 62.3303 332.229 62.1328 332.574 61.8846C332.945 61.6178 333.287 61.3123 333.593 60.973C333.922 60.6116 334.205 60.2105 334.436 59.7789L335.837 53.1396H337.203L335.376 61.742C335.341 61.8676 335.321 61.9969 335.316 62.1272C335.316 62.357 335.443 62.4713 335.698 62.4713L335.437 63.6859C335.33 63.7001 335.24 63.709 335.166 63.7167C335.092 63.7244 335.022 63.727 334.956 63.727C334.704 63.7443 334.454 63.6686 334.253 63.5139C334.173 63.4417 334.109 63.3524 334.068 63.2524C334.026 63.1525 334.007 63.0444 334.012 62.9361C334.013 62.8824 334.016 62.8289 334.022 62.7756C334.029 62.7076 334.041 62.6138 334.062 62.4919C334.082 62.3699 334.109 62.2145 334.142 62.0258C334.175 61.837 334.226 61.5944 334.294 61.2978C333.718 62.0858 332.979 62.7385 332.129 63.2109C331.35 63.6492 330.474 63.8824 329.582 63.8888Z" fill="#B8B5B4"></path><path d="M341.272 63.8888C340.524 63.8941 339.782 63.7569 339.084 63.4844C338.44 63.2405 337.867 62.8364 337.419 62.3096L338.221 61.3787C339.117 62.3494 340.201 62.8351 341.473 62.836C342.355 62.836 343.081 62.6301 343.651 62.2184C343.919 62.0381 344.138 61.7923 344.288 61.5039C344.437 61.2155 344.512 60.8938 344.505 60.5685C344.513 60.3543 344.457 60.1426 344.343 59.9612C344.217 59.7818 344.053 59.633 343.862 59.526C343.607 59.3799 343.338 59.2612 343.059 59.1716C342.738 59.0651 342.37 58.9559 341.954 58.8481C341.473 58.7128 341.055 58.5814 340.7 58.4539C340.389 58.3471 340.092 58.2009 339.818 58.0186C339.597 57.872 339.415 57.6744 339.285 57.4422C339.159 57.1952 339.097 56.92 339.105 56.6423C339.095 56.0994 339.222 55.563 339.475 55.0836C339.718 54.6298 340.054 54.2329 340.46 53.919C340.886 53.5932 341.37 53.3498 341.884 53.2013C342.435 53.0377 343.007 52.956 343.581 52.9586C344.264 52.9421 344.942 53.0766 345.568 53.3528C346.086 53.58 346.536 53.9393 346.874 54.3954L346.029 55.2042C345.742 54.7934 345.34 54.4769 344.876 54.2939C344.03 53.9539 343.097 53.8972 342.217 54.1322C341.889 54.217 341.579 54.361 341.302 54.5571C341.044 54.7426 340.831 54.985 340.68 55.2659C340.519 55.5779 340.44 55.9261 340.449 56.2776C340.449 56.7056 340.619 57.0125 340.959 57.1982C341.469 57.4414 342.004 57.6282 342.554 57.7554C343.638 58.0251 344.465 58.3319 345.034 58.676C345.602 59.0201 345.887 59.5431 345.888 60.245C345.892 60.7515 345.775 61.2516 345.546 61.7023C345.314 62.1522 344.989 62.5464 344.593 62.8578C344.153 63.1973 343.657 63.4543 343.127 63.6166C342.526 63.803 341.901 63.8948 341.272 63.8888Z" fill="#B8B5B4"></path><path d="M354.817 54.2349H353.452L353.674 53.1422H355.058L355.099 52.8597C355.179 52.2574 355.348 51.6705 355.6 51.1187C355.819 50.6384 356.114 50.1974 356.474 49.813C356.799 49.467 357.188 49.1886 357.62 48.9938C358.034 48.8065 358.482 48.7098 358.935 48.7101C359.308 48.7071 359.678 48.7687 360.029 48.8924C360.347 48.9995 360.642 49.164 360.901 49.3777L360.281 50.3689C360.116 50.2103 359.916 50.0925 359.698 50.0248C359.459 49.945 359.208 49.9043 358.956 49.9041C358.66 49.9033 358.368 49.9702 358.102 50.0999C357.835 50.2296 357.602 50.4186 357.419 50.6527C356.994 51.1517 356.684 51.8737 356.487 52.8187L356.425 53.1422H359.135L358.915 54.2349H356.185L353.294 67.973H351.928L354.817 54.2349Z" fill="#B8B5B4"></path><path d="M362.566 63.8888C362.023 63.8988 361.486 63.7773 361 63.5344C360.548 63.3012 360.151 62.9733 359.836 62.5728C359.505 62.1526 359.257 61.6735 359.102 61.1604C358.932 60.6137 358.846 60.0438 358.847 59.4708C358.847 58.6369 359.011 57.8112 359.329 57.0416C359.639 56.279 360.073 55.5742 360.614 54.9565C361.136 54.3603 361.762 53.8663 362.461 53.4992C363.136 53.1403 363.887 52.9529 364.649 52.9535C365.492 52.9535 366.188 53.1859 366.738 53.6507C367.272 54.0962 367.674 54.6811 367.901 55.3416L368.383 53.1345H369.749L367.901 61.8794C367.879 61.9632 367.865 62.0494 367.862 62.1362C367.862 62.3519 367.989 62.4598 368.244 62.4598L367.989 63.6744C367.882 63.6885 367.782 63.7014 367.689 63.7155C367.609 63.7273 367.529 63.7337 367.448 63.7347C367.195 63.7285 366.952 63.6382 366.755 63.478C366.679 63.4076 366.619 63.3213 366.579 63.2251C366.539 63.1288 366.52 63.025 366.524 62.9207C366.527 62.7782 366.544 62.6363 366.575 62.497C366.608 62.3216 366.665 62.0314 366.745 61.6265C366.221 62.3051 365.561 62.864 364.807 63.2661C364.123 63.6577 363.353 63.8717 362.566 63.8888ZM363.127 62.6742C363.497 62.6677 363.864 62.5991 364.211 62.4713C364.604 62.3338 364.978 62.147 365.325 61.9154C365.679 61.6797 366.003 61.4007 366.289 61.0847C366.566 60.7877 366.783 60.4387 366.926 60.0575L367.588 56.7989C367.551 56.4382 367.442 56.0888 367.267 55.7717C367.099 55.4617 366.882 55.1812 366.624 54.941C366.371 54.7047 366.079 54.5133 365.762 54.3748C365.446 54.234 365.103 54.1618 364.757 54.163C364.156 54.1628 363.565 54.3193 363.041 54.6175C362.499 54.9222 362.016 55.3232 361.616 55.8013C361.205 56.291 360.876 56.8448 360.642 57.4409C360.407 58.0193 360.285 58.6378 360.281 59.2628C360.278 59.7128 360.345 60.1605 360.481 60.5891C360.605 60.9812 360.803 61.3456 361.063 61.6625C361.314 61.9628 361.621 62.2102 361.967 62.3904C362.325 62.5795 362.723 62.6778 363.127 62.6768V62.6742Z" fill="#B8B5B4"></path><path d="M374.833 63.8888C374.258 63.8973 373.688 63.7762 373.166 63.5344C372.684 63.308 372.256 62.98 371.91 62.5727C371.563 62.1566 371.297 61.6772 371.128 61.1604C370.945 60.6057 370.853 60.0245 370.857 59.4399C370.855 58.5976 371.026 57.764 371.359 56.9914C371.683 56.2234 372.142 55.5206 372.714 54.9166C373.28 54.3178 373.955 53.8332 374.701 53.4889C375.46 53.1379 376.286 52.9586 377.121 52.9637C378.071 52.9637 378.851 53.1893 379.46 53.6404C380.064 54.0863 380.488 54.7368 380.655 55.4725L379.254 55.8975C379.112 55.3861 378.8 54.9395 378.37 54.6329C377.915 54.3218 377.374 54.1628 376.824 54.1783C376.235 54.1778 375.654 54.3163 375.128 54.5828C374.582 54.8559 374.089 55.2261 373.673 55.6754C373.238 56.148 372.893 56.6967 372.654 57.2945C372.399 57.9175 372.269 58.5851 372.272 59.2589C372.267 59.7152 372.335 60.1695 372.472 60.6045C372.595 60.9958 372.785 61.3622 373.035 61.6868C373.269 61.9915 373.567 62.2405 373.907 62.4161C374.259 62.5919 374.648 62.68 375.041 62.6729C375.371 62.6717 375.699 62.6237 376.016 62.5304C376.341 62.4374 376.655 62.305 376.949 62.1362C377.234 61.9746 377.5 61.7812 377.742 61.5597C377.96 61.3649 378.14 61.1311 378.273 60.8702L379.539 61.276C379.317 61.6624 379.039 62.0137 378.715 62.3185C378.022 62.9713 377.182 63.4438 376.267 63.6949C375.799 63.8239 375.317 63.8891 374.833 63.8888Z" fill="#B8B5B4"></path><path d="M383.303 53.1423H384.668L382.46 63.6885H381.095L383.303 53.1423ZM384.207 48.9053H385.571L385.151 50.93H383.785L384.207 48.9053Z" fill="#B8B5B4"></path><path d="M387.339 63.8105C386.843 63.8105 386.455 63.6821 386.174 63.4253C385.894 63.1685 385.753 62.8051 385.753 62.3326C385.754 62.2446 385.76 62.1566 385.773 62.0694C385.786 61.9744 385.806 61.873 385.834 61.7651L388.523 48.9116H389.888L387.279 61.3004C387.265 61.3671 387.255 61.4288 387.248 61.4814C387.241 61.5423 387.238 61.6037 387.24 61.665C387.24 62.2582 387.554 62.5548 388.182 62.5548C388.357 62.5514 388.532 62.5312 388.704 62.4944C388.902 62.4549 389.096 62.4008 389.286 62.3326L389.246 63.4458C388.938 63.5626 388.618 63.6486 388.293 63.7026C387.978 63.7664 387.659 63.8025 387.339 63.8105Z" fill="#B8B5B4"></path><path d="M394.927 63.8888C394.337 63.8994 393.751 63.7816 393.211 63.5434C392.724 63.3258 392.292 63.0012 391.946 62.5933C391.598 62.177 391.332 61.6977 391.163 61.181C390.979 60.6195 390.887 60.0313 390.892 59.4399C390.891 58.6093 391.054 57.7869 391.373 57.021C391.687 56.2576 392.137 55.5581 392.699 54.9564C393.268 54.351 393.946 53.86 394.697 53.5094C395.479 53.1422 396.333 52.9558 397.196 52.9637C397.634 52.9613 398.07 53.0223 398.49 53.1448C398.875 53.2547 399.236 53.4368 399.555 53.6815C399.857 53.9195 400.101 54.2243 400.268 54.5725C400.447 54.9547 400.536 55.3734 400.529 55.7961C400.529 56.8361 400.073 57.6189 399.162 58.1444C398.252 58.67 396.846 58.9332 394.946 58.9341C394.574 58.9341 394.169 58.9272 393.733 58.9135C393.296 58.8998 392.825 58.8729 392.318 58.8326C392.303 58.9422 392.293 59.0436 392.287 59.1369C392.287 59.2307 392.277 59.3257 392.277 59.4194C392.275 59.8611 392.336 60.3009 392.458 60.7252C392.569 61.1208 392.753 61.4918 393 61.8191C393.24 62.1354 393.549 62.3916 393.903 62.5676C394.298 62.7572 394.731 62.8509 395.168 62.8411C395.5 62.8395 395.831 62.7915 396.151 62.6986C396.484 62.6056 396.804 62.4733 397.106 62.3044C397.408 62.1353 397.688 61.9277 397.937 61.6868C398.189 61.4493 398.406 61.1765 398.581 60.8767L399.705 61.222C399.458 61.6196 399.162 61.9834 398.822 62.3044C398.474 62.6354 398.086 62.921 397.668 63.1544C397.249 63.3894 396.804 63.5731 396.342 63.7013C395.881 63.828 395.405 63.891 394.927 63.8888ZM397.055 54.0307C396.49 54.0231 395.93 54.1333 395.41 54.3542C394.925 54.5629 394.477 54.85 394.084 55.2042C393.696 55.5558 393.364 55.9654 393.1 56.4188C392.839 56.8612 392.636 57.336 392.497 57.8312C392.98 57.8581 393.424 57.8812 393.833 57.9018C394.242 57.9223 394.633 57.9326 395.007 57.9326C395.68 57.9425 396.353 57.8883 397.016 57.7708C397.477 57.692 397.924 57.5417 398.34 57.3253C398.64 57.1692 398.891 56.9307 399.063 56.6371C399.209 56.3706 399.285 56.0709 399.283 55.7666C399.283 55.1589 399.063 54.7168 398.621 54.4403C398.148 54.1583 397.605 54.0172 397.055 54.0333V54.0307Z" fill="#B8B5B4"></path></g><defs><clipPath id="clip0_535_406"><rect width="401" height="68" fill="white"></rect></clipPath></defs></svg>