<svg xmlns="http://www.w3.org/2000/svg" viewBox="0 0 476 133.33333"><defs><style>.cls-1{fill:#22b573;opacity:0.2;}.cls-2{fill:#00a462;opacity:0.4;}.cls-3{fill:#008f92;opacity:0.6;}.cls-4{fill:#0071a8;opacity:0.8;}.cls-5{fill:#f7832c;}.cls-6{fill:#424d58;}.cls-7{fill:#004c8d;}.cls-8{fill:none;stroke:#004c8d;stroke-miterlimit:10;stroke-width:8.5px;}</style></defs><title>logo-ideastudio-color</title><g id="Color"><rect class="cls-1" x="452.5" y="1.33333" width="11" height="11" rx="2.36026"/><rect class="cls-2" x="430.5" y="11.33333" width="11" height="11" rx="2.36026"/><rect class="cls-3" x="432.5" y="34.33333" width="11" height="11" rx="2.36026"/><rect class="cls-4" x="410.5" y="34.33333" width="11" height="11" rx="2.36026"/><rect class="cls-4" x="413.5" y="52.33333" width="11" height="11" rx="2.36026"/><path class="cls-5" d="M12.5,131.33333H.5v-70h12Z"/><path class="cls-5" d="M73.5,131.33333h-11v-8h-.15381a18.832,18.832,0,0,1-16.8457,9.59888A18.2113,18.2113,0,0,1,30.73,126.18306q-5.54223-6.71337-5.542-18.30352,0-12.40211,6.12793-19.88175a20.17869,20.17869,0,0,1,16.333-7.62031c6.73828,0,11.6372,2.95585,14.69726,7.95585H62.5v-31h11Zm-11-22.49463v-6.543a12.67212,12.67212,0,0,0-3.3728-9.03321,11.46436,11.46436,0,0,0-8.7909-3.71093,11.85767,11.85767,0,0,0-9.96185,4.73632q-3.63794,4.73658-3.626,13.13477,0,7.61718,3.49709,12.03613a11.35924,11.35924,0,0,0,9.40235,4.41895,11.57154,11.57154,0,0,0,9.3313-4.27246C61.38794,116.75716,62.5,113.16829,62.5,108.8387Z"/><path class="cls-6" d="M130.5,109.33333H96.9165c.12989,5,1.5542,8.40357,4.27246,10.90992,2.71778,2.50683,6.657,3.868,11.40992,3.868,5.33838,0,9.90112-1.48645,14.90112-4.67688v9.13086c-5,2.86474-10.78345,4.29736-18.27026,4.29736-7.35694,0-13.22889-2.27051-17.4115-6.812-4.18311-4.541-6.32538-10.9292-6.32538-19.165,0-7.77979,2.27725-14.11914,6.8837-19.01856a22.57333,22.57333,0,0,1,17.15034-7.34863c6.83594,0,11.86985,2.19727,15.6135,6.5918,3.74317,4.39453,5.3596,10.498,5.3596,18.31055Zm-10.439-8c-.03272-4-.99317-7.02173-2.88086-9.28442-1.88819-2.26221-4.49219-3.28723-7.8125-3.28723a10.85009,10.85009,0,0,0-8.27637,3.405,18.684,18.684,0,0,0-4.17481,9.16668Z"/><path class="cls-6" d="M180.5,131.33333h-11v-7h-.51318c-3.45069,6-8.5127,8.75708-15.18555,8.75708-4.91553,0-8.76465-1.44885-11.54785-4.11828a14.13288,14.13288,0,0,1-4.17481-10.65265c0-9.43994,5.436-14.96988,16.3086-16.53238L169.231,99.67325c0-7.1289-3.61646-10.70047-10.387-10.70047A25.1072,25.1072,0,0,0,142.5,95.118V85.20589a38.5627,38.5627,0,0,1,18.6582-4.6875c12.62989,0,19.3418,6.21778,19.3418,18.65235Zm-11-24.20361-10.63257,1.46484a16.96824,16.96824,0,0,0-7.41589,2.36817c-1.644,1.15576-2.49945,3.18213-2.49945,6.0791a6.63965,6.63965,0,0,0,2.25369,5.20019,8.769,8.769,0,0,0,6.07069,2.02637,11.49887,11.49887,0,0,0,8.69966-3.63769A12.99451,12.99451,0,0,0,169.5,111.47542Z"/><path class="cls-6" d="M192.5,128.90706V116.94417a15.06569,15.06569,0,0,0,3.59985,2.63672,28.32358,28.32358,0,0,0,4.59534,1.97754,36.34606,36.34606,0,0,0,4.92218,1.24512,26.23452,26.23452,0,0,0,4.5607.43945c4.88281,0,8.50594-.81348,10.89851-2.4414a8.02564,8.02564,0,0,0,3.58158-7.08008,7.7253,7.7253,0,0,0-1.19993-4.32129,12.5647,12.5647,0,0,0-3.34655-3.34473,35.22131,35.22131,0,0,0-5.05462-2.90527q-2.90552-1.39161-6.226-2.90528-3.56469-1.9043-6.64085-3.85742a28.55524,28.55524,0,0,1-5.34679-4.32129,18.069,18.069,0,0,1-3.56451-5.34668,17.40815,17.40815,0,0,1-1.294-6.98242,16.11394,16.11394,0,0,1,2.22167-8.56933,18.76607,18.76607,0,0,1,5.85937-6.00586,26.862,26.862,0,0,1,8.27636-3.51563,37.97722,37.97722,0,0,1,9.30737-1.14746c7.32422,0,12.85034.83008,15.85034,2.49024V74.4637c-4-2.86425-8.91675-4.29687-15.16675-4.29687a26.63292,26.63292,0,0,0-5.06872.48828,15.05994,15.05994,0,0,0-4.54853,1.61133,9.862,9.862,0,0,0-3.27523,2.88086,7.05289,7.05289,0,0,0-1.25921,4.248,8.03128,8.03128,0,0,0,.98173,4.05273,10.45494,10.45494,0,0,0,2.859,3.125,29.14953,29.14953,0,0,0,4.59113,2.75879q2.71,1.34327,6.27506,2.90527,3.66211,1.9043,6.90951,4.00391a32.60512,32.60512,0,0,1,5.713,4.63867,20.39917,20.39917,0,0,1,3.90633,5.63965,16.56772,16.56772,0,0,1,1.44047,7.05566,16.55957,16.55957,0,0,1-7.93454,14.94141,25.76953,25.76953,0,0,1-8.374,3.3208,47.21517,47.21517,0,0,1-10.00976,1.02539,42.71884,42.71884,0,0,1-4.32129-.26855q-2.56347-.26953-5.249-.78125a43.77453,43.77453,0,0,1-4.845-1.24512A14.4218,14.4218,0,0,1,192.5,128.90706Z"/><path class="cls-6" d="M271.5,131.15365c-2,1.10644-4.98145,1.66015-8.59473,1.66015-9.70068,0-14.40527-4.65527-14.40527-13.96533V90.33333h-8v-9h8V70.118l11-3.22265v14.438h12v9h-12V115.577a9.762,9.762,0,0,0,1.83813,6.34765c1.07422,1.26953,2.76941,1.9043,5.27625,1.9043A6.82021,6.82021,0,0,0,271.5,122.16878Z"/><path class="cls-6" d="M325.5,131.33333h-12v-8h.26221c-3.28809,7-8.50122,9.30591-15.43482,9.30591-11.8164,0-17.82739-6.87329-17.82739-21.06616V81.33333h12V110.4012c0,8.98438,3.23364,13.47657,10.16724,13.47657a9.82771,9.82771,0,0,0,7.931-3.71094c2.16455-2.47363,2.90173-5.71289,2.90173-9.7168V81.33333h12Z"/><path class="cls-6" d="M385.5,131.33333h-11v-8h-.53271a18.83206,18.83206,0,0,1-16.84571,9.59888,18.21131,18.21131,0,0,1-14.77051-6.74915q-5.54223-6.71337-5.542-18.30352,0-12.40211,6.12793-19.88175a20.17871,20.17871,0,0,1,16.333-7.62031c6.73828,0,11.63721,2.95585,14.69727,7.95585H374.5v-31h11Zm-11-22.49463v-6.543a12.83067,12.83067,0,0,0-3.56226-9.03321,11.66848,11.66848,0,0,0-8.88562-3.71093,11.9459,11.9459,0,0,0-10.00921,4.73632q-3.63795,4.73658-3.64963,13.13477,0,7.61718,3.48524,12.03613a11.348,11.348,0,0,0,9.39644,4.41895,11.94129,11.94129,0,0,0,9.51779-4.27246A16.15444,16.15444,0,0,0,374.5,108.8387Z"/><path class="cls-7" d="M410.5,131.33333h-11v-50h11Z"/><rect class="cls-7" x="399.5" y="64.33333" width="11" height="11" rx="2.36026"/><circle class="cls-8" cx="448.1758" cy="105.1891" r="23.07536"/><rect class="cls-7" x="399.5" y="120.33333" width="11" height="11" rx="2.36026"/></g></svg>