<svg xmlns="http://www.w3.org/2000/svg" viewBox="0 0 476 133.33"><defs><style>.cls-1,.cls-2,.cls-3,.cls-4,.cls-5{fill:#f2f2f2;}.cls-1{opacity:0.2;}.cls-2{opacity:0.4;}.cls-3{opacity:0.6;}.cls-4{opacity:0.8;}.cls-6{fill:none;stroke:#f2f2f2;stroke-miterlimit:10;stroke-width:8.5px;}</style></defs><title>logo-ideastudio-white</title><g id="White"><rect class="cls-1" x="452.5" y="1.333" width="11" height="11" rx="2.36026"/><rect class="cls-2" x="430.5" y="11.333" width="11" height="11" rx="2.36026"/><rect class="cls-3" x="432.5" y="34.333" width="11" height="11" rx="2.36026"/><rect class="cls-4" x="410.5" y="34.333" width="11" height="11" rx="2.36026"/><rect class="cls-4" x="413.5" y="52.333" width="11" height="11" rx="2.36026"/><path class="cls-5" d="M12.5,131.333H.5v-70h12Z"/><path class="cls-5" d="M73.5,131.333h-11v-8h-.15381a18.832,18.832,0,0,1-16.8457,9.59888A18.2113,18.2113,0,0,1,30.73,126.18273q-5.54223-6.71337-5.542-18.30353,0-12.40209,6.12793-19.88174a20.1787,20.1787,0,0,1,16.333-7.62032c6.73828,0,11.6372,2.95586,14.69726,7.95586H62.5v-31h11Zm-11-22.49463v-6.543a12.67211,12.67211,0,0,0-3.3728-9.0332,11.46436,11.46436,0,0,0-8.7909-3.71094,11.85765,11.85765,0,0,0-9.96185,4.73633q-3.63794,4.73657-3.626,13.13477,0,7.61718,3.49709,12.03613a11.35923,11.35923,0,0,0,9.40235,4.41894,11.57151,11.57151,0,0,0,9.3313-4.27246C61.38794,116.75683,62.5,113.168,62.5,108.83837Z"/><path class="cls-5" d="M130.5,109.333H96.9165c.12989,5,1.5542,8.40356,4.27246,10.90991,2.71778,2.50684,6.657,3.868,11.40992,3.868,5.33838,0,9.90112-1.48645,14.90112-4.67688v9.13086c-5,2.86475-10.78345,4.29737-18.27026,4.29737-7.35694,0-13.22889-2.27051-17.4115-6.812-4.18311-4.541-6.32538-10.9292-6.32538-19.165,0-7.77979,2.27725-14.11914,6.8837-19.01856a22.57333,22.57333,0,0,1,17.15034-7.34863c6.83594,0,11.86985,2.19726,15.6135,6.5918,3.74317,4.39453,5.3596,10.498,5.3596,18.31054Zm-10.439-8c-.03272-4-.99317-7.02173-2.88086-9.28442-1.88819-2.26221-4.49219-3.28724-7.8125-3.28724a10.85013,10.85013,0,0,0-8.27637,3.405A18.68409,18.68409,0,0,0,96.9165,101.333Z"/><path class="cls-5" d="M180.5,131.333h-11v-7h-.51318c-3.45069,6-8.5127,8.75708-15.18555,8.75708-4.91553,0-8.76465-1.44885-11.54785-4.11829a14.13284,14.13284,0,0,1-4.17481-10.65264c0-9.43995,5.436-14.96988,16.3086-16.53238L169.231,99.67292c0-7.12891-3.61646-10.70048-10.387-10.70048A25.10721,25.10721,0,0,0,142.5,95.11767V85.20556a38.5627,38.5627,0,0,1,18.6582-4.6875c12.62989,0,19.3418,6.21777,19.3418,18.65234Zm-11-24.20361-10.63257,1.46484a16.96838,16.96838,0,0,0-7.41589,2.36816c-1.644,1.15577-2.49945,3.18213-2.49945,6.07911a6.63965,6.63965,0,0,0,2.25369,5.20019,8.769,8.769,0,0,0,6.07069,2.02637,11.49884,11.49884,0,0,0,8.69966-3.6377A12.99447,12.99447,0,0,0,169.5,111.47509Z"/><path class="cls-5" d="M192.5,128.90673V116.94384a15.066,15.066,0,0,0,3.59985,2.63672,28.32358,28.32358,0,0,0,4.59534,1.97754,36.34453,36.34453,0,0,0,4.92218,1.24511,26.2346,26.2346,0,0,0,4.5607.43946c4.88281,0,8.50594-.81348,10.89851-2.44141a8.02562,8.02562,0,0,0,3.58158-7.08008,7.72535,7.72535,0,0,0-1.19993-4.32129,12.56481,12.56481,0,0,0-3.34655-3.34472,35.22225,35.22225,0,0,0-5.05462-2.90528q-2.90552-1.39159-6.226-2.90527-3.56469-1.9043-6.64085-3.85742a28.55564,28.55564,0,0,1-5.34679-4.32129,18.069,18.069,0,0,1-3.56451-5.34668,17.40818,17.40818,0,0,1-1.294-6.98242,16.114,16.114,0,0,1,2.22167-8.56934,18.76617,18.76617,0,0,1,5.85937-6.00586,26.862,26.862,0,0,1,8.27636-3.51562,37.97722,37.97722,0,0,1,9.30737-1.14746c7.32422,0,12.85034.83008,15.85034,2.49023V74.46337c-4-2.86426-8.91675-4.29687-15.16675-4.29687a26.63211,26.63211,0,0,0-5.06872.48828,15.05994,15.05994,0,0,0-4.54853,1.61133,9.8621,9.8621,0,0,0-3.27523,2.88085,7.05293,7.05293,0,0,0-1.25921,4.248,8.03132,8.03132,0,0,0,.98173,4.05274,10.45505,10.45505,0,0,0,2.859,3.125,29.15029,29.15029,0,0,0,4.59113,2.75879q2.71,1.34325,6.27506,2.90527,3.66211,1.90429,6.90951,4.0039a32.60516,32.60516,0,0,1,5.713,4.63868,20.39917,20.39917,0,0,1,3.90633,5.63965,16.56772,16.56772,0,0,1,1.44047,7.05566,16.5596,16.5596,0,0,1-7.93454,14.94141,25.76976,25.76976,0,0,1-8.374,3.3208,47.21517,47.21517,0,0,1-10.00976,1.02539,42.71923,42.71923,0,0,1-4.32129-.26856q-2.56347-.26953-5.249-.78125a43.77009,43.77009,0,0,1-4.845-1.24512A14.42181,14.42181,0,0,1,192.5,128.90673Z"/><path class="cls-5" d="M271.5,131.15331c-2,1.10645-4.98145,1.66016-8.59473,1.66016-9.70068,0-14.40527-4.65527-14.40527-13.96533V90.333h-8v-9h8V70.11767l11-3.22266V81.333h12v9h-12v25.24365a9.762,9.762,0,0,0,1.83813,6.34766c1.07422,1.26953,2.76941,1.9043,5.27625,1.9043A6.82026,6.82026,0,0,0,271.5,122.16845Z"/><path class="cls-5" d="M325.5,131.333h-12v-8h.26221c-3.28809,7-8.50122,9.30591-15.43482,9.30591-11.8164,0-17.82739-6.87329-17.82739-21.06616V81.333h12v29.06787c0,8.98438,3.23364,13.47656,10.16724,13.47656a9.8277,9.8277,0,0,0,7.931-3.71093c2.16455-2.47364,2.90173-5.71289,2.90173-9.7168V81.333h12Z"/><path class="cls-5" d="M385.5,131.333h-11v-8h-.53271a18.83206,18.83206,0,0,1-16.84571,9.59888,18.21131,18.21131,0,0,1-14.77051-6.74915q-5.54223-6.71337-5.542-18.30353,0-12.40209,6.12793-19.88174a20.17872,20.17872,0,0,1,16.333-7.62032c6.73828,0,11.63721,2.95586,14.69727,7.95586H374.5v-31h11Zm-11-22.49463v-6.543a12.83066,12.83066,0,0,0-3.56226-9.0332,11.66849,11.66849,0,0,0-8.88562-3.71094,11.94588,11.94588,0,0,0-10.00921,4.73633q-3.63795,4.73657-3.64963,13.13477,0,7.61718,3.48524,12.03613a11.348,11.348,0,0,0,9.39644,4.41894,11.94126,11.94126,0,0,0,9.51779-4.27246A16.15439,16.15439,0,0,0,374.5,108.83837Z"/><path class="cls-5" d="M410.5,131.333h-11v-50h11Z"/><rect class="cls-5" x="399.5" y="64.333" width="11" height="11" rx="2.36026"/><circle class="cls-6" cx="448.1758" cy="105.18877" r="23.07536"/><rect class="cls-5" x="399.5" y="120.333" width="11" height="11" rx="2.36026"/></g></svg>