<svg xmlns="http://www.w3.org/2000/svg" width="1440" height="900"><path d="M750,410L735,512L841,470Z" fill="#00315a" stroke="#00315a" stroke-width="1.51"/><path d="M841,470L851,382L750,410Z" fill="#00315a" stroke="#00315a" stroke-width="1.51"/><path d="M735,512L728,627L841,470Z" fill="#00315a" stroke="#00315a" stroke-width="1.51"/><path d="M841,470L953,420L851,382Z" fill="#00315a" stroke="#00315a" stroke-width="1.51"/><path d="M1007,528L953,420L841,470Z" fill="#00315a" stroke="#00315a" stroke-width="1.51"/><path d="M750,410L579,478L735,512Z" fill="#00315a" stroke="#00315a" stroke-width="1.51"/><path d="M735,512L606,617L728,627Z" fill="#00315a" stroke="#00315a" stroke-width="1.51"/><path d="M750,410L582,365L579,478Z" fill="#00315a" stroke="#00315a" stroke-width="1.51"/><path d="M600,304L582,365L750,410Z" fill="#00315a" stroke="#00315a" stroke-width="1.51"/><path d="M579,478L606,617L735,512Z" fill="#00315a" stroke="#00315a" stroke-width="1.51"/><path d="M728,627L803,694L841,470Z" fill="#00315a" stroke="#00315a" stroke-width="1.51"/><path d="M802,753L803,694L716,804Z" fill="#04365b" stroke="#04365b" stroke-width="1.51"/><path d="M851,382L743,233L750,410Z" fill="#00315a" stroke="#00315a" stroke-width="1.51"/><path d="M840,219L743,233L851,382Z" fill="#00315a" stroke="#00315a" stroke-width="1.51"/><path d="M946,673L1007,528L841,470Z" fill="#00315a" stroke="#00315a" stroke-width="1.51"/><path d="M743,233L600,304L750,410Z" fill="#00315a" stroke="#00315a" stroke-width="1.51"/><path d="M936,217L840,219L851,382Z" fill="#00315a" stroke="#00315a" stroke-width="1.51"/><path d="M803,694L946,673L841,470Z" fill="#00315a" stroke="#00315a" stroke-width="1.51"/><path d="M477,341L511,465L582,365Z" fill="#00315a" stroke="#00315a" stroke-width="1.51"/><path d="M582,365L511,465L579,478Z" fill="#00315a" stroke="#00315a" stroke-width="1.51"/><path d="M579,478L511,465L606,617Z" fill="#00315a" stroke="#00315a" stroke-width="1.51"/><path d="M803,694L942,772L946,673Z" fill="#02345b" stroke="#02345b" stroke-width="1.51"/><path d="M716,804L803,694L728,627Z" fill="#02335b" stroke="#02335b" stroke-width="1.51"/><path d="M953,420L936,217L851,382Z" fill="#00315a" stroke="#00315a" stroke-width="1.51"/><path d="M1059,325L936,217L953,420Z" fill="#00315a" stroke="#00315a" stroke-width="1.51"/><path d="M840,219L852,180L743,233Z" fill="#00335d" stroke="#00335d" stroke-width="1.51"/><path d="M936,217L852,180L840,219Z" fill="#00335e" stroke="#00335e" stroke-width="1.51"/><path d="M743,233L695,177L600,304Z" fill="#00315a" stroke="#00315a" stroke-width="1.51"/><path d="M852,180L695,177L743,233Z" fill="#00345f" stroke="#00345f" stroke-width="1.51"/><path d="M1007,528L1059,325L953,420Z" fill="#00315a" stroke="#00315a" stroke-width="1.51"/><path d="M431,274L477,341L600,304Z" fill="#00315a" stroke="#00315a" stroke-width="1.51"/><path d="M600,304L477,341L582,365Z" fill="#00315a" stroke="#00315a" stroke-width="1.51"/><path d="M695,177L641,155L600,304Z" fill="#00325d" stroke="#00325d" stroke-width="1.51"/><path d="M682,25L641,155L695,177Z" fill="#003a6b" stroke="#003a6b" stroke-width="1.51"/><path d="M606,617L716,804L728,627Z" fill="#01325a" stroke="#01325a" stroke-width="1.51"/><path d="M802,753L942,772L803,694Z" fill="#03355b" stroke="#03355b" stroke-width="1.51"/><path d="M640,825L716,804L606,617Z" fill="#04365b" stroke="#04365b" stroke-width="1.51"/><path d="M946,673L1111,588L1007,528Z" fill="#00315a" stroke="#00315a" stroke-width="1.51"/><path d="M887,861L942,772L802,753Z" fill="#05395b" stroke="#05395b" stroke-width="1.51"/><path d="M1007,528L1167,462L1059,325Z" fill="#01325a" stroke="#01325a" stroke-width="1.51"/><path d="M1129,824L1111,588L946,673Z" fill="#02335a" stroke="#02335a" stroke-width="1.51"/><path d="M716,804L887,861L802,753Z" fill="#06395b" stroke="#06395b" stroke-width="1.51"/><path d="M460,794L640,825L606,617Z" fill="#03355b" stroke="#03355b" stroke-width="1.51"/><path d="M1111,588L1167,462L1007,528Z" fill="#02335b" stroke="#02335b" stroke-width="1.51"/><path d="M498,94L431,274L600,304Z" fill="#00325b" stroke="#00325b" stroke-width="1.51"/><path d="M327,466L403,657L511,465Z" fill="#00315a" stroke="#00315a" stroke-width="1.51"/><path d="M511,465L403,657L606,617Z" fill="#00315a" stroke="#00315a" stroke-width="1.51"/><path d="M690,883L887,861L716,804Z" fill="#073c5c" stroke="#073c5c" stroke-width="1.51"/><path d="M942,772L1129,824L946,673Z" fill="#04365b" stroke="#04365b" stroke-width="1.51"/><path d="M936,217L1031,140L852,180Z" fill="#003562" stroke="#003562" stroke-width="1.51"/><path d="M852,180L682,25L695,177Z" fill="#00396a" stroke="#00396a" stroke-width="1.51"/><path d="M1059,325L1031,140L936,217Z" fill="#00315b" stroke="#00315b" stroke-width="1.51"/><path d="M1141,221L1031,140L1059,325Z" fill="#01335b" stroke="#01335b" stroke-width="1.51"/><path d="M887,861L934,856L942,772Z" fill="#073b5b" stroke="#073b5b" stroke-width="1.51"/><path d="M342,408L511,465L477,341Z" fill="#00315a" stroke="#00315a" stroke-width="1.51"/><path d="M640,825L690,883L716,804Z" fill="#073b5b" stroke="#073b5b" stroke-width="1.51"/><path d="M887,861L862,977L934,856Z" fill="#093f5c" stroke="#093f5c" stroke-width="1.51"/><path d="M594,927L690,883L640,825Z" fill="#083e5c" stroke="#083e5c" stroke-width="1.51"/><path d="M1167,462L1212,435L1059,325Z" fill="#03355b" stroke="#03355b" stroke-width="1.51"/><path d="M1280,533L1212,435L1167,462Z" fill="#05385b" stroke="#05385b" stroke-width="1.51"/><path d="M1196,223L1141,221L1059,325Z" fill="#03345b" stroke="#03345b" stroke-width="1.51"/><path d="M431,274L342,408L477,341Z" fill="#00315a" stroke="#00315a" stroke-width="1.51"/><path d="M342,408L327,466L511,465Z" fill="#00315a" stroke="#00315a" stroke-width="1.51"/><path d="M641,155L498,94L600,304Z" fill="#003561" stroke="#003561" stroke-width="1.51"/><path d="M852,0L682,25L852,180Z" fill="#003f73" stroke="#003f73" stroke-width="1.51"/><path d="M403,657L460,794L606,617Z" fill="#01325a" stroke="#01325a" stroke-width="1.51"/><path d="M431,274L318,250L342,408Z" fill="#00325d" stroke="#00325d" stroke-width="1.51"/><path d="M682,25L498,94L641,155Z" fill="#003d6f" stroke="#003d6f" stroke-width="1.51"/><path d="M1031,140L852,0L852,180Z" fill="#003b6d" stroke="#003b6d" stroke-width="1.51"/><path d="M961,-39L852,0L1031,140Z" fill="#004278" stroke="#004278" stroke-width="1.51"/><path d="M1141,221L1144,124L1031,140Z" fill="#023965" stroke="#023965" stroke-width="1.51"/><path d="M1212,435L1196,223L1059,325Z" fill="#03355b" stroke="#03355b" stroke-width="1.51"/><path d="M460,794L496,872L640,825Z" fill="#073b5b" stroke="#073b5b" stroke-width="1.51"/><path d="M690,883L862,977L887,861Z" fill="#093f5c" stroke="#093f5c" stroke-width="1.51"/><path d="M496,872L594,927L640,825Z" fill="#083d5c" stroke="#083d5c" stroke-width="1.51"/><path d="M1196,223L1144,124L1141,221Z" fill="#043961" stroke="#043961" stroke-width="1.51"/><path d="M934,856L1129,824L942,772Z" fill="#063a5b" stroke="#063a5b" stroke-width="1.51"/><path d="M1111,588L1280,533L1167,462Z" fill="#04365b" stroke="#04365b" stroke-width="1.51"/><path d="M1077,920L1129,824L934,856Z" fill="#083d5c" stroke="#083d5c" stroke-width="1.51"/><path d="M316,701L364,757L403,657Z" fill="#02365e" stroke="#02365e" stroke-width="1.51"/><path d="M403,657L364,757L460,794Z" fill="#03355b" stroke="#03355b" stroke-width="1.51"/><path d="M460,794L300,958L496,872Z" fill="#083d5c" stroke="#083d5c" stroke-width="1.51"/><path d="M1212,435L1323,329L1196,223Z" fill="#06395b" stroke="#06395b" stroke-width="1.51"/><path d="M1273,589L1280,533L1111,588Z" fill="#05385b" stroke="#05385b" stroke-width="1.51"/><path d="M358,153L318,250L431,274Z" fill="#00335d" stroke="#00335d" stroke-width="1.51"/><path d="M342,408L189,327L327,466Z" fill="#003765" stroke="#003765" stroke-width="1.51"/><path d="M1253,749L1273,589L1111,588Z" fill="#05375b" stroke="#05375b" stroke-width="1.51"/><path d="M703,1015L862,977L690,883Z" fill="#0b435c" stroke="#0b435c" stroke-width="1.51"/><path d="M205,628L403,657L327,466Z" fill="#003562" stroke="#003562" stroke-width="1.51"/><path d="M205,628L316,701L403,657Z" fill="#003562" stroke="#003562" stroke-width="1.51"/><path d="M498,94L358,153L431,274Z" fill="#003663" stroke="#003663" stroke-width="1.51"/><path d="M498,94L464,41L358,153Z" fill="#003c6f" stroke="#003c6f" stroke-width="1.51"/><path d="M597,-49L464,41L498,94Z" fill="#004279" stroke="#004279" stroke-width="1.51"/><path d="M597,-49L498,94L682,25Z" fill="#00427a" stroke="#00427a" stroke-width="1.51"/><path d="M1121,20L961,-39L1031,140Z" fill="#004177" stroke="#004177" stroke-width="1.51"/><path d="M852,0L809,-76L682,25Z" fill="#004680" stroke="#004680" stroke-width="1.51"/><path d="M961,-39L809,-76L852,0Z" fill="#004783" stroke="#004783" stroke-width="1.51"/><path d="M1129,824L1253,749L1111,588Z" fill="#06395b" stroke="#06395b" stroke-width="1.51"/><path d="M1025,995L1077,920L934,856Z" fill="#0a405c" stroke="#0a405c" stroke-width="1.51"/><path d="M707,-156L597,-49L682,25Z" fill="#004987" stroke="#004987" stroke-width="1.51"/><path d="M1238,875L1253,749L1129,824Z" fill="#0a405c" stroke="#0a405c" stroke-width="1.51"/><path d="M594,927L703,1015L690,883Z" fill="#0a425c" stroke="#0a425c" stroke-width="1.51"/><path d="M648,1064L703,1015L594,927Z" fill="#0b455c" stroke="#0b455c" stroke-width="1.51"/><path d="M1196,223L1294,176L1144,124Z" fill="#063d64" stroke="#063d64" stroke-width="1.51"/><path d="M1372,507L1323,329L1212,435Z" fill="#073b5b" stroke="#073b5b" stroke-width="1.51"/><path d="M1372,507L1212,435L1280,533Z" fill="#073b5b" stroke="#073b5b" stroke-width="1.51"/><path d="M1372,507L1280,533L1273,589Z" fill="#073b5b" stroke="#073b5b" stroke-width="1.51"/><path d="M1206,-10L1121,20L1144,124Z" fill="#054577" stroke="#054577" stroke-width="1.51"/><path d="M1144,124L1121,20L1031,140Z" fill="#023e6f" stroke="#023e6f" stroke-width="1.51"/><path d="M1077,920L1238,875L1129,824Z" fill="#0a415c" stroke="#0a415c" stroke-width="1.51"/><path d="M862,977L1025,995L934,856Z" fill="#0a425c" stroke="#0a425c" stroke-width="1.51"/><path d="M1053,1022L1025,995L862,977Z" fill="#0b455c" stroke="#0b455c" stroke-width="1.51"/><path d="M1323,329L1294,176L1196,223Z" fill="#063a5b" stroke="#063a5b" stroke-width="1.51"/><path d="M1400,641L1372,507L1273,589Z" fill="#083d5c" stroke="#083d5c" stroke-width="1.51"/><path d="M1378,224L1312,130L1294,176Z" fill="#094164" stroke="#094164" stroke-width="1.51"/><path d="M142,560L205,628L327,466Z" fill="#003a6b" stroke="#003a6b" stroke-width="1.51"/><path d="M316,701L252,794L364,757Z" fill="#043b63" stroke="#043b63" stroke-width="1.51"/><path d="M481,1085L594,927L496,872Z" fill="#0a435c" stroke="#0a435c" stroke-width="1.51"/><path d="M318,250L189,327L342,408Z" fill="#003765" stroke="#003765" stroke-width="1.51"/><path d="M212,230L189,327L318,250Z" fill="#003969" stroke="#003969" stroke-width="1.51"/><path d="M212,230L318,250L358,153Z" fill="#003867" stroke="#003867" stroke-width="1.51"/><path d="M703,1015L648,1064L862,977Z" fill="#0c475c" stroke="#0c475c" stroke-width="1.51"/><path d="M481,1085L648,1064L594,927Z" fill="#0b475c" stroke="#0b475c" stroke-width="1.51"/><path d="M300,958L460,794L364,757Z" fill="#073c5d" stroke="#073c5d" stroke-width="1.51"/><path d="M175,117L212,230L358,153Z" fill="#003e73" stroke="#003e73" stroke-width="1.51"/><path d="M1212,1066L1238,875L1077,920Z" fill="#0c475d" stroke="#0c475d" stroke-width="1.51"/><path d="M1253,749L1400,641L1273,589Z" fill="#073b5b" stroke="#073b5b" stroke-width="1.51"/><path d="M205,628L252,794L316,701Z" fill="#033b68" stroke="#033b68" stroke-width="1.51"/><path d="M1025,995L1053,1022L1077,920Z" fill="#0a445c" stroke="#0a445c" stroke-width="1.51"/><path d="M648,1064L1053,1022L862,977Z" fill="#0c475c" stroke="#0c475c" stroke-width="1.51"/><path d="M597,-49L442,-185L464,41Z" fill="#004a88" stroke="#004a88" stroke-width="1.51"/><path d="M464,41L317,22L358,153Z" fill="#003f74" stroke="#003f74" stroke-width="1.51"/><path d="M809,-76L707,-156L682,25Z" fill="#004a88" stroke="#004a88" stroke-width="1.51"/><path d="M946,-157L707,-156L809,-76Z" fill="#004f92" stroke="#004f92" stroke-width="1.51"/><path d="M946,-157L809,-76L961,-39Z" fill="#004c8c" stroke="#004c8c" stroke-width="1.51"/><path d="M707,-156L595,-137L597,-49Z" fill="#004e90" stroke="#004e90" stroke-width="1.51"/><path d="M1378,224L1294,176L1323,329Z" fill="#073c5c" stroke="#073c5c" stroke-width="1.51"/><path d="M1294,176L1312,130L1144,124Z" fill="#074168" stroke="#074168" stroke-width="1.51"/><path d="M1053,-137L946,-157L961,-39Z" fill="#004e8f" stroke="#004e8f" stroke-width="1.51"/><path d="M1312,130L1206,-10L1144,124Z" fill="#074572" stroke="#074572" stroke-width="1.51"/><path d="M442,-185L317,22L464,41Z" fill="#004884" stroke="#004884" stroke-width="1.51"/><path d="M205,628L75,735L252,794Z" fill="#034070" stroke="#034070" stroke-width="1.51"/><path d="M189,327L142,560L327,466Z" fill="#003a6b" stroke="#003a6b" stroke-width="1.51"/><path d="M1053,-137L961,-39L1121,20Z" fill="#004986" stroke="#004986" stroke-width="1.51"/><path d="M1427,725L1400,641L1253,749Z" fill="#09405c" stroke="#09405c" stroke-width="1.51"/><path d="M1471,330L1378,224L1323,329Z" fill="#093f5c" stroke="#093f5c" stroke-width="1.51"/><path d="M1471,330L1323,329L1372,507Z" fill="#093f5c" stroke="#093f5c" stroke-width="1.51"/><path d="M1191,-121L1053,-137L1121,20Z" fill="#044e8a" stroke="#044e8a" stroke-width="1.51"/><path d="M1400,641L1447,593L1372,507Z" fill="#093f5c" stroke="#093f5c" stroke-width="1.51"/><path d="M1427,725L1447,593L1400,641Z" fill="#0a405c" stroke="#0a405c" stroke-width="1.51"/><path d="M252,794L300,958L364,757Z" fill="#084164" stroke="#084164" stroke-width="1.51"/><path d="M160,889L300,958L252,794Z" fill="#0b476b" stroke="#0b476b" stroke-width="1.51"/><path d="M648,1064L1212,1066L1053,1022Z" fill="#0c495d" stroke="#0c495d" stroke-width="1.51"/><path d="M314,1011L481,1085L496,872Z" fill="#0b455c" stroke="#0b455c" stroke-width="1.51"/><path d="M317,22L175,117L358,153Z" fill="#004279" stroke="#004279" stroke-width="1.51"/><path d="M69,210L42,386L189,327Z" fill="#004178" stroke="#004178" stroke-width="1.51"/><path d="M18,548L65,619L142,560Z" fill="#00437a" stroke="#00437a" stroke-width="1.51"/><path d="M1465,766L1427,725L1238,875Z" fill="#0c465d" stroke="#0c465d" stroke-width="1.51"/><path d="M1238,875L1427,725L1253,749Z" fill="#0a425c" stroke="#0a425c" stroke-width="1.51"/><path d="M1378,224L1465,155L1312,130Z" fill="#0b4465" stroke="#0b4465" stroke-width="1.51"/><path d="M1324,-172L1191,-121L1206,-10Z" fill="#0c568e" stroke="#0c568e" stroke-width="1.51"/><path d="M1550,543L1471,330L1372,507Z" fill="#0a425c" stroke="#0a425c" stroke-width="1.51"/><path d="M300,958L314,1011L496,872Z" fill="#0b435f" stroke="#0b435f" stroke-width="1.51"/><path d="M215,1030L314,1011L300,958Z" fill="#0e4c68" stroke="#0e4c68" stroke-width="1.51"/><path d="M1206,-10L1191,-121L1121,20Z" fill="#074d84" stroke="#074d84" stroke-width="1.51"/><path d="M1053,-137L1324,-172L946,-157Z" fill="#055597" stroke="#055597" stroke-width="1.51"/><path d="M1381,-13L1206,-10L1312,130Z" fill="#0b4c79" stroke="#0b4c79" stroke-width="1.51"/><path d="M1471,330L1479,278L1378,224Z" fill="#0a415c" stroke="#0a415c" stroke-width="1.51"/><path d="M1617,289L1479,278L1471,330Z" fill="#0b445c" stroke="#0b445c" stroke-width="1.51"/><path d="M142,560L65,619L205,628Z" fill="#003f74" stroke="#003f74" stroke-width="1.51"/><path d="M42,386L142,560L189,327Z" fill="#004075" stroke="#004075" stroke-width="1.51"/><path d="M595,-137L442,-185L597,-49Z" fill="#004f91" stroke="#004f91" stroke-width="1.51"/><path d="M317,22L161,21L175,117Z" fill="#004a87" stroke="#004a87" stroke-width="1.51"/><path d="M707,-156L442,-185L595,-137Z" fill="#005297" stroke="#005297" stroke-width="1.51"/><path d="M946,-157L442,-185L707,-156Z" fill="#005397" stroke="#005397" stroke-width="1.51"/><path d="M1053,1022L1212,1066L1077,920Z" fill="#0c485d" stroke="#0c485d" stroke-width="1.51"/><path d="M481,1085L1212,1066L648,1064Z" fill="#0c495d" stroke="#0c495d" stroke-width="1.51"/><path d="M69,210L189,327L212,230Z" fill="#003e72" stroke="#003e72" stroke-width="1.51"/><path d="M75,735L160,889L252,794Z" fill="#094772" stroke="#094772" stroke-width="1.51"/><path d="M1447,593L1550,543L1372,507Z" fill="#0a425c" stroke="#0a425c" stroke-width="1.51"/><path d="M1427,725L1594,638L1447,593Z" fill="#0a435c" stroke="#0a435c" stroke-width="1.51"/><path d="M1374,956L1465,766L1238,875Z" fill="#0c4a5d" stroke="#0c4a5d" stroke-width="1.51"/><path d="M65,619L75,735L205,628Z" fill="#004076" stroke="#004076" stroke-width="1.51"/><path d="M-55,660L75,735L65,619Z" fill="#00467f" stroke="#00467f" stroke-width="1.51"/><path d="M1479,278L1465,155L1378,224Z" fill="#0a425e" stroke="#0a425e" stroke-width="1.51"/><path d="M120,69L69,210L175,117Z" fill="#004985" stroke="#004985" stroke-width="1.51"/><path d="M175,117L69,210L212,230Z" fill="#00427a" stroke="#00427a" stroke-width="1.51"/><path d="M173,-160L161,21L317,22Z" fill="#005296" stroke="#005296" stroke-width="1.51"/><path d="M42,386L18,548L142,560Z" fill="#00437b" stroke="#00437b" stroke-width="1.51"/><path d="M161,21L120,69L175,117Z" fill="#004c8c" stroke="#004c8c" stroke-width="1.51"/><path d="M1452,14L1381,-13L1312,130Z" fill="#0e4f78" stroke="#0e4f78" stroke-width="1.51"/><path d="M1312,1067L1374,956L1238,875Z" fill="#0c4e5d" stroke="#0c4e5d" stroke-width="1.51"/><path d="M442,-185L355,-183L317,22Z" fill="#005092" stroke="#005092" stroke-width="1.51"/><path d="M1594,638L1550,543L1447,593Z" fill="#0b455c" stroke="#0b455c" stroke-width="1.51"/><path d="M1479,278L1576,125L1465,155Z" fill="#0c4863" stroke="#0c4863" stroke-width="1.51"/><path d="M160,889L215,1030L300,958Z" fill="#0e4d6d" stroke="#0e4d6d" stroke-width="1.51"/><path d="M314,1011L215,1030L481,1085Z" fill="#0d4b63" stroke="#0d4b63" stroke-width="1.51"/><path d="M24,953L215,1030L160,889Z" fill="#105277" stroke="#105277" stroke-width="1.51"/><path d="M1212,1066L1312,1067L1238,875Z" fill="#0c4e5d" stroke="#0c4e5d" stroke-width="1.51"/><path d="M481,1085L1312,1067L1212,1066Z" fill="#0c495d" stroke="#0c495d" stroke-width="1.51"/><path d="M42,386L-54,546L18,548Z" fill="#004782" stroke="#004782" stroke-width="1.51"/><path d="M69,210L-8,271L42,386Z" fill="#00457e" stroke="#00457e" stroke-width="1.51"/><path d="M-19,118L-8,271L69,210Z" fill="#004986" stroke="#004986" stroke-width="1.51"/><path d="M1465,155L1452,14L1312,130Z" fill="#0d4b70" stroke="#0d4b70" stroke-width="1.51"/><path d="M1381,-13L1324,-172L1206,-10Z" fill="#0e5589" stroke="#0e5589" stroke-width="1.51"/><path d="M1576,125L1452,14L1465,155Z" fill="#0f4f70" stroke="#0f4f70" stroke-width="1.51"/><path d="M1465,766L1594,638L1427,725Z" fill="#0b465d" stroke="#0b465d" stroke-width="1.51"/><path d="M1374,956L1482,901L1465,766Z" fill="#0d4d5d" stroke="#0d4d5d" stroke-width="1.51"/><path d="M1489,987L1482,901L1374,956Z" fill="#0d535e" stroke="#0d535e" stroke-width="1.51"/><path d="M1663,751L1594,638L1465,766Z" fill="#0c4a5d" stroke="#0c4a5d" stroke-width="1.51"/><path d="M1658,408L1617,289L1471,330Z" fill="#0b475c" stroke="#0b475c" stroke-width="1.51"/><path d="M75,735L24,953L160,889Z" fill="#0c4e7b" stroke="#0c4e7b" stroke-width="1.51"/><path d="M18,548L-55,660L65,619Z" fill="#004681" stroke="#004681" stroke-width="1.51"/><path d="M-92,344L-54,546L42,386Z" fill="#004986" stroke="#004986" stroke-width="1.51"/><path d="M1191,-121L1324,-172L1053,-137Z" fill="#0a5795" stroke="#0a5795" stroke-width="1.51"/><path d="M946,-157L1324,-172L442,-185Z" fill="#005398" stroke="#005398" stroke-width="1.51"/><path d="M1520,-150L1324,-172L1381,-13Z" fill="#135e91" stroke="#135e91" stroke-width="1.51"/><path d="M-54,546L-55,660L18,548Z" fill="#004885" stroke="#004885" stroke-width="1.51"/><path d="M1658,408L1471,330L1550,543Z" fill="#0b465c" stroke="#0b465c" stroke-width="1.51"/><path d="M120,69L-19,118L69,210Z" fill="#004c8c" stroke="#004c8c" stroke-width="1.51"/><path d="M161,21L86,-44L120,69Z" fill="#005298" stroke="#005298" stroke-width="1.51"/><path d="M173,-160L86,-44L161,21Z" fill="#0058a2" stroke="#0058a2" stroke-width="1.51"/><path d="M1617,289L1576,125L1479,278Z" fill="#0c465d" stroke="#0c465d" stroke-width="1.51"/><path d="M1452,14L1520,-150L1381,-13Z" fill="#125a88" stroke="#125a88" stroke-width="1.51"/><path d="M-8,271L-92,344L42,386Z" fill="#004884" stroke="#004884" stroke-width="1.51"/><path d="M86,-44L-19,118L120,69Z" fill="#005399" stroke="#005399" stroke-width="1.51"/><path d="M355,-183L173,-160L317,22Z" fill="#00549a" stroke="#00549a" stroke-width="1.51"/><path d="M-156,222L-92,344L-8,271Z" fill="#004c8b" stroke="#004c8b" stroke-width="1.51"/><path d="M-238,633L-115,720L-55,660Z" fill="#004f90" stroke="#004f90" stroke-width="1.51"/><path d="M1312,1067L1489,987L1374,956Z" fill="#0d545e" stroke="#0d545e" stroke-width="1.51"/><path d="M1482,901L1663,751L1465,766Z" fill="#0d4d5d" stroke="#0d4d5d" stroke-width="1.51"/><path d="M1669,532L1658,408L1550,543Z" fill="#0c495d" stroke="#0c495d" stroke-width="1.51"/><path d="M1617,289L1665,-23L1576,125Z" fill="#10516c" stroke="#10516c" stroke-width="1.51"/><path d="M1663,751L1669,532L1594,638Z" fill="#0c495d" stroke="#0c495d" stroke-width="1.51"/><path d="M1594,638L1669,532L1550,543Z" fill="#0c485d" stroke="#0c485d" stroke-width="1.51"/><path d="M-104,926L24,953L75,735Z" fill="#0f5484" stroke="#0f5484" stroke-width="1.51"/><path d="M173,-160L48,-101L86,-44Z" fill="#005ead" stroke="#005ead" stroke-width="1.51"/><path d="M86,-44L-71,7L-19,118Z" fill="#0059a3" stroke="#0059a3" stroke-width="1.51"/><path d="M-156,222L-157,428L-92,344Z" fill="#004e90" stroke="#004e90" stroke-width="1.51"/><path d="M-55,660L-115,720L75,735Z" fill="#034b86" stroke="#034b86" stroke-width="1.51"/><path d="M-238,633L-55,660L-54,546Z" fill="#004e8e" stroke="#004e8e" stroke-width="1.51"/><path d="M1648,913L1663,751L1482,901Z" fill="#0d535e" stroke="#0d535e" stroke-width="1.51"/><path d="M-92,344L-157,428L-54,546Z" fill="#004d8d" stroke="#004d8d" stroke-width="1.51"/><path d="M-156,222L-8,271L-19,118Z" fill="#004d8d" stroke="#004d8d" stroke-width="1.51"/><path d="M24,953L52,1071L215,1030Z" fill="#12577a" stroke="#12577a" stroke-width="1.51"/><path d="M215,1030L52,1071L481,1085Z" fill="#0f516b" stroke="#0f516b" stroke-width="1.51"/><path d="M-51,978L52,1071L24,953Z" fill="#145c84" stroke="#145c84" stroke-width="1.51"/><path d="M1665,-23L1452,14L1576,125Z" fill="#12577a" stroke="#12577a" stroke-width="1.51"/><path d="M1665,-23L1520,-150L1452,14Z" fill="#145e88" stroke="#145e88" stroke-width="1.51"/><path d="M48,-101L-71,7L86,-44Z" fill="#005ead" stroke="#005ead" stroke-width="1.51"/><path d="M-71,7L-156,222L-19,118Z" fill="#00569e" stroke="#00569e" stroke-width="1.51"/><path d="M-104,926L-51,978L24,953Z" fill="#135c89" stroke="#135c89" stroke-width="1.51"/><path d="M1489,987L1648,913L1482,901Z" fill="#0d565e" stroke="#0d565e" stroke-width="1.51"/><path d="M-153,916L-104,926L-115,720Z" fill="#105a91" stroke="#105a91" stroke-width="1.51"/><path d="M-115,720L-104,926L75,735Z" fill="#0a5288" stroke="#0a5288" stroke-width="1.51"/><path d="M1669,532L1665,-23L1658,408Z" fill="#0c4a5d" stroke="#0c4a5d" stroke-width="1.51"/><path d="M1658,408L1665,-23L1617,289Z" fill="#0d4a5e" stroke="#0d4a5e" stroke-width="1.51"/><path d="M-157,428L-235,527L-54,546Z" fill="#004f92" stroke="#004f92" stroke-width="1.51"/><path d="M-247,177L-235,527L-157,428Z" fill="#005398" stroke="#005398" stroke-width="1.51"/><path d="M-235,527L-238,633L-54,546Z" fill="#005195" stroke="#005195" stroke-width="1.51"/><path d="M1665,-23L1587,-173L1520,-150Z" fill="#186692" stroke="#186692" stroke-width="1.51"/><path d="M1520,-150L1587,-173L1324,-172Z" fill="#16659a" stroke="#16659a" stroke-width="1.51"/><path d="M1324,-172L1587,-173L442,-185Z" fill="#05579a" stroke="#05579a" stroke-width="1.51"/><path d="M-104,926L-215,1052L-51,978Z" fill="#166392" stroke="#166392" stroke-width="1.51"/><path d="M-51,978L-215,1052L52,1071Z" fill="#16628c" stroke="#16628c" stroke-width="1.51"/><path d="M-249,729L-153,916L-115,720Z" fill="#0c5995" stroke="#0c5995" stroke-width="1.51"/><path d="M-71,7L-247,177L-156,222Z" fill="#0058a3" stroke="#0058a3" stroke-width="1.51"/><path d="M-156,222L-247,177L-157,428Z" fill="#005296" stroke="#005296" stroke-width="1.51"/><path d="M-63,-191L-145,-38L-71,7Z" fill="#0067be" stroke="#0067be" stroke-width="1.51"/><path d="M-63,-191L-71,7L48,-101Z" fill="#0065ba" stroke="#0065ba" stroke-width="1.51"/><path d="M-238,633L-249,729L-115,720Z" fill="#035497" stroke="#035497" stroke-width="1.51"/><path d="M-235,527L-249,729L-238,633Z" fill="#00559c" stroke="#00559c" stroke-width="1.51"/><path d="M-145,-38L-247,177L-71,7Z" fill="#0060b1" stroke="#0060b1" stroke-width="1.51"/><path d="M-235,527L-247,177L-249,729Z" fill="#00559c" stroke="#00559c" stroke-width="1.51"/><path d="M1587,-173L-63,-191L442,-185Z" fill="#00549a" stroke="#00549a" stroke-width="1.51"/><path d="M442,-185L-63,-191L355,-183Z" fill="#005dab" stroke="#005dab" stroke-width="1.51"/><path d="M355,-183L-63,-191L173,-160Z" fill="#0062b4" stroke="#0062b4" stroke-width="1.51"/><path d="M173,-160L-63,-191L48,-101Z" fill="#0066bb" stroke="#0066bb" stroke-width="1.51"/><path d="M1489,987L1685,1067L1648,913Z" fill="#0b5c5f" stroke="#0b5c5f" stroke-width="1.51"/><path d="M1648,913L1685,1067L1663,751Z" fill="#0c595e" stroke="#0c595e" stroke-width="1.51"/><path d="M1663,751L1685,1067L1669,532Z" fill="#0d525e" stroke="#0d525e" stroke-width="1.51"/><path d="M1669,532L1685,1067L1665,-23Z" fill="#0c4a5d" stroke="#0c4a5d" stroke-width="1.51"/><path d="M1312,1067L1685,1067L1489,987Z" fill="#0b5a5f" stroke="#0b5a5f" stroke-width="1.51"/><path d="M481,1085L1685,1067L1312,1067Z" fill="#0d4f5d" stroke="#0d4f5d" stroke-width="1.51"/><path d="M-153,916L-215,1052L-104,926Z" fill="#166495" stroke="#166495" stroke-width="1.51"/><path d="M-249,729L-215,1052L-153,916Z" fill="#14629a" stroke="#14629a" stroke-width="1.51"/><path d="M-63,-191L-218,-164L-145,-38Z" fill="#006fcd" stroke="#006fcd" stroke-width="1.51"/><path d="M-145,-38L-218,-164L-247,177Z" fill="#0068bf" stroke="#0068bf" stroke-width="1.51"/></svg>