<svg xmlns="http://www.w3.org/2000/svg" width="1440" height="900"><path d="M750,410L735,512L841,470Z" fill="#004c8d" stroke="#004c8d" stroke-width="1.51"/><path d="M841,470L851,382L750,410Z" fill="#004c8d" stroke="#004c8d" stroke-width="1.51"/><path d="M735,512L728,627L841,470Z" fill="#004c8d" stroke="#004c8d" stroke-width="1.51"/><path d="M841,470L953,420L851,382Z" fill="#004c8d" stroke="#004c8d" stroke-width="1.51"/><path d="M1007,528L953,420L841,470Z" fill="#004c8d" stroke="#004c8d" stroke-width="1.51"/><path d="M750,410L579,478L735,512Z" fill="#004c8d" stroke="#004c8d" stroke-width="1.51"/><path d="M735,512L606,617L728,627Z" fill="#004c8d" stroke="#004c8d" stroke-width="1.51"/><path d="M750,410L582,365L579,478Z" fill="#004c8d" stroke="#004c8d" stroke-width="1.51"/><path d="M600,304L582,365L750,410Z" fill="#004c8d" stroke="#004c8d" stroke-width="1.51"/><path d="M579,478L606,617L735,512Z" fill="#004c8d" stroke="#004c8d" stroke-width="1.51"/><path d="M728,627L803,694L841,470Z" fill="#004c8d" stroke="#004c8d" stroke-width="1.51"/><path d="M802,753L803,694L716,804Z" fill="#0a538e" stroke="#0a538e" stroke-width="1.51"/><path d="M851,382L743,233L750,410Z" fill="#004c8d" stroke="#004c8d" stroke-width="1.51"/><path d="M840,219L743,233L851,382Z" fill="#004c8d" stroke="#004c8d" stroke-width="1.51"/><path d="M946,673L1007,528L841,470Z" fill="#004c8d" stroke="#004c8d" stroke-width="1.51"/><path d="M743,233L600,304L750,410Z" fill="#004c8d" stroke="#004c8d" stroke-width="1.51"/><path d="M936,217L840,219L851,382Z" fill="#004c8d" stroke="#004c8d" stroke-width="1.51"/><path d="M803,694L946,673L841,470Z" fill="#004c8d" stroke="#004c8d" stroke-width="1.51"/><path d="M477,341L511,465L582,365Z" fill="#004c8d" stroke="#004c8d" stroke-width="1.51"/><path d="M582,365L511,465L579,478Z" fill="#004c8d" stroke="#004c8d" stroke-width="1.51"/><path d="M579,478L511,465L606,617Z" fill="#004c8d" stroke="#004c8d" stroke-width="1.51"/><path d="M803,694L942,772L946,673Z" fill="#06508d" stroke="#06508d" stroke-width="1.51"/><path d="M716,804L803,694L728,627Z" fill="#054f8d" stroke="#054f8d" stroke-width="1.51"/><path d="M953,420L936,217L851,382Z" fill="#004c8d" stroke="#004c8d" stroke-width="1.51"/><path d="M1059,325L936,217L953,420Z" fill="#004c8d" stroke="#004c8d" stroke-width="1.51"/><path d="M840,219L852,180L743,233Z" fill="#024b8e" stroke="#024b8e" stroke-width="1.51"/><path d="M936,217L852,180L840,219Z" fill="#034b8e" stroke="#034b8e" stroke-width="1.51"/><path d="M743,233L695,177L600,304Z" fill="#004c8d" stroke="#004c8d" stroke-width="1.51"/><path d="M852,180L695,177L743,233Z" fill="#034a8e" stroke="#034a8e" stroke-width="1.51"/><path d="M1007,528L1059,325L953,420Z" fill="#004c8d" stroke="#004c8d" stroke-width="1.51"/><path d="M431,274L477,341L600,304Z" fill="#004c8d" stroke="#004c8d" stroke-width="1.51"/><path d="M600,304L477,341L582,365Z" fill="#004c8d" stroke="#004c8d" stroke-width="1.51"/><path d="M695,177L641,155L600,304Z" fill="#024b8e" stroke="#024b8e" stroke-width="1.51"/><path d="M682,25L641,155L695,177Z" fill="#09458f" stroke="#09458f" stroke-width="1.51"/><path d="M606,617L716,804L728,627Z" fill="#024d8d" stroke="#024d8d" stroke-width="1.51"/><path d="M802,753L942,772L803,694Z" fill="#08528e" stroke="#08528e" stroke-width="1.51"/><path d="M640,825L716,804L606,617Z" fill="#0a538e" stroke="#0a538e" stroke-width="1.51"/><path d="M946,673L1111,588L1007,528Z" fill="#004c8d" stroke="#004c8d" stroke-width="1.51"/><path d="M887,861L942,772L802,753Z" fill="#0e578e" stroke="#0e578e" stroke-width="1.51"/><path d="M1007,528L1167,462L1059,325Z" fill="#034e8d" stroke="#034e8d" stroke-width="1.51"/><path d="M1129,824L1111,588L946,673Z" fill="#054f8d" stroke="#054f8d" stroke-width="1.51"/><path d="M716,804L887,861L802,753Z" fill="#0f588e" stroke="#0f588e" stroke-width="1.51"/><path d="M460,794L640,825L606,617Z" fill="#09538e" stroke="#09538e" stroke-width="1.51"/><path d="M1111,588L1167,462L1007,528Z" fill="#044f8d" stroke="#044f8d" stroke-width="1.51"/><path d="M498,94L431,274L600,304Z" fill="#014c8d" stroke="#014c8d" stroke-width="1.51"/><path d="M327,466L403,657L511,465Z" fill="#004c8d" stroke="#004c8d" stroke-width="1.51"/><path d="M511,465L403,657L606,617Z" fill="#004c8d" stroke="#004c8d" stroke-width="1.51"/><path d="M690,883L887,861L716,804Z" fill="#115c8e" stroke="#115c8e" stroke-width="1.51"/><path d="M942,772L1129,824L946,673Z" fill="#0a548e" stroke="#0a548e" stroke-width="1.51"/><path d="M936,217L1031,140L852,180Z" fill="#05498e" stroke="#05498e" stroke-width="1.51"/><path d="M852,180L682,25L695,177Z" fill="#08468f" stroke="#08468f" stroke-width="1.51"/><path d="M1059,325L1031,140L936,217Z" fill="#014c8d" stroke="#014c8d" stroke-width="1.51"/><path d="M1141,221L1031,140L1059,325Z" fill="#034d8d" stroke="#034d8d" stroke-width="1.51"/><path d="M887,861L934,856L942,772Z" fill="#115a8e" stroke="#115a8e" stroke-width="1.51"/><path d="M342,408L511,465L477,341Z" fill="#004c8d" stroke="#004c8d" stroke-width="1.51"/><path d="M640,825L690,883L716,804Z" fill="#115b8e" stroke="#115b8e" stroke-width="1.51"/><path d="M887,861L862,977L934,856Z" fill="#14608e" stroke="#14608e" stroke-width="1.51"/><path d="M594,927L690,883L640,825Z" fill="#135e8e" stroke="#135e8e" stroke-width="1.51"/><path d="M1167,462L1212,435L1059,325Z" fill="#08528e" stroke="#08528e" stroke-width="1.51"/><path d="M1280,533L1212,435L1167,462Z" fill="#0d568e" stroke="#0d568e" stroke-width="1.51"/><path d="M1196,223L1141,221L1059,325Z" fill="#07518e" stroke="#07518e" stroke-width="1.51"/><path d="M431,274L342,408L477,341Z" fill="#004c8d" stroke="#004c8d" stroke-width="1.51"/><path d="M342,408L327,466L511,465Z" fill="#004c8d" stroke="#004c8d" stroke-width="1.51"/><path d="M641,155L498,94L600,304Z" fill="#04498e" stroke="#04498e" stroke-width="1.51"/><path d="M852,0L682,25L852,180Z" fill="#0d4290" stroke="#0d4290" stroke-width="1.51"/><path d="M403,657L460,794L606,617Z" fill="#034e8d" stroke="#034e8d" stroke-width="1.51"/><path d="M431,274L318,250L342,408Z" fill="#024b8e" stroke="#024b8e" stroke-width="1.51"/><path d="M682,25L498,94L641,155Z" fill="#0b448f" stroke="#0b448f" stroke-width="1.51"/><path d="M1031,140L852,0L852,180Z" fill="#0a458f" stroke="#0a458f" stroke-width="1.51"/><path d="M961,-39L852,0L1031,140Z" fill="#0e4090" stroke="#0e4090" stroke-width="1.51"/><path d="M1141,221L1144,124L1031,140Z" fill="#0c4b8e" stroke="#0c4b8e" stroke-width="1.51"/><path d="M1212,435L1196,223L1059,325Z" fill="#08528e" stroke="#08528e" stroke-width="1.51"/><path d="M460,794L496,872L640,825Z" fill="#115a8e" stroke="#115a8e" stroke-width="1.51"/><path d="M690,883L862,977L887,861Z" fill="#15618e" stroke="#15618e" stroke-width="1.51"/><path d="M496,872L594,927L640,825Z" fill="#135e8e" stroke="#135e8e" stroke-width="1.51"/><path d="M1196,223L1144,124L1141,221Z" fill="#0d508e" stroke="#0d508e" stroke-width="1.51"/><path d="M934,856L1129,824L942,772Z" fill="#10598e" stroke="#10598e" stroke-width="1.51"/><path d="M1111,588L1280,533L1167,462Z" fill="#0b548e" stroke="#0b548e" stroke-width="1.51"/><path d="M1077,920L1129,824L934,856Z" fill="#135d8e" stroke="#135d8e" stroke-width="1.51"/><path d="M316,701L364,757L403,657Z" fill="#074e8e" stroke="#074e8e" stroke-width="1.51"/><path d="M403,657L364,757L460,794Z" fill="#08528e" stroke="#08528e" stroke-width="1.51"/><path d="M460,794L300,958L496,872Z" fill="#135e8e" stroke="#135e8e" stroke-width="1.51"/><path d="M1212,435L1323,329L1196,223Z" fill="#0f578e" stroke="#0f578e" stroke-width="1.51"/><path d="M1273,589L1280,533L1111,588Z" fill="#0d568e" stroke="#0d568e" stroke-width="1.51"/><path d="M358,153L318,250L431,274Z" fill="#024b8e" stroke="#024b8e" stroke-width="1.51"/><path d="M342,408L189,327L327,466Z" fill="#06488e" stroke="#06488e" stroke-width="1.51"/><path d="M1253,749L1273,589L1111,588Z" fill="#0d568e" stroke="#0d568e" stroke-width="1.51"/><path d="M703,1015L862,977L690,883Z" fill="#17668e" stroke="#17668e" stroke-width="1.51"/><path d="M205,628L403,657L327,466Z" fill="#05498e" stroke="#05498e" stroke-width="1.51"/><path d="M205,628L316,701L403,657Z" fill="#05498e" stroke="#05498e" stroke-width="1.51"/><path d="M498,94L358,153L431,274Z" fill="#05498e" stroke="#05498e" stroke-width="1.51"/><path d="M498,94L464,41L358,153Z" fill="#0b448f" stroke="#0b448f" stroke-width="1.51"/><path d="M597,-49L464,41L498,94Z" fill="#0e4090" stroke="#0e4090" stroke-width="1.51"/><path d="M597,-49L498,94L682,25Z" fill="#0f3f91" stroke="#0f3f91" stroke-width="1.51"/><path d="M1121,20L961,-39L1031,140Z" fill="#0e4090" stroke="#0e4090" stroke-width="1.51"/><path d="M852,0L809,-76L682,25Z" fill="#103d91" stroke="#103d91" stroke-width="1.51"/><path d="M961,-39L809,-76L852,0Z" fill="#113b91" stroke="#113b91" stroke-width="1.51"/><path d="M1129,824L1253,749L1111,588Z" fill="#0e578e" stroke="#0e578e" stroke-width="1.51"/><path d="M1025,995L1077,920L934,856Z" fill="#16638e" stroke="#16638e" stroke-width="1.51"/><path d="M707,-156L597,-49L682,25Z" fill="#113a92" stroke="#113a92" stroke-width="1.51"/><path d="M1238,875L1253,749L1129,824Z" fill="#15628e" stroke="#15628e" stroke-width="1.51"/><path d="M594,927L703,1015L690,883Z" fill="#16648e" stroke="#16648e" stroke-width="1.51"/><path d="M648,1064L703,1015L594,927Z" fill="#186a8e" stroke="#186a8e" stroke-width="1.51"/><path d="M1196,223L1294,176L1144,124Z" fill="#12528f" stroke="#12528f" stroke-width="1.51"/><path d="M1372,507L1323,329L1212,435Z" fill="#115b8e" stroke="#115b8e" stroke-width="1.51"/><path d="M1372,507L1212,435L1280,533Z" fill="#105a8e" stroke="#105a8e" stroke-width="1.51"/><path d="M1372,507L1280,533L1273,589Z" fill="#115b8e" stroke="#115b8e" stroke-width="1.51"/><path d="M1206,-10L1121,20L1144,124Z" fill="#164791" stroke="#164791" stroke-width="1.51"/><path d="M1144,124L1121,20L1031,140Z" fill="#10478f" stroke="#10478f" stroke-width="1.51"/><path d="M1077,920L1238,875L1129,824Z" fill="#16648f" stroke="#16648f" stroke-width="1.51"/><path d="M862,977L1025,995L934,856Z" fill="#16648e" stroke="#16648e" stroke-width="1.51"/><path d="M1053,1022L1025,995L862,977Z" fill="#18698e" stroke="#18698e" stroke-width="1.51"/><path d="M1323,329L1294,176L1196,223Z" fill="#10598e" stroke="#10598e" stroke-width="1.51"/><path d="M1400,641L1372,507L1273,589Z" fill="#135e8e" stroke="#135e8e" stroke-width="1.51"/><path d="M1378,224L1312,130L1294,176Z" fill="#17598f" stroke="#17598f" stroke-width="1.51"/><path d="M142,560L205,628L327,466Z" fill="#09458f" stroke="#09458f" stroke-width="1.51"/><path d="M316,701L252,794L364,757Z" fill="#10508f" stroke="#10508f" stroke-width="1.51"/><path d="M481,1085L594,927L496,872Z" fill="#17668e" stroke="#17668e" stroke-width="1.51"/><path d="M318,250L189,327L342,408Z" fill="#07488e" stroke="#07488e" stroke-width="1.51"/><path d="M212,230L189,327L318,250Z" fill="#08468f" stroke="#08468f" stroke-width="1.51"/><path d="M212,230L318,250L358,153Z" fill="#07478f" stroke="#07478f" stroke-width="1.51"/><path d="M703,1015L648,1064L862,977Z" fill="#186b8e" stroke="#186b8e" stroke-width="1.51"/><path d="M481,1085L648,1064L594,927Z" fill="#186b8e" stroke="#186b8e" stroke-width="1.51"/><path d="M300,958L460,794L364,757Z" fill="#125a8e" stroke="#125a8e" stroke-width="1.51"/><path d="M175,117L212,230L358,153Z" fill="#0d4290" stroke="#0d4290" stroke-width="1.51"/><path d="M1212,1066L1238,875L1077,920Z" fill="#196d8f" stroke="#196d8f" stroke-width="1.51"/><path d="M1253,749L1400,641L1273,589Z" fill="#115b8e" stroke="#115b8e" stroke-width="1.51"/><path d="M205,628L252,794L316,701Z" fill="#0d4a8f" stroke="#0d4a8f" stroke-width="1.51"/><path d="M1025,995L1053,1022L1077,920Z" fill="#17688e" stroke="#17688e" stroke-width="1.51"/><path d="M648,1064L1053,1022L862,977Z" fill="#186b8e" stroke="#186b8e" stroke-width="1.51"/><path d="M597,-49L442,-185L464,41Z" fill="#113a92" stroke="#113a92" stroke-width="1.51"/><path d="M464,41L317,22L358,153Z" fill="#0d4290" stroke="#0d4290" stroke-width="1.51"/><path d="M809,-76L707,-156L682,25Z" fill="#113a92" stroke="#113a92" stroke-width="1.51"/><path d="M946,-157L707,-156L809,-76Z" fill="#123693" stroke="#123693" stroke-width="1.51"/><path d="M946,-157L809,-76L961,-39Z" fill="#123892" stroke="#123892" stroke-width="1.51"/><path d="M707,-156L595,-137L597,-49Z" fill="#123793" stroke="#123793" stroke-width="1.51"/><path d="M1378,224L1294,176L1323,329Z" fill="#125d8e" stroke="#125d8e" stroke-width="1.51"/><path d="M1294,176L1312,130L1144,124Z" fill="#16538f" stroke="#16538f" stroke-width="1.51"/><path d="M1053,-137L946,-157L961,-39Z" fill="#123792" stroke="#123792" stroke-width="1.51"/><path d="M1312,130L1206,-10L1144,124Z" fill="#184d90" stroke="#184d90" stroke-width="1.51"/><path d="M442,-185L317,22L464,41Z" fill="#113b91" stroke="#113b91" stroke-width="1.51"/><path d="M205,628L75,735L252,794Z" fill="#124890" stroke="#124890" stroke-width="1.51"/><path d="M189,327L142,560L327,466Z" fill="#09458f" stroke="#09458f" stroke-width="1.51"/><path d="M1053,-137L961,-39L1121,20Z" fill="#113b92" stroke="#113b92" stroke-width="1.51"/><path d="M1427,725L1400,641L1253,749Z" fill="#15628e" stroke="#15628e" stroke-width="1.51"/><path d="M1471,330L1378,224L1323,329Z" fill="#14608e" stroke="#14608e" stroke-width="1.51"/><path d="M1471,330L1323,329L1372,507Z" fill="#14608e" stroke="#14608e" stroke-width="1.51"/><path d="M1191,-121L1053,-137L1121,20Z" fill="#183e93" stroke="#183e93" stroke-width="1.51"/><path d="M1400,641L1447,593L1372,507Z" fill="#15618e" stroke="#15618e" stroke-width="1.51"/><path d="M1427,725L1447,593L1400,641Z" fill="#15628e" stroke="#15628e" stroke-width="1.51"/><path d="M252,794L300,958L364,757Z" fill="#16578f" stroke="#16578f" stroke-width="1.51"/><path d="M160,889L300,958L252,794Z" fill="#1c5890" stroke="#1c5890" stroke-width="1.51"/><path d="M648,1064L1212,1066L1053,1022Z" fill="#196e8f" stroke="#196e8f" stroke-width="1.51"/><path d="M314,1011L481,1085L496,872Z" fill="#17698e" stroke="#17698e" stroke-width="1.51"/><path d="M317,22L175,117L358,153Z" fill="#0e4090" stroke="#0e4090" stroke-width="1.51"/><path d="M69,210L42,386L189,327Z" fill="#0e4090" stroke="#0e4090" stroke-width="1.51"/><path d="M18,548L65,619L142,560Z" fill="#0f3f91" stroke="#0f3f91" stroke-width="1.51"/><path d="M1465,766L1427,725L1238,875Z" fill="#186a8f" stroke="#186a8f" stroke-width="1.51"/><path d="M1238,875L1427,725L1253,749Z" fill="#16658e" stroke="#16658e" stroke-width="1.51"/><path d="M1378,224L1465,155L1312,130Z" fill="#1a5c8f" stroke="#1a5c8f" stroke-width="1.51"/><path d="M1324,-172L1191,-121L1206,-10Z" fill="#204393" stroke="#204393" stroke-width="1.51"/><path d="M1550,543L1471,330L1372,507Z" fill="#16658e" stroke="#16658e" stroke-width="1.51"/><path d="M300,958L314,1011L496,872Z" fill="#18648f" stroke="#18648f" stroke-width="1.51"/><path d="M215,1030L314,1011L300,958Z" fill="#1f6590" stroke="#1f6590" stroke-width="1.51"/><path d="M1206,-10L1191,-121L1121,20Z" fill="#1a4392" stroke="#1a4392" stroke-width="1.51"/><path d="M1053,-137L1324,-172L946,-157Z" fill="#183893" stroke="#183893" stroke-width="1.51"/><path d="M1381,-13L1206,-10L1312,130Z" fill="#1e4f91" stroke="#1e4f91" stroke-width="1.51"/><path d="M1471,330L1479,278L1378,224Z" fill="#15638e" stroke="#15638e" stroke-width="1.51"/><path d="M1617,289L1479,278L1471,330Z" fill="#18688e" stroke="#18688e" stroke-width="1.51"/><path d="M142,560L65,619L205,628Z" fill="#0d4290" stroke="#0d4290" stroke-width="1.51"/><path d="M42,386L142,560L189,327Z" fill="#0d4190" stroke="#0d4190" stroke-width="1.51"/><path d="M595,-137L442,-185L597,-49Z" fill="#123693" stroke="#123693" stroke-width="1.51"/><path d="M317,22L161,21L175,117Z" fill="#113a92" stroke="#113a92" stroke-width="1.51"/><path d="M707,-156L442,-185L595,-137Z" fill="#133493" stroke="#133493" stroke-width="1.51"/><path d="M946,-157L442,-185L707,-156Z" fill="#133393" stroke="#133393" stroke-width="1.51"/><path d="M1053,1022L1212,1066L1077,920Z" fill="#196e8e" stroke="#196e8e" stroke-width="1.51"/><path d="M481,1085L1212,1066L648,1064Z" fill="#19708f" stroke="#19708f" stroke-width="1.51"/><path d="M69,210L189,327L212,230Z" fill="#0c4390" stroke="#0c4390" stroke-width="1.51"/><path d="M75,735L160,889L252,794Z" fill="#1a4f90" stroke="#1a4f90" stroke-width="1.51"/><path d="M1447,593L1550,543L1372,507Z" fill="#16648e" stroke="#16648e" stroke-width="1.51"/><path d="M1427,725L1594,638L1447,593Z" fill="#17668e" stroke="#17668e" stroke-width="1.51"/><path d="M1374,956L1465,766L1238,875Z" fill="#19708f" stroke="#19708f" stroke-width="1.51"/><path d="M65,619L75,735L205,628Z" fill="#0d4190" stroke="#0d4190" stroke-width="1.51"/><path d="M-55,660L75,735L65,619Z" fill="#103e91" stroke="#103e91" stroke-width="1.51"/><path d="M1479,278L1465,155L1378,224Z" fill="#17628e" stroke="#17628e" stroke-width="1.51"/><path d="M120,69L69,210L175,117Z" fill="#113b92" stroke="#113b92" stroke-width="1.51"/><path d="M175,117L69,210L212,230Z" fill="#0f3f91" stroke="#0f3f91" stroke-width="1.51"/><path d="M173,-160L161,21L317,22Z" fill="#133493" stroke="#133493" stroke-width="1.51"/><path d="M42,386L18,548L142,560Z" fill="#0f3f91" stroke="#0f3f91" stroke-width="1.51"/><path d="M161,21L120,69L175,117Z" fill="#123892" stroke="#123892" stroke-width="1.51"/><path d="M1452,14L1381,-13L1312,130Z" fill="#215591" stroke="#215591" stroke-width="1.51"/><path d="M1312,1067L1374,956L1238,875Z" fill="#1a768f" stroke="#1a768f" stroke-width="1.51"/><path d="M442,-185L355,-183L317,22Z" fill="#123693" stroke="#123693" stroke-width="1.51"/><path d="M1594,638L1550,543L1447,593Z" fill="#17698e" stroke="#17698e" stroke-width="1.51"/><path d="M1479,278L1576,125L1465,155Z" fill="#1c648f" stroke="#1c648f" stroke-width="1.51"/><path d="M160,889L215,1030L300,958Z" fill="#205f90" stroke="#205f90" stroke-width="1.51"/><path d="M314,1011L215,1030L481,1085Z" fill="#1d6a8f" stroke="#1d6a8f" stroke-width="1.51"/><path d="M24,953L215,1030L160,889Z" fill="#235b91" stroke="#235b91" stroke-width="1.51"/><path d="M1212,1066L1312,1067L1238,875Z" fill="#1a768f" stroke="#1a768f" stroke-width="1.51"/><path d="M481,1085L1312,1067L1212,1066Z" fill="#19708f" stroke="#19708f" stroke-width="1.51"/><path d="M42,386L-54,546L18,548Z" fill="#103c91" stroke="#103c91" stroke-width="1.51"/><path d="M69,210L-8,271L42,386Z" fill="#0f3e91" stroke="#0f3e91" stroke-width="1.51"/><path d="M-19,118L-8,271L69,210Z" fill="#113b92" stroke="#113b92" stroke-width="1.51"/><path d="M1465,155L1452,14L1312,130Z" fill="#1f5990" stroke="#1f5990" stroke-width="1.51"/><path d="M1381,-13L1324,-172L1206,-10Z" fill="#224992" stroke="#224992" stroke-width="1.51"/><path d="M1576,125L1452,14L1465,155Z" fill="#215f91" stroke="#215f91" stroke-width="1.51"/><path d="M1465,766L1594,638L1427,725Z" fill="#186a8e" stroke="#186a8e" stroke-width="1.51"/><path d="M1374,956L1482,901L1465,766Z" fill="#19768f" stroke="#19768f" stroke-width="1.51"/><path d="M1489,987L1482,901L1374,956Z" fill="#197d8f" stroke="#197d8f" stroke-width="1.51"/><path d="M1663,751L1594,638L1465,766Z" fill="#19708f" stroke="#19708f" stroke-width="1.51"/><path d="M1658,408L1617,289L1471,330Z" fill="#186b8e" stroke="#186b8e" stroke-width="1.51"/><path d="M75,735L24,953L160,889Z" fill="#205191" stroke="#205191" stroke-width="1.51"/><path d="M18,548L-55,660L65,619Z" fill="#103d91" stroke="#103d91" stroke-width="1.51"/><path d="M-92,344L-54,546L42,386Z" fill="#113b92" stroke="#113b92" stroke-width="1.51"/><path d="M1191,-121L1324,-172L1053,-137Z" fill="#1e3e93" stroke="#1e3e93" stroke-width="1.51"/><path d="M946,-157L1324,-172L442,-185Z" fill="#133393" stroke="#133393" stroke-width="1.51"/><path d="M1520,-150L1324,-172L1381,-13Z" fill="#284d94" stroke="#284d94" stroke-width="1.51"/><path d="M-54,546L-55,660L18,548Z" fill="#103b92" stroke="#103b92" stroke-width="1.51"/><path d="M1658,408L1471,330L1550,543Z" fill="#186a8e" stroke="#186a8e" stroke-width="1.51"/><path d="M120,69L-19,118L69,210Z" fill="#123892" stroke="#123892" stroke-width="1.51"/><path d="M161,21L86,-44L120,69Z" fill="#133494" stroke="#133494" stroke-width="1.51"/><path d="M173,-160L86,-44L161,21Z" fill="#132f94" stroke="#132f94" stroke-width="1.51"/><path d="M1617,289L1576,125L1479,278Z" fill="#186a8e" stroke="#186a8e" stroke-width="1.51"/><path d="M1452,14L1520,-150L1381,-13Z" fill="#275393" stroke="#275393" stroke-width="1.51"/><path d="M-8,271L-92,344L42,386Z" fill="#113b91" stroke="#113b91" stroke-width="1.51"/><path d="M86,-44L-19,118L120,69Z" fill="#133394" stroke="#133394" stroke-width="1.51"/><path d="M355,-183L173,-160L317,22Z" fill="#133293" stroke="#133293" stroke-width="1.51"/><path d="M-156,222L-92,344L-8,271Z" fill="#113992" stroke="#113992" stroke-width="1.51"/><path d="M-238,633L-115,720L-55,660Z" fill="#133793" stroke="#133793" stroke-width="1.51"/><path d="M1312,1067L1489,987L1374,956Z" fill="#1a7e8f" stroke="#1a7e8f" stroke-width="1.51"/><path d="M1482,901L1663,751L1465,766Z" fill="#19758f" stroke="#19758f" stroke-width="1.51"/><path d="M1669,532L1658,408L1550,543Z" fill="#196e8f" stroke="#196e8f" stroke-width="1.51"/><path d="M1617,289L1665,-23L1576,125Z" fill="#226890" stroke="#226890" stroke-width="1.51"/><path d="M1663,751L1669,532L1594,638Z" fill="#196f8f" stroke="#196f8f" stroke-width="1.51"/><path d="M1594,638L1669,532L1550,543Z" fill="#196d8f" stroke="#196d8f" stroke-width="1.51"/><path d="M-104,926L24,953L75,735Z" fill="#234e92" stroke="#234e92" stroke-width="1.51"/><path d="M173,-160L48,-101L86,-44Z" fill="#132b95" stroke="#132b95" stroke-width="1.51"/><path d="M86,-44L-71,7L-19,118Z" fill="#132f94" stroke="#132f94" stroke-width="1.51"/><path d="M-156,222L-157,428L-92,344Z" fill="#123693" stroke="#123693" stroke-width="1.51"/><path d="M-55,660L-115,720L75,735Z" fill="#163f92" stroke="#163f92" stroke-width="1.51"/><path d="M-238,633L-55,660L-54,546Z" fill="#123792" stroke="#123792" stroke-width="1.51"/><path d="M1648,913L1663,751L1482,901Z" fill="#1a7d8f" stroke="#1a7d8f" stroke-width="1.51"/><path d="M-92,344L-157,428L-54,546Z" fill="#123892" stroke="#123892" stroke-width="1.51"/><path d="M-156,222L-8,271L-19,118Z" fill="#123892" stroke="#123892" stroke-width="1.51"/><path d="M24,953L52,1071L215,1030Z" fill="#275f92" stroke="#275f92" stroke-width="1.51"/><path d="M215,1030L52,1071L481,1085Z" fill="#226990" stroke="#226990" stroke-width="1.51"/><path d="M-51,978L52,1071L24,953Z" fill="#2a5a93" stroke="#2a5a93" stroke-width="1.51"/><path d="M1665,-23L1452,14L1576,125Z" fill="#275f92" stroke="#275f92" stroke-width="1.51"/><path d="M1665,-23L1520,-150L1452,14Z" fill="#2b5893" stroke="#2b5893" stroke-width="1.51"/><path d="M48,-101L-71,7L86,-44Z" fill="#132b96" stroke="#132b96" stroke-width="1.51"/><path d="M-71,7L-156,222L-19,118Z" fill="#133194" stroke="#133194" stroke-width="1.51"/><path d="M-104,926L-51,978L24,953Z" fill="#285493" stroke="#285493" stroke-width="1.51"/><path d="M1489,987L1648,913L1482,901Z" fill="#18818f" stroke="#18818f" stroke-width="1.51"/><path d="M-153,916L-104,926L-115,720Z" fill="#244894" stroke="#244894" stroke-width="1.51"/><path d="M-115,720L-104,926L75,735Z" fill="#1e4592" stroke="#1e4592" stroke-width="1.51"/><path d="M1669,532L1665,-23L1658,408Z" fill="#19708f" stroke="#19708f" stroke-width="1.51"/><path d="M1658,408L1665,-23L1617,289Z" fill="#1a6f8f" stroke="#1a6f8f" stroke-width="1.51"/><path d="M-157,428L-235,527L-54,546Z" fill="#123693" stroke="#123693" stroke-width="1.51"/><path d="M-247,177L-235,527L-157,428Z" fill="#133393" stroke="#133393" stroke-width="1.51"/><path d="M-235,527L-238,633L-54,546Z" fill="#133593" stroke="#133593" stroke-width="1.51"/><path d="M1665,-23L1587,-173L1520,-150Z" fill="#2e5795" stroke="#2e5795" stroke-width="1.51"/><path d="M1520,-150L1587,-173L1324,-172Z" fill="#2c4d95" stroke="#2c4d95" stroke-width="1.51"/><path d="M1324,-172L1587,-173L442,-185Z" fill="#193793" stroke="#193793" stroke-width="1.51"/><path d="M-104,926L-215,1052L-51,978Z" fill="#2c5494" stroke="#2c5494" stroke-width="1.51"/><path d="M-51,978L-215,1052L52,1071Z" fill="#2d5a94" stroke="#2d5a94" stroke-width="1.51"/><path d="M-249,729L-153,916L-115,720Z" fill="#204093" stroke="#204093" stroke-width="1.51"/><path d="M-71,7L-247,177L-156,222Z" fill="#132f94" stroke="#132f94" stroke-width="1.51"/><path d="M-156,222L-247,177L-157,428Z" fill="#123493" stroke="#123493" stroke-width="1.51"/><path d="M-63,-191L-145,-38L-71,7Z" fill="#122397" stroke="#122397" stroke-width="1.51"/><path d="M-63,-191L-71,7L48,-101Z" fill="#122597" stroke="#122597" stroke-width="1.51"/><path d="M-238,633L-249,729L-115,720Z" fill="#173693" stroke="#173693" stroke-width="1.51"/><path d="M-235,527L-249,729L-238,633Z" fill="#133294" stroke="#133294" stroke-width="1.51"/><path d="M-145,-38L-247,177L-71,7Z" fill="#122996" stroke="#122996" stroke-width="1.51"/><path d="M-235,527L-247,177L-249,729Z" fill="#133294" stroke="#133294" stroke-width="1.51"/><path d="M1587,-173L-63,-191L442,-185Z" fill="#133294" stroke="#133294" stroke-width="1.51"/><path d="M442,-185L-63,-191L355,-183Z" fill="#132b95" stroke="#132b95" stroke-width="1.51"/><path d="M355,-183L-63,-191L173,-160Z" fill="#132896" stroke="#132896" stroke-width="1.51"/><path d="M173,-160L-63,-191L48,-101Z" fill="#122497" stroke="#122497" stroke-width="1.51"/><path d="M1489,987L1685,1067L1648,913Z" fill="#158a8f" stroke="#158a8f" stroke-width="1.51"/><path d="M1648,913L1685,1067L1663,751Z" fill="#17868f" stroke="#17868f" stroke-width="1.51"/><path d="M1663,751L1685,1067L1669,532Z" fill="#197b8f" stroke="#197b8f" stroke-width="1.51"/><path d="M1669,532L1685,1067L1665,-23Z" fill="#19718f" stroke="#19718f" stroke-width="1.51"/><path d="M1312,1067L1685,1067L1489,987Z" fill="#17888f" stroke="#17888f" stroke-width="1.51"/><path d="M481,1085L1685,1067L1312,1067Z" fill="#1a778f" stroke="#1a778f" stroke-width="1.51"/><path d="M-153,916L-215,1052L-104,926Z" fill="#2b5094" stroke="#2b5094" stroke-width="1.51"/><path d="M-249,729L-215,1052L-153,916Z" fill="#294895" stroke="#294895" stroke-width="1.51"/><path d="M-63,-191L-218,-164L-145,-38Z" fill="#0f1b98" stroke="#0f1b98" stroke-width="1.51"/><path d="M-145,-38L-218,-164L-247,177Z" fill="#112297" stroke="#112297" stroke-width="1.51"/></svg>