<svg xmlns="http://www.w3.org/2000/svg" width="1440" height="900"><path d="M750,410L735,512L841,470Z" fill="#0071a8" stroke="#0071a8" stroke-width="1.51"/><path d="M841,470L851,382L750,410Z" fill="#0071a8" stroke="#0071a8" stroke-width="1.51"/><path d="M735,512L728,627L841,470Z" fill="#0071a8" stroke="#0071a8" stroke-width="1.51"/><path d="M841,470L953,420L851,382Z" fill="#0071a8" stroke="#0071a8" stroke-width="1.51"/><path d="M1007,528L953,420L841,470Z" fill="#0071a8" stroke="#0071a8" stroke-width="1.51"/><path d="M750,410L579,478L735,512Z" fill="#0071a8" stroke="#0071a8" stroke-width="1.51"/><path d="M735,512L606,617L728,627Z" fill="#0071a8" stroke="#0071a8" stroke-width="1.51"/><path d="M750,410L582,365L579,478Z" fill="#0071a8" stroke="#0071a8" stroke-width="1.51"/><path d="M600,304L582,365L750,410Z" fill="#0071a8" stroke="#0071a8" stroke-width="1.51"/><path d="M579,478L606,617L735,512Z" fill="#0071a8" stroke="#0071a8" stroke-width="1.51"/><path d="M728,627L803,694L841,470Z" fill="#0071a8" stroke="#0071a8" stroke-width="1.51"/><path d="M802,753L803,694L716,804Z" fill="#0d77a6" stroke="#0d77a6" stroke-width="1.51"/><path d="M851,382L743,233L750,410Z" fill="#0071a8" stroke="#0071a8" stroke-width="1.51"/><path d="M840,219L743,233L851,382Z" fill="#0071a8" stroke="#0071a8" stroke-width="1.51"/><path d="M946,673L1007,528L841,470Z" fill="#0071a8" stroke="#0071a8" stroke-width="1.51"/><path d="M743,233L600,304L750,410Z" fill="#0071a8" stroke="#0071a8" stroke-width="1.51"/><path d="M936,217L840,219L851,382Z" fill="#0071a8" stroke="#0071a8" stroke-width="1.51"/><path d="M803,694L946,673L841,470Z" fill="#0071a8" stroke="#0071a8" stroke-width="1.51"/><path d="M477,341L511,465L582,365Z" fill="#0071a8" stroke="#0071a8" stroke-width="1.51"/><path d="M582,365L511,465L579,478Z" fill="#0071a8" stroke="#0071a8" stroke-width="1.51"/><path d="M579,478L511,465L606,617Z" fill="#0071a8" stroke="#0071a8" stroke-width="1.51"/><path d="M803,694L942,772L946,673Z" fill="#0874a7" stroke="#0874a7" stroke-width="1.51"/><path d="M716,804L803,694L728,627Z" fill="#0774a7" stroke="#0774a7" stroke-width="1.51"/><path d="M953,420L936,217L851,382Z" fill="#0071a8" stroke="#0071a8" stroke-width="1.51"/><path d="M1059,325L936,217L953,420Z" fill="#0071a8" stroke="#0071a8" stroke-width="1.51"/><path d="M840,219L852,180L743,233Z" fill="#046fa9" stroke="#046fa9" stroke-width="1.51"/><path d="M936,217L852,180L840,219Z" fill="#056fa9" stroke="#056fa9" stroke-width="1.51"/><path d="M743,233L695,177L600,304Z" fill="#0071a8" stroke="#0071a8" stroke-width="1.51"/><path d="M852,180L695,177L743,233Z" fill="#076ea9" stroke="#076ea9" stroke-width="1.51"/><path d="M1007,528L1059,325L953,420Z" fill="#0071a8" stroke="#0071a8" stroke-width="1.51"/><path d="M431,274L477,341L600,304Z" fill="#0071a8" stroke="#0071a8" stroke-width="1.51"/><path d="M600,304L477,341L582,365Z" fill="#0071a8" stroke="#0071a8" stroke-width="1.51"/><path d="M695,177L641,155L600,304Z" fill="#046fa9" stroke="#046fa9" stroke-width="1.51"/><path d="M682,25L641,155L695,177Z" fill="#1168aa" stroke="#1168aa" stroke-width="1.51"/><path d="M606,617L716,804L728,627Z" fill="#0372a8" stroke="#0372a8" stroke-width="1.51"/><path d="M802,753L942,772L803,694Z" fill="#0c76a6" stroke="#0c76a6" stroke-width="1.51"/><path d="M640,825L716,804L606,617Z" fill="#0d77a6" stroke="#0d77a6" stroke-width="1.51"/><path d="M946,673L1111,588L1007,528Z" fill="#0071a8" stroke="#0071a8" stroke-width="1.51"/><path d="M887,861L942,772L802,753Z" fill="#117ba5" stroke="#117ba5" stroke-width="1.51"/><path d="M1007,528L1167,462L1059,325Z" fill="#0472a8" stroke="#0472a8" stroke-width="1.51"/><path d="M1129,824L1111,588L946,673Z" fill="#0774a7" stroke="#0774a7" stroke-width="1.51"/><path d="M716,804L887,861L802,753Z" fill="#127ba5" stroke="#127ba5" stroke-width="1.51"/><path d="M460,794L640,825L606,617Z" fill="#0c77a6" stroke="#0c77a6" stroke-width="1.51"/><path d="M1111,588L1167,462L1007,528Z" fill="#0673a7" stroke="#0673a7" stroke-width="1.51"/><path d="M498,94L431,274L600,304Z" fill="#0270a8" stroke="#0270a8" stroke-width="1.51"/><path d="M327,466L403,657L511,465Z" fill="#0071a8" stroke="#0071a8" stroke-width="1.51"/><path d="M511,465L403,657L606,617Z" fill="#0071a8" stroke="#0071a8" stroke-width="1.51"/><path d="M690,883L887,861L716,804Z" fill="#167fa4" stroke="#167fa4" stroke-width="1.51"/><path d="M942,772L1129,824L946,673Z" fill="#0d78a6" stroke="#0d78a6" stroke-width="1.51"/><path d="M936,217L1031,140L852,180Z" fill="#0a6da9" stroke="#0a6da9" stroke-width="1.51"/><path d="M852,180L682,25L695,177Z" fill="#1168aa" stroke="#1168aa" stroke-width="1.51"/><path d="M1059,325L1031,140L936,217Z" fill="#0171a8" stroke="#0171a8" stroke-width="1.51"/><path d="M1141,221L1031,140L1059,325Z" fill="#0572a8" stroke="#0572a8" stroke-width="1.51"/><path d="M887,861L934,856L942,772Z" fill="#147da4" stroke="#147da4" stroke-width="1.51"/><path d="M342,408L511,465L477,341Z" fill="#0071a8" stroke="#0071a8" stroke-width="1.51"/><path d="M640,825L690,883L716,804Z" fill="#157ea4" stroke="#157ea4" stroke-width="1.51"/><path d="M887,861L862,977L934,856Z" fill="#1983a2" stroke="#1983a2" stroke-width="1.51"/><path d="M594,927L690,883L640,825Z" fill="#1781a3" stroke="#1781a3" stroke-width="1.51"/><path d="M1167,462L1212,435L1059,325Z" fill="#0b76a7" stroke="#0b76a7" stroke-width="1.51"/><path d="M1280,533L1212,435L1167,462Z" fill="#107aa5" stroke="#107aa5" stroke-width="1.51"/><path d="M1196,223L1141,221L1059,325Z" fill="#0975a7" stroke="#0975a7" stroke-width="1.51"/><path d="M431,274L342,408L477,341Z" fill="#0071a8" stroke="#0071a8" stroke-width="1.51"/><path d="M342,408L327,466L511,465Z" fill="#0071a8" stroke="#0071a8" stroke-width="1.51"/><path d="M641,155L498,94L600,304Z" fill="#096da9" stroke="#096da9" stroke-width="1.51"/><path d="M852,0L682,25L852,180Z" fill="#1564ab" stroke="#1564ab" stroke-width="1.51"/><path d="M403,657L460,794L606,617Z" fill="#0472a8" stroke="#0472a8" stroke-width="1.51"/><path d="M431,274L318,250L342,408Z" fill="#0470a9" stroke="#0470a9" stroke-width="1.51"/><path d="M682,25L498,94L641,155Z" fill="#1465ab" stroke="#1465ab" stroke-width="1.51"/><path d="M1031,140L852,0L852,180Z" fill="#1267aa" stroke="#1267aa" stroke-width="1.51"/><path d="M961,-39L852,0L1031,140Z" fill="#1761ab" stroke="#1761ab" stroke-width="1.51"/><path d="M1141,221L1144,124L1031,140Z" fill="#136ea8" stroke="#136ea8" stroke-width="1.51"/><path d="M1212,435L1196,223L1059,325Z" fill="#0c76a6" stroke="#0c76a6" stroke-width="1.51"/><path d="M460,794L496,872L640,825Z" fill="#147da4" stroke="#147da4" stroke-width="1.51"/><path d="M690,883L862,977L887,861Z" fill="#1983a2" stroke="#1983a2" stroke-width="1.51"/><path d="M496,872L594,927L640,825Z" fill="#1781a3" stroke="#1781a3" stroke-width="1.51"/><path d="M1196,223L1144,124L1141,221Z" fill="#1373a7" stroke="#1373a7" stroke-width="1.51"/><path d="M934,856L1129,824L942,772Z" fill="#137ca4" stroke="#137ca4" stroke-width="1.51"/><path d="M1111,588L1280,533L1167,462Z" fill="#0e78a6" stroke="#0e78a6" stroke-width="1.51"/><path d="M1077,920L1129,824L934,856Z" fill="#1680a3" stroke="#1680a3" stroke-width="1.51"/><path d="M316,701L364,757L403,657Z" fill="#0b72a8" stroke="#0b72a8" stroke-width="1.51"/><path d="M403,657L364,757L460,794Z" fill="#0b76a7" stroke="#0b76a7" stroke-width="1.51"/><path d="M460,794L300,958L496,872Z" fill="#1781a3" stroke="#1781a3" stroke-width="1.51"/><path d="M1212,435L1323,329L1196,223Z" fill="#127ba5" stroke="#127ba5" stroke-width="1.51"/><path d="M1273,589L1280,533L1111,588Z" fill="#107aa5" stroke="#107aa5" stroke-width="1.51"/><path d="M358,153L318,250L431,274Z" fill="#056fa9" stroke="#056fa9" stroke-width="1.51"/><path d="M342,408L189,327L327,466Z" fill="#0d6ba9" stroke="#0d6ba9" stroke-width="1.51"/><path d="M1253,749L1273,589L1111,588Z" fill="#1079a5" stroke="#1079a5" stroke-width="1.51"/><path d="M703,1015L862,977L690,883Z" fill="#1b87a1" stroke="#1b87a1" stroke-width="1.51"/><path d="M205,628L403,657L327,466Z" fill="#0a6da9" stroke="#0a6da9" stroke-width="1.51"/><path d="M205,628L316,701L403,657Z" fill="#0b6ca9" stroke="#0b6ca9" stroke-width="1.51"/><path d="M498,94L358,153L431,274Z" fill="#0b6ca9" stroke="#0b6ca9" stroke-width="1.51"/><path d="M498,94L464,41L358,153Z" fill="#1466aa" stroke="#1466aa" stroke-width="1.51"/><path d="M597,-49L464,41L498,94Z" fill="#1860ac" stroke="#1860ac" stroke-width="1.51"/><path d="M597,-49L498,94L682,25Z" fill="#1860ac" stroke="#1860ac" stroke-width="1.51"/><path d="M1121,20L961,-39L1031,140Z" fill="#1761ab" stroke="#1761ab" stroke-width="1.51"/><path d="M852,0L809,-76L682,25Z" fill="#1a5cac" stroke="#1a5cac" stroke-width="1.51"/><path d="M961,-39L809,-76L852,0Z" fill="#1a5bad" stroke="#1a5bad" stroke-width="1.51"/><path d="M1129,824L1253,749L1111,588Z" fill="#127ba5" stroke="#127ba5" stroke-width="1.51"/><path d="M1025,995L1077,920L934,856Z" fill="#1985a2" stroke="#1985a2" stroke-width="1.51"/><path d="M707,-156L597,-49L682,25Z" fill="#1c59ad" stroke="#1c59ad" stroke-width="1.51"/><path d="M1238,875L1253,749L1129,824Z" fill="#1985a2" stroke="#1985a2" stroke-width="1.51"/><path d="M594,927L703,1015L690,883Z" fill="#1a86a1" stroke="#1a86a1" stroke-width="1.51"/><path d="M648,1064L703,1015L594,927Z" fill="#1c8b9f" stroke="#1c8b9f" stroke-width="1.51"/><path d="M1196,223L1294,176L1144,124Z" fill="#1874a7" stroke="#1874a7" stroke-width="1.51"/><path d="M1372,507L1323,329L1212,435Z" fill="#157ea4" stroke="#157ea4" stroke-width="1.51"/><path d="M1372,507L1212,435L1280,533Z" fill="#147da4" stroke="#147da4" stroke-width="1.51"/><path d="M1372,507L1280,533L1273,589Z" fill="#157ea4" stroke="#157ea4" stroke-width="1.51"/><path d="M1206,-10L1121,20L1144,124Z" fill="#1f67a9" stroke="#1f67a9" stroke-width="1.51"/><path d="M1144,124L1121,20L1031,140Z" fill="#1868aa" stroke="#1868aa" stroke-width="1.51"/><path d="M1077,920L1238,875L1129,824Z" fill="#1a86a1" stroke="#1a86a1" stroke-width="1.51"/><path d="M862,977L1025,995L934,856Z" fill="#1a86a1" stroke="#1a86a1" stroke-width="1.51"/><path d="M1053,1022L1025,995L862,977Z" fill="#1c8b9f" stroke="#1c8b9f" stroke-width="1.51"/><path d="M1323,329L1294,176L1196,223Z" fill="#137ca4" stroke="#137ca4" stroke-width="1.51"/><path d="M1400,641L1372,507L1273,589Z" fill="#1680a3" stroke="#1680a3" stroke-width="1.51"/><path d="M1378,224L1312,130L1294,176Z" fill="#1d7ba4" stroke="#1d7ba4" stroke-width="1.51"/><path d="M142,560L205,628L327,466Z" fill="#1168aa" stroke="#1168aa" stroke-width="1.51"/><path d="M316,701L252,794L364,757Z" fill="#1573a7" stroke="#1573a7" stroke-width="1.51"/><path d="M481,1085L594,927L496,872Z" fill="#1b88a0" stroke="#1b88a0" stroke-width="1.51"/><path d="M318,250L189,327L342,408Z" fill="#0d6ba9" stroke="#0d6ba9" stroke-width="1.51"/><path d="M212,230L189,327L318,250Z" fill="#1069aa" stroke="#1069aa" stroke-width="1.51"/><path d="M212,230L318,250L358,153Z" fill="#0f6aaa" stroke="#0f6aaa" stroke-width="1.51"/><path d="M703,1015L648,1064L862,977Z" fill="#1c8c9f" stroke="#1c8c9f" stroke-width="1.51"/><path d="M481,1085L648,1064L594,927Z" fill="#1d8d9f" stroke="#1d8d9f" stroke-width="1.51"/><path d="M300,958L460,794L364,757Z" fill="#177da4" stroke="#177da4" stroke-width="1.51"/><path d="M175,117L212,230L358,153Z" fill="#1564ab" stroke="#1564ab" stroke-width="1.51"/><path d="M1212,1066L1238,875L1077,920Z" fill="#1d8e9f" stroke="#1d8e9f" stroke-width="1.51"/><path d="M1253,749L1400,641L1273,589Z" fill="#157ea4" stroke="#157ea4" stroke-width="1.51"/><path d="M205,628L252,794L316,701Z" fill="#156da9" stroke="#156da9" stroke-width="1.51"/><path d="M1025,995L1053,1022L1077,920Z" fill="#1c8aa0" stroke="#1c8aa0" stroke-width="1.51"/><path d="M648,1064L1053,1022L862,977Z" fill="#1c8c9f" stroke="#1c8c9f" stroke-width="1.51"/><path d="M597,-49L442,-185L464,41Z" fill="#1b58ad" stroke="#1b58ad" stroke-width="1.51"/><path d="M464,41L317,22L358,153Z" fill="#1663ab" stroke="#1663ab" stroke-width="1.51"/><path d="M809,-76L707,-156L682,25Z" fill="#1c58ad" stroke="#1c58ad" stroke-width="1.51"/><path d="M946,-157L707,-156L809,-76Z" fill="#1d53ae" stroke="#1d53ae" stroke-width="1.51"/><path d="M946,-157L809,-76L961,-39Z" fill="#1c56ad" stroke="#1c56ad" stroke-width="1.51"/><path d="M707,-156L595,-137L597,-49Z" fill="#1d54ae" stroke="#1d54ae" stroke-width="1.51"/><path d="M1378,224L1294,176L1323,329Z" fill="#1680a3" stroke="#1680a3" stroke-width="1.51"/><path d="M1294,176L1312,130L1144,124Z" fill="#1d74a6" stroke="#1d74a6" stroke-width="1.51"/><path d="M1053,-137L946,-157L961,-39Z" fill="#1d54ae" stroke="#1d54ae" stroke-width="1.51"/><path d="M1312,130L1206,-10L1144,124Z" fill="#216ea8" stroke="#216ea8" stroke-width="1.51"/><path d="M442,-185L317,22L464,41Z" fill="#1a5bad" stroke="#1a5bad" stroke-width="1.51"/><path d="M205,628L75,735L252,794Z" fill="#1a69a9" stroke="#1a69a9" stroke-width="1.51"/><path d="M189,327L142,560L327,466Z" fill="#1168aa" stroke="#1168aa" stroke-width="1.51"/><path d="M1053,-137L961,-39L1121,20Z" fill="#1b59ad" stroke="#1b59ad" stroke-width="1.51"/><path d="M1427,725L1400,641L1253,749Z" fill="#1984a2" stroke="#1984a2" stroke-width="1.51"/><path d="M1471,330L1378,224L1323,329Z" fill="#1983a2" stroke="#1983a2" stroke-width="1.51"/><path d="M1471,330L1323,329L1372,507Z" fill="#1882a2" stroke="#1882a2" stroke-width="1.51"/><path d="M1191,-121L1053,-137L1121,20Z" fill="#225bac" stroke="#225bac" stroke-width="1.51"/><path d="M1400,641L1447,593L1372,507Z" fill="#1983a2" stroke="#1983a2" stroke-width="1.51"/><path d="M1427,725L1447,593L1400,641Z" fill="#1984a2" stroke="#1984a2" stroke-width="1.51"/><path d="M252,794L300,958L364,757Z" fill="#1d79a5" stroke="#1d79a5" stroke-width="1.51"/><path d="M160,889L300,958L252,794Z" fill="#2379a4" stroke="#2379a4" stroke-width="1.51"/><path d="M648,1064L1212,1066L1053,1022Z" fill="#1d8f9e" stroke="#1d8f9e" stroke-width="1.51"/><path d="M314,1011L481,1085L496,872Z" fill="#1c8aa0" stroke="#1c8aa0" stroke-width="1.51"/><path d="M317,22L175,117L358,153Z" fill="#1860ab" stroke="#1860ab" stroke-width="1.51"/><path d="M69,210L42,386L189,327Z" fill="#1761ab" stroke="#1761ab" stroke-width="1.51"/><path d="M18,548L65,619L142,560Z" fill="#185fac" stroke="#185fac" stroke-width="1.51"/><path d="M1465,766L1427,725L1238,875Z" fill="#1c8ba0" stroke="#1c8ba0" stroke-width="1.51"/><path d="M1238,875L1427,725L1253,749Z" fill="#1a87a1" stroke="#1a87a1" stroke-width="1.51"/><path d="M1378,224L1465,155L1312,130Z" fill="#207da3" stroke="#207da3" stroke-width="1.51"/><path d="M1324,-172L1191,-121L1206,-10Z" fill="#2a5fab" stroke="#2a5fab" stroke-width="1.51"/><path d="M1550,543L1471,330L1372,507Z" fill="#1a86a1" stroke="#1a86a1" stroke-width="1.51"/><path d="M300,958L314,1011L496,872Z" fill="#1d85a1" stroke="#1d85a1" stroke-width="1.51"/><path d="M215,1030L314,1011L300,958Z" fill="#2684a1" stroke="#2684a1" stroke-width="1.51"/><path d="M1206,-10L1191,-121L1121,20Z" fill="#2461aa" stroke="#2461aa" stroke-width="1.51"/><path d="M1053,-137L1324,-172L946,-157Z" fill="#2354ad" stroke="#2354ad" stroke-width="1.51"/><path d="M1381,-13L1206,-10L1312,130Z" fill="#276ea7" stroke="#276ea7" stroke-width="1.51"/><path d="M1471,330L1479,278L1378,224Z" fill="#1a85a1" stroke="#1a85a1" stroke-width="1.51"/><path d="M1617,289L1479,278L1471,330Z" fill="#1c8aa0" stroke="#1c8aa0" stroke-width="1.51"/><path d="M142,560L65,619L205,628Z" fill="#1663ab" stroke="#1663ab" stroke-width="1.51"/><path d="M42,386L142,560L189,327Z" fill="#1762ab" stroke="#1762ab" stroke-width="1.51"/><path d="M595,-137L442,-185L597,-49Z" fill="#1d53ae" stroke="#1d53ae" stroke-width="1.51"/><path d="M317,22L161,21L175,117Z" fill="#1b58ad" stroke="#1b58ad" stroke-width="1.51"/><path d="M707,-156L442,-185L595,-137Z" fill="#1d50ae" stroke="#1d50ae" stroke-width="1.51"/><path d="M946,-157L442,-185L707,-156Z" fill="#1d50ae" stroke="#1d50ae" stroke-width="1.51"/><path d="M1053,1022L1212,1066L1077,920Z" fill="#1d8e9e" stroke="#1d8e9e" stroke-width="1.51"/><path d="M481,1085L1212,1066L648,1064Z" fill="#1d909e" stroke="#1d909e" stroke-width="1.51"/><path d="M69,210L189,327L212,230Z" fill="#1564ab" stroke="#1564ab" stroke-width="1.51"/><path d="M75,735L160,889L252,794Z" fill="#226fa7" stroke="#226fa7" stroke-width="1.51"/><path d="M1447,593L1550,543L1372,507Z" fill="#1a86a1" stroke="#1a86a1" stroke-width="1.51"/><path d="M1427,725L1594,638L1447,593Z" fill="#1b88a0" stroke="#1b88a0" stroke-width="1.51"/><path d="M1374,956L1465,766L1238,875Z" fill="#1d909e" stroke="#1d909e" stroke-width="1.51"/><path d="M65,619L75,735L205,628Z" fill="#1762ab" stroke="#1762ab" stroke-width="1.51"/><path d="M-55,660L75,735L65,619Z" fill="#1a5dac" stroke="#1a5dac" stroke-width="1.51"/><path d="M1479,278L1465,155L1378,224Z" fill="#1b84a1" stroke="#1b84a1" stroke-width="1.51"/><path d="M120,69L69,210L175,117Z" fill="#1b5aad" stroke="#1b5aad" stroke-width="1.51"/><path d="M175,117L69,210L212,230Z" fill="#1860ac" stroke="#1860ac" stroke-width="1.51"/><path d="M173,-160L161,21L317,22Z" fill="#1d50af" stroke="#1d50af" stroke-width="1.51"/><path d="M42,386L18,548L142,560Z" fill="#185fac" stroke="#185fac" stroke-width="1.51"/><path d="M161,21L120,69L175,117Z" fill="#1c56ad" stroke="#1c56ad" stroke-width="1.51"/><path d="M1452,14L1381,-13L1312,130Z" fill="#2a72a6" stroke="#2a72a6" stroke-width="1.51"/><path d="M1312,1067L1374,956L1238,875Z" fill="#1d969c" stroke="#1d969c" stroke-width="1.51"/><path d="M442,-185L355,-183L317,22Z" fill="#1d52ae" stroke="#1d52ae" stroke-width="1.51"/><path d="M1594,638L1550,543L1447,593Z" fill="#1c8aa0" stroke="#1c8aa0" stroke-width="1.51"/><path d="M1479,278L1576,125L1465,155Z" fill="#2285a2" stroke="#2285a2" stroke-width="1.51"/><path d="M160,889L215,1030L300,958Z" fill="#287ea3" stroke="#287ea3" stroke-width="1.51"/><path d="M314,1011L215,1030L481,1085Z" fill="#228b9f" stroke="#228b9f" stroke-width="1.51"/><path d="M24,953L215,1030L160,889Z" fill="#2d79a4" stroke="#2d79a4" stroke-width="1.51"/><path d="M1212,1066L1312,1067L1238,875Z" fill="#1e959c" stroke="#1e959c" stroke-width="1.51"/><path d="M481,1085L1312,1067L1212,1066Z" fill="#1d919e" stroke="#1d919e" stroke-width="1.51"/><path d="M42,386L-54,546L18,548Z" fill="#1a5bac" stroke="#1a5bac" stroke-width="1.51"/><path d="M69,210L-8,271L42,386Z" fill="#195dac" stroke="#195dac" stroke-width="1.51"/><path d="M-19,118L-8,271L69,210Z" fill="#1b59ad" stroke="#1b59ad" stroke-width="1.51"/><path d="M1465,155L1452,14L1312,130Z" fill="#2879a4" stroke="#2879a4" stroke-width="1.51"/><path d="M1381,-13L1324,-172L1206,-10Z" fill="#2c66a9" stroke="#2c66a9" stroke-width="1.51"/><path d="M1576,125L1452,14L1465,155Z" fill="#2a7da3" stroke="#2a7da3" stroke-width="1.51"/><path d="M1465,766L1594,638L1427,725Z" fill="#1c8c9f" stroke="#1c8c9f" stroke-width="1.51"/><path d="M1374,956L1482,901L1465,766Z" fill="#1d959c" stroke="#1d959c" stroke-width="1.51"/><path d="M1489,987L1482,901L1374,956Z" fill="#1d9c9a" stroke="#1d9c9a" stroke-width="1.51"/><path d="M1663,751L1594,638L1465,766Z" fill="#1d909d" stroke="#1d909d" stroke-width="1.51"/><path d="M1658,408L1617,289L1471,330Z" fill="#1d8d9f" stroke="#1d8d9f" stroke-width="1.51"/><path d="M75,735L24,953L160,889Z" fill="#296fa7" stroke="#296fa7" stroke-width="1.51"/><path d="M18,548L-55,660L65,619Z" fill="#1a5cac" stroke="#1a5cac" stroke-width="1.51"/><path d="M-92,344L-54,546L42,386Z" fill="#1b59ad" stroke="#1b59ad" stroke-width="1.51"/><path d="M1191,-121L1324,-172L1053,-137Z" fill="#2859ac" stroke="#2859ac" stroke-width="1.51"/><path d="M946,-157L1324,-172L442,-185Z" fill="#1d4fae" stroke="#1d4fae" stroke-width="1.51"/><path d="M1520,-150L1324,-172L1381,-13Z" fill="#3367a8" stroke="#3367a8" stroke-width="1.51"/><path d="M-54,546L-55,660L18,548Z" fill="#1b5aad" stroke="#1b5aad" stroke-width="1.51"/><path d="M1658,408L1471,330L1550,543Z" fill="#1c8ca0" stroke="#1c8ca0" stroke-width="1.51"/><path d="M120,69L-19,118L69,210Z" fill="#1c56ad" stroke="#1c56ad" stroke-width="1.51"/><path d="M161,21L86,-44L120,69Z" fill="#1d50af" stroke="#1d50af" stroke-width="1.51"/><path d="M173,-160L86,-44L161,21Z" fill="#1d4ab0" stroke="#1d4ab0" stroke-width="1.51"/><path d="M1617,289L1576,125L1479,278Z" fill="#1c8ba0" stroke="#1c8ba0" stroke-width="1.51"/><path d="M1452,14L1520,-150L1381,-13Z" fill="#316ea6" stroke="#316ea6" stroke-width="1.51"/><path d="M-8,271L-92,344L42,386Z" fill="#1b5aad" stroke="#1b5aad" stroke-width="1.51"/><path d="M86,-44L-19,118L120,69Z" fill="#1d4faf" stroke="#1d4faf" stroke-width="1.51"/><path d="M355,-183L173,-160L317,22Z" fill="#1d4eaf" stroke="#1d4eaf" stroke-width="1.51"/><path d="M-156,222L-92,344L-8,271Z" fill="#1c56ad" stroke="#1c56ad" stroke-width="1.51"/><path d="M-238,633L-115,720L-55,660Z" fill="#1e54ae" stroke="#1e54ae" stroke-width="1.51"/><path d="M1312,1067L1489,987L1374,956Z" fill="#1d9d99" stroke="#1d9d99" stroke-width="1.51"/><path d="M1482,901L1663,751L1465,766Z" fill="#1d959c" stroke="#1d959c" stroke-width="1.51"/><path d="M1669,532L1658,408L1550,543Z" fill="#1d8f9e" stroke="#1d8f9e" stroke-width="1.51"/><path d="M1617,289L1665,-23L1576,125Z" fill="#2a86a0" stroke="#2a86a0" stroke-width="1.51"/><path d="M1663,751L1669,532L1594,638Z" fill="#1d909e" stroke="#1d909e" stroke-width="1.51"/><path d="M1594,638L1669,532L1550,543Z" fill="#1d8e9f" stroke="#1d8e9f" stroke-width="1.51"/><path d="M-104,926L24,953L75,735Z" fill="#2d6ba8" stroke="#2d6ba8" stroke-width="1.51"/><path d="M173,-160L48,-101L86,-44Z" fill="#1d44b0" stroke="#1d44b0" stroke-width="1.51"/><path d="M86,-44L-71,7L-19,118Z" fill="#1d49b0" stroke="#1d49b0" stroke-width="1.51"/><path d="M-156,222L-157,428L-92,344Z" fill="#1d53ae" stroke="#1d53ae" stroke-width="1.51"/><path d="M-55,660L-115,720L75,735Z" fill="#205dac" stroke="#205dac" stroke-width="1.51"/><path d="M-238,633L-55,660L-54,546Z" fill="#1c55ad" stroke="#1c55ad" stroke-width="1.51"/><path d="M1648,913L1663,751L1482,901Z" fill="#1d9c99" stroke="#1d9c99" stroke-width="1.51"/><path d="M-92,344L-157,428L-54,546Z" fill="#1c56ad" stroke="#1c56ad" stroke-width="1.51"/><path d="M-156,222L-8,271L-19,118Z" fill="#1c55ad" stroke="#1c55ad" stroke-width="1.51"/><path d="M24,953L52,1071L215,1030Z" fill="#307ca3" stroke="#307ca3" stroke-width="1.51"/><path d="M215,1030L52,1071L481,1085Z" fill="#2988a0" stroke="#2988a0" stroke-width="1.51"/><path d="M-51,978L52,1071L24,953Z" fill="#3375a4" stroke="#3375a4" stroke-width="1.51"/><path d="M1665,-23L1452,14L1576,125Z" fill="#307ba3" stroke="#307ba3" stroke-width="1.51"/><path d="M1665,-23L1520,-150L1452,14Z" fill="#3573a5" stroke="#3573a5" stroke-width="1.51"/><path d="M48,-101L-71,7L86,-44Z" fill="#1d45b1" stroke="#1d45b1" stroke-width="1.51"/><path d="M-71,7L-156,222L-19,118Z" fill="#1d4daf" stroke="#1d4daf" stroke-width="1.51"/><path d="M-104,926L-51,978L24,953Z" fill="#336ea6" stroke="#336ea6" stroke-width="1.51"/><path d="M1489,987L1648,913L1482,901Z" fill="#1c9f98" stroke="#1c9f98" stroke-width="1.51"/><path d="M-153,916L-104,926L-115,720Z" fill="#2f63a9" stroke="#2f63a9" stroke-width="1.51"/><path d="M-115,720L-104,926L75,735Z" fill="#2863aa" stroke="#2863aa" stroke-width="1.51"/><path d="M1669,532L1665,-23L1658,408Z" fill="#1d919d" stroke="#1d919d" stroke-width="1.51"/><path d="M1658,408L1665,-23L1617,289Z" fill="#1e909e" stroke="#1e909e" stroke-width="1.51"/><path d="M-157,428L-235,527L-54,546Z" fill="#1d53ae" stroke="#1d53ae" stroke-width="1.51"/><path d="M-247,177L-235,527L-157,428Z" fill="#1d4fae" stroke="#1d4fae" stroke-width="1.51"/><path d="M-235,527L-238,633L-54,546Z" fill="#1d51ae" stroke="#1d51ae" stroke-width="1.51"/><path d="M1665,-23L1587,-173L1520,-150Z" fill="#3970a5" stroke="#3970a5" stroke-width="1.51"/><path d="M1520,-150L1587,-173L1324,-172Z" fill="#3766a8" stroke="#3766a8" stroke-width="1.51"/><path d="M1324,-172L1587,-173L442,-185Z" fill="#2352ad" stroke="#2352ad" stroke-width="1.51"/><path d="M-104,926L-215,1052L-51,978Z" fill="#376da6" stroke="#376da6" stroke-width="1.51"/><path d="M-51,978L-215,1052L52,1071Z" fill="#3773a5" stroke="#3773a5" stroke-width="1.51"/><path d="M-249,729L-153,916L-115,720Z" fill="#2b5bac" stroke="#2b5bac" stroke-width="1.51"/><path d="M-71,7L-247,177L-156,222Z" fill="#1d4aaf" stroke="#1d4aaf" stroke-width="1.51"/><path d="M-156,222L-247,177L-157,428Z" fill="#1d50ae" stroke="#1d50ae" stroke-width="1.51"/><path d="M-63,-191L-145,-38L-71,7Z" fill="#1b3bb2" stroke="#1b3bb2" stroke-width="1.51"/><path d="M-63,-191L-71,7L48,-101Z" fill="#1b3db2" stroke="#1b3db2" stroke-width="1.51"/><path d="M-238,633L-249,729L-115,720Z" fill="#2152ae" stroke="#2152ae" stroke-width="1.51"/><path d="M-235,527L-249,729L-238,633Z" fill="#1e4daf" stroke="#1e4daf" stroke-width="1.51"/><path d="M-145,-38L-247,177L-71,7Z" fill="#1c42b1" stroke="#1c42b1" stroke-width="1.51"/><path d="M-235,527L-247,177L-249,729Z" fill="#1d4daf" stroke="#1d4daf" stroke-width="1.51"/><path d="M1587,-173L-63,-191L442,-185Z" fill="#1d4eaf" stroke="#1d4eaf" stroke-width="1.51"/><path d="M442,-185L-63,-191L355,-183Z" fill="#1d45b0" stroke="#1d45b0" stroke-width="1.51"/><path d="M355,-183L-63,-191L173,-160Z" fill="#1c40b1" stroke="#1c40b1" stroke-width="1.51"/><path d="M173,-160L-63,-191L48,-101Z" fill="#1b3db2" stroke="#1b3db2" stroke-width="1.51"/><path d="M1489,987L1685,1067L1648,913Z" fill="#19a796" stroke="#19a796" stroke-width="1.51"/><path d="M1648,913L1685,1067L1663,751Z" fill="#1ba496" stroke="#1ba496" stroke-width="1.51"/><path d="M1663,751L1685,1067L1669,532Z" fill="#1d9b9a" stroke="#1d9b9a" stroke-width="1.51"/><path d="M1669,532L1685,1067L1665,-23Z" fill="#1d929d" stroke="#1d929d" stroke-width="1.51"/><path d="M1312,1067L1685,1067L1489,987Z" fill="#1aa596" stroke="#1aa596" stroke-width="1.51"/><path d="M481,1085L1685,1067L1312,1067Z" fill="#1d979c" stroke="#1d979c" stroke-width="1.51"/><path d="M-153,916L-215,1052L-104,926Z" fill="#3669a7" stroke="#3669a7" stroke-width="1.51"/><path d="M-249,729L-215,1052L-153,916Z" fill="#3362a9" stroke="#3362a9" stroke-width="1.51"/><path d="M-63,-191L-218,-164L-145,-38Z" fill="#1732b3" stroke="#1732b3" stroke-width="1.51"/><path d="M-145,-38L-218,-164L-247,177Z" fill="#1a3ab2" stroke="#1a3ab2" stroke-width="1.51"/></svg>