<svg xmlns="http://www.w3.org/2000/svg" width="3200" height="1800"><path d="M1872,1125L2605,1206L2192,700Z" fill="#fefefe" stroke="#fefefe" stroke-width="1.51"/><path d="M1872,1125L2604,1676L2605,1206Z" fill="#fbfbfb" stroke="#fbfbfb" stroke-width="1.51"/><path d="M1872,1125L1883,1887L2604,1676Z" fill="#fafafa" stroke="#fafafa" stroke-width="1.51"/><path d="M2605,1206L2925,236L2192,700Z" fill="#f8f8f8" stroke="#f8f8f8" stroke-width="1.51"/><path d="M3083,294L2925,236L2605,1206Z" fill="#f4f4f4" stroke="#f4f4f4" stroke-width="1.51"/><path d="M1872,1125L1180,1261L1883,1887Z" fill="#fdfdfd" stroke="#fdfdfd" stroke-width="1.51"/><path d="M1250,381L1180,1261L1872,1125Z" fill="#ffffff" stroke="#ffffff" stroke-width="1.51"/><path d="M1250,381L1872,1125L2192,700Z" fill="#ffffff" stroke="#ffffff" stroke-width="1.51"/><path d="M3413,1082L3083,294L2605,1206Z" fill="#f2f2f2" stroke="#f2f2f2" stroke-width="1.51"/><path d="M3449,1689L3413,1082L2605,1206Z" fill="#f0f0f0" stroke="#f0f0f0" stroke-width="1.51"/><path d="M2043,-217L1250,381L2192,700Z" fill="#fbfbfb" stroke="#fbfbfb" stroke-width="1.51"/><path d="M2925,236L2043,-217L2192,700Z" fill="#f6f6f6" stroke="#f6f6f6" stroke-width="1.51"/><path d="M2497,-365L2043,-217L2925,236Z" fill="#eeeeee" stroke="#eeeeee" stroke-width="1.51"/><path d="M2604,1676L3449,1689L2605,1206Z" fill="#f0f0f0" stroke="#f0f0f0" stroke-width="1.51"/><path d="M2895,2577L3449,1689L2604,1676Z" fill="#e5e5e5" stroke="#e5e5e5" stroke-width="1.51"/><path d="M1250,381L864,979L1180,1261Z" fill="#ffffff" stroke="#ffffff" stroke-width="1.51"/><path d="M3096,-210L2497,-365L2925,236Z" fill="#e8e8e8" stroke="#e8e8e8" stroke-width="1.51"/><path d="M1883,1887L1917,2506L2604,1676Z" fill="#f1f1f1" stroke="#f1f1f1" stroke-width="1.51"/><path d="M1032,2206L1917,2506L1883,1887Z" fill="#ededed" stroke="#ededed" stroke-width="1.51"/><path d="M1032,2206L1883,1887L1180,1261Z" fill="#f5f5f5" stroke="#f5f5f5" stroke-width="1.51"/><path d="M2043,-217L1539,-230L1250,381Z" fill="#f5f5f5" stroke="#f5f5f5" stroke-width="1.51"/><path d="M1250,381L308,328L864,979Z" fill="#fbfbfb" stroke="#fbfbfb" stroke-width="1.51"/><path d="M1552,-995L1539,-230L2043,-217Z" fill="#f0f0f0" stroke="#f0f0f0" stroke-width="1.51"/><path d="M4260,189L3096,-210L3083,294Z" fill="#e4e4e4" stroke="#e4e4e4" stroke-width="1.51"/><path d="M3083,294L3096,-210L2925,236Z" fill="#eaeaea" stroke="#eaeaea" stroke-width="1.51"/><path d="M1917,2506L2895,2577L2604,1676Z" fill="#e8e8e8" stroke="#e8e8e8" stroke-width="1.51"/><path d="M348,2212L1032,2206L1180,1261Z" fill="#f0f0f0" stroke="#f0f0f0" stroke-width="1.51"/><path d="M3413,1082L3938,875L3083,294Z" fill="#ececec" stroke="#ececec" stroke-width="1.51"/><path d="M4113,1433L3938,875L3413,1082Z" fill="#eaeaea" stroke="#eaeaea" stroke-width="1.51"/><path d="M3242,-559L2455,-641L2497,-365Z" fill="#e8e8e8" stroke="#e8e8e8" stroke-width="1.51"/><path d="M2497,-365L2455,-641L2043,-217Z" fill="#ececec" stroke="#ececec" stroke-width="1.51"/><path d="M4198,1972L4113,1433L3449,1689Z" fill="#e1e1e1" stroke="#e1e1e1" stroke-width="1.51"/><path d="M3449,1689L4113,1433L3413,1082Z" fill="#e9e9e9" stroke="#e9e9e9" stroke-width="1.51"/><path d="M3096,-210L3242,-559L2497,-365Z" fill="#e2e2e2" stroke="#e2e2e2" stroke-width="1.51"/><path d="M4260,189L3242,-559L3096,-210Z" fill="#dedede" stroke="#dedede" stroke-width="1.51"/><path d="M864,979L348,2212L1180,1261Z" fill="#f8f8f8" stroke="#f8f8f8" stroke-width="1.51"/><path d="M437,-147L308,328L1250,381Z" fill="#f3f3f3" stroke="#f3f3f3" stroke-width="1.51"/><path d="M3986,2567L4198,1972L3449,1689Z" fill="#dadada" stroke="#dadada" stroke-width="1.51"/><path d="M1539,-230L437,-147L1250,381Z" fill="#f5f5f5" stroke="#f5f5f5" stroke-width="1.51"/><path d="M1817,-1084L1552,-995L2043,-217Z" fill="#f6f6f6" stroke="#f6f6f6" stroke-width="1.51"/><path d="M1817,-1084L2043,-217L2455,-641Z" fill="#f3f3f3" stroke="#f3f3f3" stroke-width="1.51"/><path d="M1552,-995L437,-147L1539,-230Z" fill="#f0f0f0" stroke="#f0f0f0" stroke-width="1.51"/><path d="M4198,1972L4260,189L4113,1433Z" fill="#e7e7e7" stroke="#e7e7e7" stroke-width="1.51"/><path d="M4113,1433L4260,189L3938,875Z" fill="#e8e8e8" stroke="#e8e8e8" stroke-width="1.51"/><path d="M3938,875L4260,189L3083,294Z" fill="#eaeaea" stroke="#eaeaea" stroke-width="1.51"/><path d="M1917,2506L3638,2927L2895,2577Z" fill="#dfdfdf" stroke="#dfdfdf" stroke-width="1.51"/><path d="M1032,2206L943,2845L1917,2506Z" fill="#eaeaea" stroke="#eaeaea" stroke-width="1.51"/><path d="M348,2212L943,2845L1032,2206Z" fill="#e7e7e7" stroke="#e7e7e7" stroke-width="1.51"/><path d="M3242,-559L1817,-1084L2455,-641Z" fill="#f1f1f1" stroke="#f1f1f1" stroke-width="1.51"/><path d="M-152,1071L348,2212L864,979Z" fill="#f2f2f2" stroke="#f2f2f2" stroke-width="1.51"/><path d="M3638,2927L3986,2567L2895,2577Z" fill="#d6d6d6" stroke="#d6d6d6" stroke-width="1.51"/><path d="M2895,2577L3986,2567L3449,1689Z" fill="#dbdbdb" stroke="#dbdbdb" stroke-width="1.51"/><path d="M943,2845L3638,2927L1917,2506Z" fill="#e8e8e8" stroke="#e8e8e8" stroke-width="1.51"/><path d="M308,328L-152,1071L864,979Z" fill="#f4f4f4" stroke="#f4f4f4" stroke-width="1.51"/><path d="M-196,811L-152,1071L308,328Z" fill="#efefef" stroke="#efefef" stroke-width="1.51"/><path d="M-400,49L-196,811L308,328Z" fill="#ececec" stroke="#ececec" stroke-width="1.51"/><path d="M348,2212L299,2823L943,2845Z" fill="#e2e2e2" stroke="#e2e2e2" stroke-width="1.51"/><path d="M-103,2246L33,2436L348,2212Z" fill="#dedede" stroke="#dedede" stroke-width="1.51"/><path d="M-103,2246L348,2212L-152,1071Z" fill="#e5e5e5" stroke="#e5e5e5" stroke-width="1.51"/><path d="M33,2436L299,2823L348,2212Z" fill="#dedede" stroke="#dedede" stroke-width="1.51"/><path d="M33,2436L-787,2560L299,2823Z" fill="#d9d9d9" stroke="#d9d9d9" stroke-width="1.51"/><path d="M-560,2165L-103,2246L-152,1071Z" fill="#e6e6e6" stroke="#e6e6e6" stroke-width="1.51"/><path d="M272,-918L437,-147L1552,-995Z" fill="#f0f0f0" stroke="#f0f0f0" stroke-width="1.51"/><path d="M272,-918L133,-527L437,-147Z" fill="#e6e6e6" stroke="#e6e6e6" stroke-width="1.51"/><path d="M437,-147L-400,49L308,328Z" fill="#e9e9e9" stroke="#e9e9e9" stroke-width="1.51"/><path d="M1817,-1084L272,-918L1552,-995Z" fill="#fafafa" stroke="#fafafa" stroke-width="1.51"/><path d="M3242,-559L4244,-919L1817,-1084Z" fill="#e9e9e9" stroke="#e9e9e9" stroke-width="1.51"/><path d="M4260,189L4244,-919L3242,-559Z" fill="#d9d9d9" stroke="#d9d9d9" stroke-width="1.51"/><path d="M-1024,-392L-400,49L-965,-714Z" fill="#e8e8e8" stroke="#e8e8e8" stroke-width="1.51"/><path d="M133,-527L-400,49L437,-147Z" fill="#e2e2e2" stroke="#e2e2e2" stroke-width="1.51"/><path d="M-196,811L-683,816L-152,1071Z" fill="#f2f2f2" stroke="#f2f2f2" stroke-width="1.51"/><path d="M-400,49L-683,816L-196,811Z" fill="#f3f3f3" stroke="#f3f3f3" stroke-width="1.51"/><path d="M-103,2246L-787,2560L33,2436Z" fill="#dddddd" stroke="#dddddd" stroke-width="1.51"/><path d="M-866,1147L-560,2165L-152,1071Z" fill="#f1f1f1" stroke="#f1f1f1" stroke-width="1.51"/><path d="M-1024,-392L-866,1147L-683,816Z" fill="#f9f9f9" stroke="#f9f9f9" stroke-width="1.51"/><path d="M-683,816L-866,1147L-152,1071Z" fill="#f5f5f5" stroke="#f5f5f5" stroke-width="1.51"/><path d="M-866,1147L-787,2560L-560,2165Z" fill="#eaeaea" stroke="#eaeaea" stroke-width="1.51"/><path d="M-560,2165L-787,2560L-103,2246Z" fill="#e1e1e1" stroke="#e1e1e1" stroke-width="1.51"/><path d="M-400,49L-1024,-392L-683,816Z" fill="#f0f0f0" stroke="#f0f0f0" stroke-width="1.51"/><path d="M-866,1147L-1024,-392L-787,2560Z" fill="#fafafa" stroke="#fafafa" stroke-width="1.51"/><path d="M-965,-714L-400,49L133,-527Z" fill="#e2e2e2" stroke="#e2e2e2" stroke-width="1.51"/><path d="M272,-918L-965,-714L133,-527Z" fill="#e5e5e5" stroke="#e5e5e5" stroke-width="1.51"/></svg>