<svg xmlns="http://www.w3.org/2000/svg" width="1440" height="900"><path d="M813,481L873,544L882,434Z" fill="#ff0000" stroke="#ff0000" stroke-width="1.51"/><path d="M873,544L1016,495L882,434Z" fill="#f10001" stroke="#f10001" stroke-width="1.51"/><path d="M761,725L912,600L873,544Z" fill="#e00002" stroke="#e00002" stroke-width="1.51"/><path d="M912,600L1016,495L873,544Z" fill="#ec0001" stroke="#ec0001" stroke-width="1.51"/><path d="M882,434L826,342L813,481Z" fill="#ff0000" stroke="#ff0000" stroke-width="1.51"/><path d="M1029,350L826,342L882,434Z" fill="#f30001" stroke="#f30001" stroke-width="1.51"/><path d="M813,481L703,531L873,544Z" fill="#ff0000" stroke="#ff0000" stroke-width="1.51"/><path d="M615,353L703,531L813,481Z" fill="#ff0000" stroke="#ff0000" stroke-width="1.51"/><path d="M1016,495L1029,350L882,434Z" fill="#e50002" stroke="#e50002" stroke-width="1.51"/><path d="M703,531L761,725L873,544Z" fill="#e90001" stroke="#e90001" stroke-width="1.51"/><path d="M761,725L863,760L912,600Z" fill="#c60003" stroke="#c60003" stroke-width="1.51"/><path d="M912,600L1093,668L1016,495Z" fill="#cc0003" stroke="#cc0003" stroke-width="1.51"/><path d="M703,531L699,711L761,725Z" fill="#d40002" stroke="#d40002" stroke-width="1.51"/><path d="M792,955L932,854L863,760Z" fill="#ee0001" stroke="#ee0001" stroke-width="1.51"/><path d="M826,342L615,353L813,481Z" fill="#ff0000" stroke="#ff0000" stroke-width="1.51"/><path d="M521,682L608,756L699,711Z" fill="#be0003" stroke="#be0003" stroke-width="1.51"/><path d="M863,760L1093,668L912,600Z" fill="#b80003" stroke="#b80003" stroke-width="1.51"/><path d="M1016,495L1162,463L1029,350Z" fill="#d00002" stroke="#d00002" stroke-width="1.51"/><path d="M1093,668L1162,463L1016,495Z" fill="#ca0003" stroke="#ca0003" stroke-width="1.51"/><path d="M826,342L589,255L615,353Z" fill="#f70000" stroke="#f70000" stroke-width="1.51"/><path d="M1029,350L862,184L826,342Z" fill="#e80000" stroke="#e80000" stroke-width="1.51"/><path d="M880,163L862,184L1029,350Z" fill="#da0001" stroke="#da0001" stroke-width="1.51"/><path d="M1129,201L880,163L1029,350Z" fill="#c70002" stroke="#c70002" stroke-width="1.51"/><path d="M862,184L837,151L826,342Z" fill="#e70000" stroke="#e70000" stroke-width="1.51"/><path d="M880,163L837,151L862,184Z" fill="#e10000" stroke="#e10000" stroke-width="1.51"/><path d="M1162,463L1180,334L1029,350Z" fill="#c30003" stroke="#c30003" stroke-width="1.51"/><path d="M615,353L519,478L703,531Z" fill="#ff0000" stroke="#ff0000" stroke-width="1.51"/><path d="M615,353L501,428L519,478Z" fill="#fb0000" stroke="#fb0000" stroke-width="1.51"/><path d="M837,151L589,255L826,342Z" fill="#eb0000" stroke="#eb0000" stroke-width="1.51"/><path d="M863,760L1031,834L1093,668Z" fill="#ac0003" stroke="#ac0003" stroke-width="1.51"/><path d="M792,955L863,760L761,725Z" fill="#df0002" stroke="#df0002" stroke-width="1.51"/><path d="M589,255L501,428L615,353Z" fill="#fb0000" stroke="#fb0000" stroke-width="1.51"/><path d="M1093,668L1184,687L1162,463Z" fill="#a70003" stroke="#a70003" stroke-width="1.51"/><path d="M1162,463L1323,553L1180,334Z" fill="#cc0003" stroke="#cc0003" stroke-width="1.51"/><path d="M1031,834L1184,687L1093,668Z" fill="#8c0002" stroke="#8c0002" stroke-width="1.51"/><path d="M699,711L608,756L761,725Z" fill="#c10003" stroke="#c10003" stroke-width="1.51"/><path d="M521,682L699,711L703,531Z" fill="#d90002" stroke="#d90002" stroke-width="1.51"/><path d="M521,682L703,531L519,478Z" fill="#f60001" stroke="#f60001" stroke-width="1.51"/><path d="M932,854L1031,834L863,760Z" fill="#ce0003" stroke="#ce0003" stroke-width="1.51"/><path d="M1180,334L1129,201L1029,350Z" fill="#ba0003" stroke="#ba0003" stroke-width="1.51"/><path d="M880,163L926,45L837,151Z" fill="#e50000" stroke="#e50000" stroke-width="1.51"/><path d="M419,714L521,682L519,478Z" fill="#d60002" stroke="#d60002" stroke-width="1.51"/><path d="M1129,201L1114,149L880,163Z" fill="#b80002" stroke="#b80002" stroke-width="1.51"/><path d="M1178,189L1114,149L1129,201Z" fill="#a10002" stroke="#a10002" stroke-width="1.51"/><path d="M1180,334L1178,189L1129,201Z" fill="#ab0003" stroke="#ab0003" stroke-width="1.51"/><path d="M1114,149L926,45L880,163Z" fill="#d00002" stroke="#d00002" stroke-width="1.51"/><path d="M512,57L448,220L589,255Z" fill="#d80000" stroke="#d80000" stroke-width="1.51"/><path d="M932,854L974,927L1031,834Z" fill="#da0002" stroke="#da0002" stroke-width="1.51"/><path d="M1031,834L1246,743L1184,687Z" fill="#8b0001" stroke="#8b0001" stroke-width="1.51"/><path d="M792,955L974,927L932,854Z" fill="#f60001" stroke="#f60001" stroke-width="1.51"/><path d="M608,756L792,955L761,725Z" fill="#de0002" stroke="#de0002" stroke-width="1.51"/><path d="M521,682L523,781L608,756Z" fill="#c10003" stroke="#c10003" stroke-width="1.51"/><path d="M419,714L523,781L521,682Z" fill="#b60003" stroke="#b60003" stroke-width="1.51"/><path d="M1184,687L1323,553L1162,463Z" fill="#c30003" stroke="#c30003" stroke-width="1.51"/><path d="M1180,334L1424,298L1178,189Z" fill="#c60002" stroke="#c60002" stroke-width="1.51"/><path d="M1239,911L1246,743L1031,834Z" fill="#a80003" stroke="#a80003" stroke-width="1.51"/><path d="M1246,743L1323,553L1184,687Z" fill="#a80003" stroke="#a80003" stroke-width="1.51"/><path d="M974,927L1062,910L1031,834Z" fill="#d70002" stroke="#d70002" stroke-width="1.51"/><path d="M660,985L792,955L608,756Z" fill="#fe0000" stroke="#fe0000" stroke-width="1.51"/><path d="M589,255L448,220L501,428Z" fill="#ed0000" stroke="#ed0000" stroke-width="1.51"/><path d="M313,479L419,714L519,478Z" fill="#e60000" stroke="#e60000" stroke-width="1.51"/><path d="M698,19L589,255L837,151Z" fill="#e50000" stroke="#e50000" stroke-width="1.51"/><path d="M926,45L698,19L837,151Z" fill="#f20000" stroke="#f20000" stroke-width="1.51"/><path d="M523,781L535,882L608,756Z" fill="#da0002" stroke="#da0002" stroke-width="1.51"/><path d="M313,479L519,478L501,428Z" fill="#f00000" stroke="#f00000" stroke-width="1.51"/><path d="M350,884L535,882L523,781Z" fill="#e00001" stroke="#e00001" stroke-width="1.51"/><path d="M918,1162L1035,1081L974,927Z" fill="#e50002" stroke="#e50002" stroke-width="1.51"/><path d="M535,882L660,985L608,756Z" fill="#f50001" stroke="#f50001" stroke-width="1.51"/><path d="M1114,149L1081,-48L926,45Z" fill="#ce0002" stroke="#ce0002" stroke-width="1.51"/><path d="M761,-141L662,-34L698,19Z" fill="#ff0000" stroke="#ff0000" stroke-width="1.51"/><path d="M1178,189L1211,72L1114,149Z" fill="#a90002" stroke="#a90002" stroke-width="1.51"/><path d="M1328,114L1211,72L1178,189Z" fill="#bb0002" stroke="#bb0002" stroke-width="1.51"/><path d="M308,418L313,479L501,428Z" fill="#e80000" stroke="#e80000" stroke-width="1.51"/><path d="M448,220L308,418L501,428Z" fill="#ec0000" stroke="#ec0000" stroke-width="1.51"/><path d="M698,19L512,57L589,255Z" fill="#eb0000" stroke="#eb0000" stroke-width="1.51"/><path d="M698,19L662,-34L512,57Z" fill="#fc0000" stroke="#fc0000" stroke-width="1.51"/><path d="M833,-88L698,19L926,45Z" fill="#ff0000" stroke="#ff0000" stroke-width="1.51"/><path d="M1444,580L1437,428L1323,553Z" fill="#f60001" stroke="#f60001" stroke-width="1.51"/><path d="M1062,910L1239,911L1031,834Z" fill="#c10003" stroke="#c10003" stroke-width="1.51"/><path d="M1271,1036L1239,911L1062,910Z" fill="#c50003" stroke="#c50003" stroke-width="1.51"/><path d="M1035,1081L1062,910L974,927Z" fill="#da0002" stroke="#da0002" stroke-width="1.51"/><path d="M236,355L308,418L448,220Z" fill="#de0000" stroke="#de0000" stroke-width="1.51"/><path d="M391,160L395,180L448,220Z" fill="#cd0000" stroke="#cd0000" stroke-width="1.51"/><path d="M1323,553L1437,428L1180,334Z" fill="#e20002" stroke="#e20002" stroke-width="1.51"/><path d="M1392,732L1323,553L1246,743Z" fill="#b20003" stroke="#b20003" stroke-width="1.51"/><path d="M1211,72L1081,-48L1114,149Z" fill="#b70003" stroke="#b70003" stroke-width="1.51"/><path d="M958,-91L833,-88L926,45Z" fill="#f50001" stroke="#f50001" stroke-width="1.51"/><path d="M1377,805L1392,732L1246,743Z" fill="#b50003" stroke="#b50003" stroke-width="1.51"/><path d="M512,57L391,160L448,220Z" fill="#d70000" stroke="#d70000" stroke-width="1.51"/><path d="M395,180L236,355L448,220Z" fill="#d30000" stroke="#d30000" stroke-width="1.51"/><path d="M1392,732L1444,580L1323,553Z" fill="#d40002" stroke="#d40002" stroke-width="1.51"/><path d="M1081,-48L958,-91L926,45Z" fill="#e20002" stroke="#e20002" stroke-width="1.51"/><path d="M1437,428L1424,298L1180,334Z" fill="#e80001" stroke="#e80001" stroke-width="1.51"/><path d="M1211,72L1264,-58L1081,-48Z" fill="#c40003" stroke="#c40003" stroke-width="1.51"/><path d="M1424,298L1328,114L1178,189Z" fill="#c40001" stroke="#c40001" stroke-width="1.51"/><path d="M660,985L718,1065L792,955Z" fill="#ff0000" stroke="#ff0000" stroke-width="1.51"/><path d="M458,1131L718,1065L660,985Z" fill="#ff0000" stroke="#ff0000" stroke-width="1.51"/><path d="M1239,911L1377,805L1246,743Z" fill="#be0003" stroke="#be0003" stroke-width="1.51"/><path d="M1392,732L1527,640L1444,580Z" fill="#d60002" stroke="#d60002" stroke-width="1.51"/><path d="M822,1130L974,927L792,955Z" fill="#ff0000" stroke="#ff0000" stroke-width="1.51"/><path d="M1239,911L1419,953L1377,805Z" fill="#e50001" stroke="#e50001" stroke-width="1.51"/><path d="M833,-88L761,-141L698,19Z" fill="#ff0000" stroke="#ff0000" stroke-width="1.51"/><path d="M662,-34L455,-29L512,57Z" fill="#fb0000" stroke="#fb0000" stroke-width="1.51"/><path d="M985,-183L761,-141L833,-88Z" fill="#ff0000" stroke="#ff0000" stroke-width="1.51"/><path d="M718,1065L822,1130L792,955Z" fill="#ff0000" stroke="#ff0000" stroke-width="1.51"/><path d="M308,418L236,355L313,479Z" fill="#df0000" stroke="#df0000" stroke-width="1.51"/><path d="M292,804L350,884L419,714Z" fill="#c10002" stroke="#c10002" stroke-width="1.51"/><path d="M174,305L236,355L395,180Z" fill="#d20000" stroke="#d20000" stroke-width="1.51"/><path d="M535,882L458,1131L660,985Z" fill="#fc0000" stroke="#fc0000" stroke-width="1.51"/><path d="M718,1065L458,1131L822,1130Z" fill="#ff0000" stroke="#ff0000" stroke-width="1.51"/><path d="M419,714L350,884L523,781Z" fill="#c70002" stroke="#c70002" stroke-width="1.51"/><path d="M292,804L419,714L200,597Z" fill="#a50002" stroke="#a50002" stroke-width="1.51"/><path d="M204,579L419,714L313,479Z" fill="#ce0001" stroke="#ce0001" stroke-width="1.51"/><path d="M161,103L174,305L395,180Z" fill="#c70000" stroke="#c70000" stroke-width="1.51"/><path d="M512,57L387,-16L391,160Z" fill="#e20000" stroke="#e20000" stroke-width="1.51"/><path d="M544,-205L455,-29L662,-34Z" fill="#fc0000" stroke="#fc0000" stroke-width="1.51"/><path d="M236,355L204,579L313,479Z" fill="#e30000" stroke="#e30000" stroke-width="1.51"/><path d="M1328,114L1264,-58L1211,72Z" fill="#d00002" stroke="#d00002" stroke-width="1.51"/><path d="M1081,-48L985,-183L958,-91Z" fill="#de0002" stroke="#de0002" stroke-width="1.51"/><path d="M958,-91L985,-183L833,-88Z" fill="#f00001" stroke="#f00001" stroke-width="1.51"/><path d="M1300,-92L1264,-58L1328,114Z" fill="#de0002" stroke="#de0002" stroke-width="1.51"/><path d="M822,1130L918,1162L974,927Z" fill="#f50001" stroke="#f50001" stroke-width="1.51"/><path d="M1476,830L1527,640L1392,732Z" fill="#c20003" stroke="#c20003" stroke-width="1.51"/><path d="M1444,580L1561,424L1437,428Z" fill="#ff0000" stroke="#ff0000" stroke-width="1.51"/><path d="M1437,428L1561,424L1424,298Z" fill="#ff0000" stroke="#ff0000" stroke-width="1.51"/><path d="M204,579L200,597L419,714Z" fill="#bf0002" stroke="#bf0002" stroke-width="1.51"/><path d="M22,578L200,597L204,579Z" fill="#df0001" stroke="#df0001" stroke-width="1.51"/><path d="M1377,805L1476,830L1392,732Z" fill="#d00002" stroke="#d00002" stroke-width="1.51"/><path d="M1035,1081L1271,1036L1062,910Z" fill="#c30003" stroke="#c30003" stroke-width="1.51"/><path d="M1329,1113L1271,1036L1035,1081Z" fill="#ca0003" stroke="#ca0003" stroke-width="1.51"/><path d="M1140,-193L985,-183L1081,-48Z" fill="#d00002" stroke="#d00002" stroke-width="1.51"/><path d="M1424,298L1554,136L1328,114Z" fill="#de0000" stroke="#de0000" stroke-width="1.51"/><path d="M1527,640L1561,424L1444,580Z" fill="#fc0000" stroke="#fc0000" stroke-width="1.51"/><path d="M1464,912L1476,830L1377,805Z" fill="#ec0001" stroke="#ec0001" stroke-width="1.51"/><path d="M455,-29L387,-16L512,57Z" fill="#f00000" stroke="#f00000" stroke-width="1.51"/><path d="M415,-185L387,-16L455,-29Z" fill="#ed0000" stroke="#ed0000" stroke-width="1.51"/><path d="M236,355L72,381L204,579Z" fill="#ec0000" stroke="#ec0000" stroke-width="1.51"/><path d="M161,103L395,180L391,160Z" fill="#c70000" stroke="#c70000" stroke-width="1.51"/><path d="M1271,1036L1419,953L1239,911Z" fill="#e10002" stroke="#e10002" stroke-width="1.51"/><path d="M1264,-58L1140,-193L1081,-48Z" fill="#bf0003" stroke="#bf0003" stroke-width="1.51"/><path d="M1526,-65L1300,-92L1328,114Z" fill="#f20001" stroke="#f20001" stroke-width="1.51"/><path d="M1419,953L1464,912L1377,805Z" fill="#f60001" stroke="#f60001" stroke-width="1.51"/><path d="M1476,830L1585,661L1527,640Z" fill="#c00003" stroke="#c00003" stroke-width="1.51"/><path d="M1271,-186L1140,-193L1264,-58Z" fill="#cd0003" stroke="#cd0003" stroke-width="1.51"/><path d="M1527,640L1710,556L1561,424Z" fill="#ff0000" stroke="#ff0000" stroke-width="1.51"/><path d="M1675,814L1585,661L1476,830Z" fill="#ce0002" stroke="#ce0002" stroke-width="1.51"/><path d="M200,597L190,809L292,804Z" fill="#aa0002" stroke="#aa0002" stroke-width="1.51"/><path d="M292,804L257,940L350,884Z" fill="#d70000" stroke="#d70000" stroke-width="1.51"/><path d="M350,884L458,1131L535,882Z" fill="#f00000" stroke="#f00000" stroke-width="1.51"/><path d="M99,728L190,809L200,597Z" fill="#ae0003" stroke="#ae0003" stroke-width="1.51"/><path d="M761,-141L576,-212L662,-34Z" fill="#ff0000" stroke="#ff0000" stroke-width="1.51"/><path d="M985,-183L576,-212L761,-141Z" fill="#ff0000" stroke="#ff0000" stroke-width="1.51"/><path d="M1377,-246L576,-212L985,-183Z" fill="#e40002" stroke="#e40002" stroke-width="1.51"/><path d="M190,809L257,940L292,804Z" fill="#d10001" stroke="#d10001" stroke-width="1.51"/><path d="M1620,291L1577,211L1424,298Z" fill="#ee0000" stroke="#ee0000" stroke-width="1.51"/><path d="M1620,291L1424,298L1561,424Z" fill="#fb0000" stroke="#fb0000" stroke-width="1.51"/><path d="M302,1076L458,1131L350,884Z" fill="#e80000" stroke="#e80000" stroke-width="1.51"/><path d="M822,1130L458,1131L918,1162Z" fill="#ff0000" stroke="#ff0000" stroke-width="1.51"/><path d="M1710,556L1628,407L1561,424Z" fill="#ff0000" stroke="#ff0000" stroke-width="1.51"/><path d="M576,-212L544,-205L662,-34Z" fill="#ff0000" stroke="#ff0000" stroke-width="1.51"/><path d="M1577,211L1554,136L1424,298Z" fill="#e50000" stroke="#e50000" stroke-width="1.51"/><path d="M918,1162L1329,1113L1035,1081Z" fill="#ca0003" stroke="#ca0003" stroke-width="1.51"/><path d="M1271,1036L1329,1113L1419,953Z" fill="#e80001" stroke="#e80001" stroke-width="1.51"/><path d="M1560,1088L1636,961L1464,912Z" fill="#ff0000" stroke="#ff0000" stroke-width="1.51"/><path d="M1577,211L1606,50L1554,136Z" fill="#e70000" stroke="#e70000" stroke-width="1.51"/><path d="M1628,407L1620,291L1561,424Z" fill="#ff0000" stroke="#ff0000" stroke-width="1.51"/><path d="M1377,-246L1271,-186L1300,-92Z" fill="#e20002" stroke="#e20002" stroke-width="1.51"/><path d="M1300,-92L1271,-186L1264,-58Z" fill="#d90002" stroke="#d90002" stroke-width="1.51"/><path d="M174,305L72,381L236,355Z" fill="#ea0000" stroke="#ea0000" stroke-width="1.51"/><path d="M46,305L72,381L174,305Z" fill="#ee0000" stroke="#ee0000" stroke-width="1.51"/><path d="M387,-16L161,103L391,160Z" fill="#d20000" stroke="#d20000" stroke-width="1.51"/><path d="M182,-41L161,103L387,-16Z" fill="#e10000" stroke="#e10000" stroke-width="1.51"/><path d="M190,809L58,914L257,940Z" fill="#e70000" stroke="#e70000" stroke-width="1.51"/><path d="M22,578L99,728L200,597Z" fill="#d00002" stroke="#d00002" stroke-width="1.51"/><path d="M99,728L109,760L190,809Z" fill="#bf0002" stroke="#bf0002" stroke-width="1.51"/><path d="M246,-220L415,-185L544,-205Z" fill="#eb0000" stroke="#eb0000" stroke-width="1.51"/><path d="M544,-205L415,-185L455,-29Z" fill="#f30000" stroke="#f30000" stroke-width="1.51"/><path d="M273,1052L302,1076L350,884Z" fill="#e10000" stroke="#e10000" stroke-width="1.51"/><path d="M273,1052L350,884L257,940Z" fill="#df0000" stroke="#df0000" stroke-width="1.51"/><path d="M58,914L273,1052L257,940Z" fill="#e90000" stroke="#e90000" stroke-width="1.51"/><path d="M72,381L22,578L204,579Z" fill="#f40000" stroke="#f40000" stroke-width="1.51"/><path d="M161,103L46,305L174,305Z" fill="#da0000" stroke="#da0000" stroke-width="1.51"/><path d="M1585,661L1710,556L1527,640Z" fill="#e20002" stroke="#e20002" stroke-width="1.51"/><path d="M1628,407L1710,556L1620,291Z" fill="#ff0000" stroke="#ff0000" stroke-width="1.51"/><path d="M1675,814L1710,556L1585,661Z" fill="#cc0003" stroke="#cc0003" stroke-width="1.51"/><path d="M1675,814L1476,830L1636,961Z" fill="#f30001" stroke="#f30001" stroke-width="1.51"/><path d="M-24,477L22,578L72,381Z" fill="#fc0000" stroke="#fc0000" stroke-width="1.51"/><path d="M-55,746L58,914L109,760Z" fill="#d90002" stroke="#d90002" stroke-width="1.51"/><path d="M1554,136L1526,-65L1328,114Z" fill="#f40000" stroke="#f40000" stroke-width="1.51"/><path d="M1620,291L1606,50L1577,211Z" fill="#df0000" stroke="#df0000" stroke-width="1.51"/><path d="M1676,-207L1606,50L1620,291Z" fill="#f70000" stroke="#f70000" stroke-width="1.51"/><path d="M1606,50L1526,-65L1554,136Z" fill="#f70000" stroke="#f70000" stroke-width="1.51"/><path d="M161,103L61,59L46,305Z" fill="#d90000" stroke="#d90000" stroke-width="1.51"/><path d="M246,-220L182,-41L387,-16Z" fill="#e10000" stroke="#e10000" stroke-width="1.51"/><path d="M1636,961L1476,830L1464,912Z" fill="#ff0000" stroke="#ff0000" stroke-width="1.51"/><path d="M1526,-65L1450,-164L1300,-92Z" fill="#fb0000" stroke="#fb0000" stroke-width="1.51"/><path d="M1526,-65L1676,-207L1450,-164Z" fill="#ff0000" stroke="#ff0000" stroke-width="1.51"/><path d="M1606,50L1591,-16L1526,-65Z" fill="#ff0000" stroke="#ff0000" stroke-width="1.51"/><path d="M-44,402L-24,477L72,381Z" fill="#ff0000" stroke="#ff0000" stroke-width="1.51"/><path d="M-44,402L72,381L46,305Z" fill="#fc0000" stroke="#fc0000" stroke-width="1.51"/><path d="M1676,-207L1377,-246L1450,-164Z" fill="#ff0000" stroke="#ff0000" stroke-width="1.51"/><path d="M1450,-164L1377,-246L1300,-92Z" fill="#f00001" stroke="#f00001" stroke-width="1.51"/><path d="M1271,-186L1377,-246L1140,-193Z" fill="#d60002" stroke="#d60002" stroke-width="1.51"/><path d="M1140,-193L1377,-246L985,-183Z" fill="#c00003" stroke="#c00003" stroke-width="1.51"/><path d="M1560,1088L1464,912L1419,953Z" fill="#ff0000" stroke="#ff0000" stroke-width="1.51"/><path d="M182,-41L61,59L161,103Z" fill="#e80000" stroke="#e80000" stroke-width="1.51"/><path d="M1329,1113L1560,1088L1419,953Z" fill="#fe0000" stroke="#fe0000" stroke-width="1.51"/><path d="M1692,1158L1560,1088L1329,1113Z" fill="#ff0000" stroke="#ff0000" stroke-width="1.51"/><path d="M273,1052L54,1161L302,1076Z" fill="#e70000" stroke="#e70000" stroke-width="1.51"/><path d="M109,760L58,914L190,809Z" fill="#d70002" stroke="#d70002" stroke-width="1.51"/><path d="M-55,746L109,760L99,728Z" fill="#c00003" stroke="#c00003" stroke-width="1.51"/><path d="M-55,746L99,728L22,578Z" fill="#c70002" stroke="#c70002" stroke-width="1.51"/><path d="M-119,731L-55,746L22,578Z" fill="#c90002" stroke="#c90002" stroke-width="1.51"/><path d="M-71,252L-44,402L46,305Z" fill="#f70000" stroke="#f70000" stroke-width="1.51"/><path d="M22,-269L246,-220L576,-212Z" fill="#df0000" stroke="#df0000" stroke-width="1.51"/><path d="M576,-212L246,-220L544,-205Z" fill="#f10000" stroke="#f10000" stroke-width="1.51"/><path d="M415,-185L246,-220L387,-16Z" fill="#e50000" stroke="#e50000" stroke-width="1.51"/><path d="M182,-41L76,-101L61,59Z" fill="#f30000" stroke="#f30000" stroke-width="1.51"/><path d="M-119,731L22,578L-237,539Z" fill="#e30002" stroke="#e30002" stroke-width="1.51"/><path d="M-237,539L22,578L-24,477Z" fill="#ff0000" stroke="#ff0000" stroke-width="1.51"/><path d="M61,59L-71,252L46,305Z" fill="#e20000" stroke="#e20000" stroke-width="1.51"/><path d="M-101,107L-71,252L61,59Z" fill="#e60000" stroke="#e60000" stroke-width="1.51"/><path d="M246,-220L76,-101L182,-41Z" fill="#ec0000" stroke="#ec0000" stroke-width="1.51"/><path d="M-161,911L-92,1019L58,914Z" fill="#ff0000" stroke="#ff0000" stroke-width="1.51"/><path d="M-237,539L-24,477L-44,402Z" fill="#ff0000" stroke="#ff0000" stroke-width="1.51"/><path d="M-54,-198L-8,-57L76,-101Z" fill="#fe0000" stroke="#fe0000" stroke-width="1.51"/><path d="M76,-101L-8,-57L61,59Z" fill="#fa0000" stroke="#fa0000" stroke-width="1.51"/><path d="M-71,252L-170,278L-44,402Z" fill="#f60000" stroke="#f60000" stroke-width="1.51"/><path d="M-8,-57L-101,107L61,59Z" fill="#f80000" stroke="#f80000" stroke-width="1.51"/><path d="M58,914L54,1161L273,1052Z" fill="#f00000" stroke="#f00000" stroke-width="1.51"/><path d="M302,1076L54,1161L458,1131Z" fill="#e10000" stroke="#e10000" stroke-width="1.51"/><path d="M458,1131L54,1161L918,1162Z" fill="#f40000" stroke="#f40000" stroke-width="1.51"/><path d="M-92,1019L54,1161L58,914Z" fill="#fe0000" stroke="#fe0000" stroke-width="1.51"/><path d="M-101,107L-170,278L-71,252Z" fill="#e40000" stroke="#e40000" stroke-width="1.51"/><path d="M1560,1088L1692,1158L1636,961Z" fill="#ff0000" stroke="#ff0000" stroke-width="1.51"/><path d="M1636,961L1692,1158L1675,814Z" fill="#ff0000" stroke="#ff0000" stroke-width="1.51"/><path d="M1675,814L1692,1158L1710,556Z" fill="#e90001" stroke="#e90001" stroke-width="1.51"/><path d="M918,1162L1692,1158L1329,1113Z" fill="#e10002" stroke="#e10002" stroke-width="1.51"/><path d="M1710,556L1676,-207L1620,291Z" fill="#e50000" stroke="#e50000" stroke-width="1.51"/><path d="M1606,50L1676,-207L1591,-16Z" fill="#ff0000" stroke="#ff0000" stroke-width="1.51"/><path d="M1591,-16L1676,-207L1526,-65Z" fill="#ff0000" stroke="#ff0000" stroke-width="1.51"/><path d="M-161,911L-55,746L-196,843Z" fill="#e60001" stroke="#e60001" stroke-width="1.51"/><path d="M-161,911L58,914L-55,746Z" fill="#ef0001" stroke="#ef0001" stroke-width="1.51"/><path d="M-236,336L-237,539L-44,402Z" fill="#ff0000" stroke="#ff0000" stroke-width="1.51"/><path d="M-196,843L-55,746L-119,731Z" fill="#d00002" stroke="#d00002" stroke-width="1.51"/><path d="M-170,278L-236,336L-44,402Z" fill="#fb0000" stroke="#fb0000" stroke-width="1.51"/><path d="M-202,106L-236,336L-170,278Z" fill="#e90000" stroke="#e90000" stroke-width="1.51"/><path d="M-202,106L-170,278L-101,107Z" fill="#e20000" stroke="#e20000" stroke-width="1.51"/><path d="M-246,665L-196,843L-119,731Z" fill="#c70003" stroke="#c70003" stroke-width="1.51"/><path d="M-237,539L-246,665L-119,731Z" fill="#d80002" stroke="#d80002" stroke-width="1.51"/><path d="M-236,336L-246,665L-237,539Z" fill="#ff0000" stroke="#ff0000" stroke-width="1.51"/><path d="M-248,17L-202,106L-101,107Z" fill="#f10000" stroke="#f10000" stroke-width="1.51"/><path d="M246,-220L22,-269L76,-101Z" fill="#f20000" stroke="#f20000" stroke-width="1.51"/><path d="M1377,-246L22,-269L576,-212Z" fill="#ff0000" stroke="#ff0000" stroke-width="1.51"/><path d="M-248,17L-101,107L-8,-57Z" fill="#fb0000" stroke="#fb0000" stroke-width="1.51"/><path d="M22,-269L-54,-198L76,-101Z" fill="#fd0000" stroke="#fd0000" stroke-width="1.51"/><path d="M-92,1019L-136,1111L54,1161Z" fill="#ff0000" stroke="#ff0000" stroke-width="1.51"/><path d="M-161,911L-150,1026L-92,1019Z" fill="#ff0000" stroke="#ff0000" stroke-width="1.51"/><path d="M-196,843L-150,1026L-161,911Z" fill="#ff0000" stroke="#ff0000" stroke-width="1.51"/><path d="M-136,1111L-150,1026L-196,843Z" fill="#ff0000" stroke="#ff0000" stroke-width="1.51"/><path d="M-150,1026L-136,1111L-92,1019Z" fill="#ff0000" stroke="#ff0000" stroke-width="1.51"/><path d="M-246,665L-136,1111L-196,843Z" fill="#f50001" stroke="#f50001" stroke-width="1.51"/><path d="M-202,106L-248,17L-236,336Z" fill="#e30000" stroke="#e30000" stroke-width="1.51"/><path d="M-236,336L-248,17L-246,665Z" fill="#fb0000" stroke="#fb0000" stroke-width="1.51"/><path d="M-54,-198L-248,17L-8,-57Z" fill="#ff0000" stroke="#ff0000" stroke-width="1.51"/><path d="M-54,-198L-162,-267L-248,17Z" fill="#ff0000" stroke="#ff0000" stroke-width="1.51"/><path d="M22,-269L-162,-267L-54,-198Z" fill="#ff0000" stroke="#ff0000" stroke-width="1.51"/></svg>