<svg xmlns="http://www.w3.org/2000/svg" width="1440" height="900"><path d="M813,481L873,544L882,434Z" fill="#ff9933" stroke="#ff9933" stroke-width="1.51"/><path d="M873,544L1016,495L882,434Z" fill="#ff9331" stroke="#ff9331" stroke-width="1.51"/><path d="M761,725L912,600L873,544Z" fill="#ff8b30" stroke="#ff8b30" stroke-width="1.51"/><path d="M912,600L1016,495L873,544Z" fill="#ff9131" stroke="#ff9131" stroke-width="1.51"/><path d="M882,434L826,342L813,481Z" fill="#ff9933" stroke="#ff9933" stroke-width="1.51"/><path d="M1029,350L826,342L882,434Z" fill="#ff9432" stroke="#ff9432" stroke-width="1.51"/><path d="M813,481L703,531L873,544Z" fill="#ff9933" stroke="#ff9933" stroke-width="1.51"/><path d="M615,353L703,531L813,481Z" fill="#ff9933" stroke="#ff9933" stroke-width="1.51"/><path d="M1016,495L1029,350L882,434Z" fill="#ff8d30" stroke="#ff8d30" stroke-width="1.51"/><path d="M703,531L761,725L873,544Z" fill="#ff8f30" stroke="#ff8f30" stroke-width="1.51"/><path d="M761,725L863,760L912,600Z" fill="#ff7e2d" stroke="#ff7e2d" stroke-width="1.51"/><path d="M912,600L1093,668L1016,495Z" fill="#ff812d" stroke="#ff812d" stroke-width="1.51"/><path d="M703,531L699,711L761,725Z" fill="#ff852e" stroke="#ff852e" stroke-width="1.51"/><path d="M792,955L932,854L863,760Z" fill="#ff9231" stroke="#ff9231" stroke-width="1.51"/><path d="M826,342L615,353L813,481Z" fill="#ff9933" stroke="#ff9933" stroke-width="1.51"/><path d="M521,682L608,756L699,711Z" fill="#ff7a2c" stroke="#ff7a2c" stroke-width="1.51"/><path d="M863,760L1093,668L912,600Z" fill="#ff772c" stroke="#ff772c" stroke-width="1.51"/><path d="M1016,495L1162,463L1029,350Z" fill="#ff832e" stroke="#ff832e" stroke-width="1.51"/><path d="M1093,668L1162,463L1016,495Z" fill="#ff802e" stroke="#ff802e" stroke-width="1.51"/><path d="M826,342L589,255L615,353Z" fill="#ff9231" stroke="#ff9231" stroke-width="1.51"/><path d="M1029,350L862,184L826,342Z" fill="#ff892f" stroke="#ff892f" stroke-width="1.51"/><path d="M880,163L862,184L1029,350Z" fill="#ff7c2c" stroke="#ff7c2c" stroke-width="1.51"/><path d="M1129,201L880,163L1029,350Z" fill="#ff732b" stroke="#ff732b" stroke-width="1.51"/><path d="M862,184L837,151L826,342Z" fill="#ff812e" stroke="#ff812e" stroke-width="1.51"/><path d="M880,163L837,151L862,184Z" fill="#ff7c2d" stroke="#ff7c2d" stroke-width="1.51"/><path d="M1162,463L1180,334L1029,350Z" fill="#ff7c2d" stroke="#ff7c2d" stroke-width="1.51"/><path d="M615,353L519,478L703,531Z" fill="#ff9933" stroke="#ff9933" stroke-width="1.51"/><path d="M615,353L501,428L519,478Z" fill="#ff9632" stroke="#ff9632" stroke-width="1.51"/><path d="M837,151L589,255L826,342Z" fill="#ff862f" stroke="#ff862f" stroke-width="1.51"/><path d="M863,760L1031,834L1093,668Z" fill="#ff702a" stroke="#ff702a" stroke-width="1.51"/><path d="M792,955L863,760L761,725Z" fill="#ff8a2f" stroke="#ff8a2f" stroke-width="1.51"/><path d="M589,255L501,428L615,353Z" fill="#ff9632" stroke="#ff9632" stroke-width="1.51"/><path d="M1093,668L1184,687L1162,463Z" fill="#ff6d2a" stroke="#ff6d2a" stroke-width="1.51"/><path d="M1162,463L1323,553L1180,334Z" fill="#ff812e" stroke="#ff812e" stroke-width="1.51"/><path d="M1031,834L1184,687L1093,668Z" fill="#ff5d27" stroke="#ff5d27" stroke-width="1.51"/><path d="M699,711L608,756L761,725Z" fill="#ff7b2d" stroke="#ff7b2d" stroke-width="1.51"/><path d="M521,682L699,711L703,531Z" fill="#ff882f" stroke="#ff882f" stroke-width="1.51"/><path d="M521,682L703,531L519,478Z" fill="#ff9532" stroke="#ff9532" stroke-width="1.51"/><path d="M932,854L1031,834L863,760Z" fill="#ff822e" stroke="#ff822e" stroke-width="1.51"/><path d="M1180,334L1129,201L1029,350Z" fill="#ff712b" stroke="#ff712b" stroke-width="1.51"/><path d="M880,163L926,45L837,151Z" fill="#ff822e" stroke="#ff822e" stroke-width="1.51"/><path d="M419,714L521,682L519,478Z" fill="#ff812e" stroke="#ff812e" stroke-width="1.51"/><path d="M1129,201L1114,149L880,163Z" fill="#ff6529" stroke="#ff6529" stroke-width="1.51"/><path d="M1178,189L1114,149L1129,201Z" fill="#ff5526" stroke="#ff5526" stroke-width="1.51"/><path d="M1180,334L1178,189L1129,201Z" fill="#ff6328" stroke="#ff6328" stroke-width="1.51"/><path d="M1114,149L926,45L880,163Z" fill="#ff782c" stroke="#ff782c" stroke-width="1.51"/><path d="M512,57L448,220L589,255Z" fill="#ff722b" stroke="#ff722b" stroke-width="1.51"/><path d="M932,854L974,927L1031,834Z" fill="#ff882f" stroke="#ff882f" stroke-width="1.51"/><path d="M1031,834L1246,743L1184,687Z" fill="#ff5c27" stroke="#ff5c27" stroke-width="1.51"/><path d="M792,955L974,927L932,854Z" fill="#ff9532" stroke="#ff9532" stroke-width="1.51"/><path d="M608,756L792,955L761,725Z" fill="#ff8a2f" stroke="#ff8a2f" stroke-width="1.51"/><path d="M521,682L523,781L608,756Z" fill="#ff7a2c" stroke="#ff7a2c" stroke-width="1.51"/><path d="M419,714L523,781L521,682Z" fill="#ff702a" stroke="#ff702a" stroke-width="1.51"/><path d="M1184,687L1323,553L1162,463Z" fill="#ff7c2d" stroke="#ff7c2d" stroke-width="1.51"/><path d="M1180,334L1424,298L1178,189Z" fill="#ff762b" stroke="#ff762b" stroke-width="1.51"/><path d="M1239,911L1246,743L1031,834Z" fill="#ff6e2a" stroke="#ff6e2a" stroke-width="1.51"/><path d="M1246,743L1323,553L1184,687Z" fill="#ff6e2a" stroke="#ff6e2a" stroke-width="1.51"/><path d="M974,927L1062,910L1031,834Z" fill="#ff862e" stroke="#ff862e" stroke-width="1.51"/><path d="M660,985L792,955L608,756Z" fill="#ff9933" stroke="#ff9933" stroke-width="1.51"/><path d="M589,255L448,220L501,428Z" fill="#ff882f" stroke="#ff882f" stroke-width="1.51"/><path d="M313,479L419,714L519,478Z" fill="#ff842e" stroke="#ff842e" stroke-width="1.51"/><path d="M698,19L589,255L837,151Z" fill="#ff802e" stroke="#ff802e" stroke-width="1.51"/><path d="M926,45L698,19L837,151Z" fill="#ff8d30" stroke="#ff8d30" stroke-width="1.51"/><path d="M523,781L535,882L608,756Z" fill="#ff872f" stroke="#ff872f" stroke-width="1.51"/><path d="M313,479L519,478L501,428Z" fill="#ff8b30" stroke="#ff8b30" stroke-width="1.51"/><path d="M350,884L535,882L523,781Z" fill="#ff852e" stroke="#ff852e" stroke-width="1.51"/><path d="M918,1162L1035,1081L974,927Z" fill="#ff8d30" stroke="#ff8d30" stroke-width="1.51"/><path d="M535,882L660,985L608,756Z" fill="#ff9532" stroke="#ff9532" stroke-width="1.51"/><path d="M1114,149L1081,-48L926,45Z" fill="#ff7d2d" stroke="#ff7d2d" stroke-width="1.51"/><path d="M761,-141L662,-34L698,19Z" fill="#ff9933" stroke="#ff9933" stroke-width="1.51"/><path d="M1178,189L1211,72L1114,149Z" fill="#ff6028" stroke="#ff6028" stroke-width="1.51"/><path d="M1328,114L1211,72L1178,189Z" fill="#ff6b2a" stroke="#ff6b2a" stroke-width="1.51"/><path d="M308,418L313,479L501,428Z" fill="#ff832e" stroke="#ff832e" stroke-width="1.51"/><path d="M448,220L308,418L501,428Z" fill="#ff872f" stroke="#ff872f" stroke-width="1.51"/><path d="M698,19L512,57L589,255Z" fill="#ff862f" stroke="#ff862f" stroke-width="1.51"/><path d="M698,19L662,-34L512,57Z" fill="#ff9732" stroke="#ff9732" stroke-width="1.51"/><path d="M833,-88L698,19L926,45Z" fill="#ff9933" stroke="#ff9933" stroke-width="1.51"/><path d="M1444,580L1437,428L1323,553Z" fill="#ff9532" stroke="#ff9532" stroke-width="1.51"/><path d="M1062,910L1239,911L1031,834Z" fill="#ff7b2d" stroke="#ff7b2d" stroke-width="1.51"/><path d="M1271,1036L1239,911L1062,910Z" fill="#ff7d2d" stroke="#ff7d2d" stroke-width="1.51"/><path d="M1035,1081L1062,910L974,927Z" fill="#ff882f" stroke="#ff882f" stroke-width="1.51"/><path d="M236,355L308,418L448,220Z" fill="#ff782c" stroke="#ff782c" stroke-width="1.51"/><path d="M391,160L395,180L448,220Z" fill="#ff6628" stroke="#ff6628" stroke-width="1.51"/><path d="M1323,553L1437,428L1180,334Z" fill="#ff8b30" stroke="#ff8b30" stroke-width="1.51"/><path d="M1392,732L1323,553L1246,743Z" fill="#ff732b" stroke="#ff732b" stroke-width="1.51"/><path d="M1211,72L1081,-48L1114,149Z" fill="#ff702b" stroke="#ff702b" stroke-width="1.51"/><path d="M958,-91L833,-88L926,45Z" fill="#ff9532" stroke="#ff9532" stroke-width="1.51"/><path d="M1377,805L1392,732L1246,743Z" fill="#ff752b" stroke="#ff752b" stroke-width="1.51"/><path d="M512,57L391,160L448,220Z" fill="#ff702a" stroke="#ff702a" stroke-width="1.51"/><path d="M395,180L236,355L448,220Z" fill="#ff6d2a" stroke="#ff6d2a" stroke-width="1.51"/><path d="M1392,732L1444,580L1323,553Z" fill="#ff852e" stroke="#ff852e" stroke-width="1.51"/><path d="M1081,-48L958,-91L926,45Z" fill="#ff8c30" stroke="#ff8c30" stroke-width="1.51"/><path d="M1437,428L1424,298L1180,334Z" fill="#ff8e30" stroke="#ff8e30" stroke-width="1.51"/><path d="M1211,72L1264,-58L1081,-48Z" fill="#ff7d2d" stroke="#ff7d2d" stroke-width="1.51"/><path d="M1424,298L1328,114L1178,189Z" fill="#ff6d2a" stroke="#ff6d2a" stroke-width="1.51"/><path d="M660,985L718,1065L792,955Z" fill="#ff9933" stroke="#ff9933" stroke-width="1.51"/><path d="M458,1131L718,1065L660,985Z" fill="#ff9933" stroke="#ff9933" stroke-width="1.51"/><path d="M1239,911L1377,805L1246,743Z" fill="#ff7a2c" stroke="#ff7a2c" stroke-width="1.51"/><path d="M1392,732L1527,640L1444,580Z" fill="#ff862f" stroke="#ff862f" stroke-width="1.51"/><path d="M822,1130L974,927L792,955Z" fill="#ff9933" stroke="#ff9933" stroke-width="1.51"/><path d="M1239,911L1419,953L1377,805Z" fill="#ff8d30" stroke="#ff8d30" stroke-width="1.51"/><path d="M833,-88L761,-141L698,19Z" fill="#ff9933" stroke="#ff9933" stroke-width="1.51"/><path d="M662,-34L455,-29L512,57Z" fill="#ff9632" stroke="#ff9632" stroke-width="1.51"/><path d="M985,-183L761,-141L833,-88Z" fill="#ff9933" stroke="#ff9933" stroke-width="1.51"/><path d="M718,1065L822,1130L792,955Z" fill="#ff9933" stroke="#ff9933" stroke-width="1.51"/><path d="M308,418L236,355L313,479Z" fill="#ff792c" stroke="#ff792c" stroke-width="1.51"/><path d="M292,804L350,884L419,714Z" fill="#ff6e2a" stroke="#ff6e2a" stroke-width="1.51"/><path d="M174,305L236,355L395,180Z" fill="#ff6c2a" stroke="#ff6c2a" stroke-width="1.51"/><path d="M535,882L458,1131L660,985Z" fill="#ff9732" stroke="#ff9732" stroke-width="1.51"/><path d="M718,1065L458,1131L822,1130Z" fill="#ff9933" stroke="#ff9933" stroke-width="1.51"/><path d="M419,714L350,884L523,781Z" fill="#ff762b" stroke="#ff762b" stroke-width="1.51"/><path d="M292,804L419,714L200,597Z" fill="#ff5927" stroke="#ff5927" stroke-width="1.51"/><path d="M204,579L419,714L313,479Z" fill="#ff722b" stroke="#ff722b" stroke-width="1.51"/><path d="M161,103L174,305L395,180Z" fill="#ff5e27" stroke="#ff5e27" stroke-width="1.51"/><path d="M512,57L387,-16L391,160Z" fill="#ff7e2d" stroke="#ff7e2d" stroke-width="1.51"/><path d="M544,-205L455,-29L662,-34Z" fill="#ff9732" stroke="#ff9732" stroke-width="1.51"/><path d="M236,355L204,579L313,479Z" fill="#ff7d2d" stroke="#ff7d2d" stroke-width="1.51"/><path d="M1328,114L1264,-58L1211,72Z" fill="#ff7e2d" stroke="#ff7e2d" stroke-width="1.51"/><path d="M1081,-48L985,-183L958,-91Z" fill="#ff892f" stroke="#ff892f" stroke-width="1.51"/><path d="M958,-91L985,-183L833,-88Z" fill="#ff9331" stroke="#ff9331" stroke-width="1.51"/><path d="M1300,-92L1264,-58L1328,114Z" fill="#ff892f" stroke="#ff892f" stroke-width="1.51"/><path d="M822,1130L918,1162L974,927Z" fill="#ff9532" stroke="#ff9532" stroke-width="1.51"/><path d="M1476,830L1527,640L1392,732Z" fill="#ff7c2d" stroke="#ff7c2d" stroke-width="1.51"/><path d="M1444,580L1561,424L1437,428Z" fill="#ff9933" stroke="#ff9933" stroke-width="1.51"/><path d="M1437,428L1561,424L1424,298Z" fill="#ff9933" stroke="#ff9933" stroke-width="1.51"/><path d="M204,579L200,597L419,714Z" fill="#ff6929" stroke="#ff6929" stroke-width="1.51"/><path d="M22,578L200,597L204,579Z" fill="#ff822e" stroke="#ff822e" stroke-width="1.51"/><path d="M1377,805L1476,830L1392,732Z" fill="#ff832e" stroke="#ff832e" stroke-width="1.51"/><path d="M1035,1081L1271,1036L1062,910Z" fill="#ff7d2d" stroke="#ff7d2d" stroke-width="1.51"/><path d="M1329,1113L1271,1036L1035,1081Z" fill="#ff802d" stroke="#ff802d" stroke-width="1.51"/><path d="M1140,-193L985,-183L1081,-48Z" fill="#ff832e" stroke="#ff832e" stroke-width="1.51"/><path d="M1424,298L1554,136L1328,114Z" fill="#ff792c" stroke="#ff792c" stroke-width="1.51"/><path d="M1527,640L1561,424L1444,580Z" fill="#ff9832" stroke="#ff9832" stroke-width="1.51"/><path d="M1464,912L1476,830L1377,805Z" fill="#ff9031" stroke="#ff9031" stroke-width="1.51"/><path d="M455,-29L387,-16L512,57Z" fill="#ff8b30" stroke="#ff8b30" stroke-width="1.51"/><path d="M415,-185L387,-16L455,-29Z" fill="#ff882f" stroke="#ff882f" stroke-width="1.51"/><path d="M236,355L72,381L204,579Z" fill="#ff872f" stroke="#ff872f" stroke-width="1.51"/><path d="M161,103L395,180L391,160Z" fill="#ff5f27" stroke="#ff5f27" stroke-width="1.51"/><path d="M1271,1036L1419,953L1239,911Z" fill="#ff8b30" stroke="#ff8b30" stroke-width="1.51"/><path d="M1264,-58L1140,-193L1081,-48Z" fill="#ff7a2c" stroke="#ff7a2c" stroke-width="1.51"/><path d="M1526,-65L1300,-92L1328,114Z" fill="#ff9331" stroke="#ff9331" stroke-width="1.51"/><path d="M1419,953L1464,912L1377,805Z" fill="#ff9632" stroke="#ff9632" stroke-width="1.51"/><path d="M1476,830L1585,661L1527,640Z" fill="#ff7b2d" stroke="#ff7b2d" stroke-width="1.51"/><path d="M1271,-186L1140,-193L1264,-58Z" fill="#ff812e" stroke="#ff812e" stroke-width="1.51"/><path d="M1527,640L1710,556L1561,424Z" fill="#ff9933" stroke="#ff9933" stroke-width="1.51"/><path d="M1675,814L1585,661L1476,830Z" fill="#ff822e" stroke="#ff822e" stroke-width="1.51"/><path d="M200,597L190,809L292,804Z" fill="#ff6027" stroke="#ff6027" stroke-width="1.51"/><path d="M292,804L257,940L350,884Z" fill="#ff762b" stroke="#ff762b" stroke-width="1.51"/><path d="M350,884L458,1131L535,882Z" fill="#ff8b30" stroke="#ff8b30" stroke-width="1.51"/><path d="M99,728L190,809L200,597Z" fill="#ff6729" stroke="#ff6729" stroke-width="1.51"/><path d="M761,-141L576,-212L662,-34Z" fill="#ff9933" stroke="#ff9933" stroke-width="1.51"/><path d="M985,-183L576,-212L761,-141Z" fill="#ff9933" stroke="#ff9933" stroke-width="1.51"/><path d="M1377,-246L576,-212L985,-183Z" fill="#ff8d30" stroke="#ff8d30" stroke-width="1.51"/><path d="M190,809L257,940L292,804Z" fill="#ff752b" stroke="#ff752b" stroke-width="1.51"/><path d="M1620,291L1577,211L1424,298Z" fill="#ff892f" stroke="#ff892f" stroke-width="1.51"/><path d="M1620,291L1424,298L1561,424Z" fill="#ff9532" stroke="#ff9532" stroke-width="1.51"/><path d="M302,1076L458,1131L350,884Z" fill="#ff832e" stroke="#ff832e" stroke-width="1.51"/><path d="M822,1130L458,1131L918,1162Z" fill="#ff9933" stroke="#ff9933" stroke-width="1.51"/><path d="M1710,556L1628,407L1561,424Z" fill="#ff9933" stroke="#ff9933" stroke-width="1.51"/><path d="M576,-212L544,-205L662,-34Z" fill="#ff9933" stroke="#ff9933" stroke-width="1.51"/><path d="M1577,211L1554,136L1424,298Z" fill="#ff802d" stroke="#ff802d" stroke-width="1.51"/><path d="M918,1162L1329,1113L1035,1081Z" fill="#ff802d" stroke="#ff802d" stroke-width="1.51"/><path d="M1271,1036L1329,1113L1419,953Z" fill="#ff8e30" stroke="#ff8e30" stroke-width="1.51"/><path d="M1560,1088L1636,961L1464,912Z" fill="#ff9933" stroke="#ff9933" stroke-width="1.51"/><path d="M1577,211L1606,50L1554,136Z" fill="#ff822e" stroke="#ff822e" stroke-width="1.51"/><path d="M1628,407L1620,291L1561,424Z" fill="#ff9933" stroke="#ff9933" stroke-width="1.51"/><path d="M1377,-246L1271,-186L1300,-92Z" fill="#ff8c30" stroke="#ff8c30" stroke-width="1.51"/><path d="M1300,-92L1271,-186L1264,-58Z" fill="#ff882f" stroke="#ff882f" stroke-width="1.51"/><path d="M174,305L72,381L236,355Z" fill="#ff852e" stroke="#ff852e" stroke-width="1.51"/><path d="M46,305L72,381L174,305Z" fill="#ff8a2f" stroke="#ff8a2f" stroke-width="1.51"/><path d="M387,-16L161,103L391,160Z" fill="#ff6c2a" stroke="#ff6c2a" stroke-width="1.51"/><path d="M182,-41L161,103L387,-16Z" fill="#ff7c2d" stroke="#ff7c2d" stroke-width="1.51"/><path d="M190,809L58,914L257,940Z" fill="#ff852e" stroke="#ff852e" stroke-width="1.51"/><path d="M22,578L99,728L200,597Z" fill="#ff7d2d" stroke="#ff7d2d" stroke-width="1.51"/><path d="M99,728L109,760L190,809Z" fill="#ff722b" stroke="#ff722b" stroke-width="1.51"/><path d="M246,-220L415,-185L544,-205Z" fill="#ff862f" stroke="#ff862f" stroke-width="1.51"/><path d="M544,-205L415,-185L455,-29Z" fill="#ff8e30" stroke="#ff8e30" stroke-width="1.51"/><path d="M273,1052L302,1076L350,884Z" fill="#ff7b2d" stroke="#ff7b2d" stroke-width="1.51"/><path d="M273,1052L350,884L257,940Z" fill="#ff7a2c" stroke="#ff7a2c" stroke-width="1.51"/><path d="M58,914L273,1052L257,940Z" fill="#ff832e" stroke="#ff832e" stroke-width="1.51"/><path d="M72,381L22,578L204,579Z" fill="#ff8e30" stroke="#ff8e30" stroke-width="1.51"/><path d="M161,103L46,305L174,305Z" fill="#ff752b" stroke="#ff752b" stroke-width="1.51"/><path d="M1585,661L1710,556L1527,640Z" fill="#ff8b30" stroke="#ff8b30" stroke-width="1.51"/><path d="M1628,407L1710,556L1620,291Z" fill="#ff9933" stroke="#ff9933" stroke-width="1.51"/><path d="M1675,814L1710,556L1585,661Z" fill="#ff812e" stroke="#ff812e" stroke-width="1.51"/><path d="M1675,814L1476,830L1636,961Z" fill="#ff9432" stroke="#ff9432" stroke-width="1.51"/><path d="M-24,477L22,578L72,381Z" fill="#ff9732" stroke="#ff9732" stroke-width="1.51"/><path d="M-55,746L58,914L109,760Z" fill="#ff852e" stroke="#ff852e" stroke-width="1.51"/><path d="M1554,136L1526,-65L1328,114Z" fill="#ff8f30" stroke="#ff8f30" stroke-width="1.51"/><path d="M1620,291L1606,50L1577,211Z" fill="#ff7a2c" stroke="#ff7a2c" stroke-width="1.51"/><path d="M1676,-207L1606,50L1620,291Z" fill="#ff9231" stroke="#ff9231" stroke-width="1.51"/><path d="M1606,50L1526,-65L1554,136Z" fill="#ff9231" stroke="#ff9231" stroke-width="1.51"/><path d="M161,103L61,59L46,305Z" fill="#ff732b" stroke="#ff732b" stroke-width="1.51"/><path d="M246,-220L182,-41L387,-16Z" fill="#ff7b2d" stroke="#ff7b2d" stroke-width="1.51"/><path d="M1636,961L1476,830L1464,912Z" fill="#ff9933" stroke="#ff9933" stroke-width="1.51"/><path d="M1526,-65L1450,-164L1300,-92Z" fill="#ff9832" stroke="#ff9832" stroke-width="1.51"/><path d="M1526,-65L1676,-207L1450,-164Z" fill="#ff9933" stroke="#ff9933" stroke-width="1.51"/><path d="M1606,50L1591,-16L1526,-65Z" fill="#ff9933" stroke="#ff9933" stroke-width="1.51"/><path d="M-44,402L-24,477L72,381Z" fill="#ff9933" stroke="#ff9933" stroke-width="1.51"/><path d="M-44,402L72,381L46,305Z" fill="#ff9732" stroke="#ff9732" stroke-width="1.51"/><path d="M1676,-207L1377,-246L1450,-164Z" fill="#ff9933" stroke="#ff9933" stroke-width="1.51"/><path d="M1450,-164L1377,-246L1300,-92Z" fill="#ff9231" stroke="#ff9231" stroke-width="1.51"/><path d="M1271,-186L1377,-246L1140,-193Z" fill="#ff862f" stroke="#ff862f" stroke-width="1.51"/><path d="M1140,-193L1377,-246L985,-183Z" fill="#ff7b2d" stroke="#ff7b2d" stroke-width="1.51"/><path d="M1560,1088L1464,912L1419,953Z" fill="#ff9933" stroke="#ff9933" stroke-width="1.51"/><path d="M182,-41L61,59L161,103Z" fill="#ff832e" stroke="#ff832e" stroke-width="1.51"/><path d="M1329,1113L1560,1088L1419,953Z" fill="#ff9933" stroke="#ff9933" stroke-width="1.51"/><path d="M1692,1158L1560,1088L1329,1113Z" fill="#ff9933" stroke="#ff9933" stroke-width="1.51"/><path d="M273,1052L54,1161L302,1076Z" fill="#ff822e" stroke="#ff822e" stroke-width="1.51"/><path d="M109,760L58,914L190,809Z" fill="#ff802d" stroke="#ff802d" stroke-width="1.51"/><path d="M-55,746L109,760L99,728Z" fill="#ff772c" stroke="#ff772c" stroke-width="1.51"/><path d="M-55,746L99,728L22,578Z" fill="#ff7d2d" stroke="#ff7d2d" stroke-width="1.51"/><path d="M-119,731L-55,746L22,578Z" fill="#ff802d" stroke="#ff802d" stroke-width="1.51"/><path d="M-71,252L-44,402L46,305Z" fill="#ff9231" stroke="#ff9231" stroke-width="1.51"/><path d="M22,-269L246,-220L576,-212Z" fill="#ff7a2c" stroke="#ff7a2c" stroke-width="1.51"/><path d="M576,-212L246,-220L544,-205Z" fill="#ff8c30" stroke="#ff8c30" stroke-width="1.51"/><path d="M415,-185L246,-220L387,-16Z" fill="#ff802e" stroke="#ff802e" stroke-width="1.51"/><path d="M182,-41L76,-101L61,59Z" fill="#ff8e30" stroke="#ff8e30" stroke-width="1.51"/><path d="M-119,731L22,578L-237,539Z" fill="#ff8c30" stroke="#ff8c30" stroke-width="1.51"/><path d="M-237,539L22,578L-24,477Z" fill="#ff9933" stroke="#ff9933" stroke-width="1.51"/><path d="M61,59L-71,252L46,305Z" fill="#ff7c2d" stroke="#ff7c2d" stroke-width="1.51"/><path d="M-101,107L-71,252L61,59Z" fill="#ff802e" stroke="#ff802e" stroke-width="1.51"/><path d="M246,-220L76,-101L182,-41Z" fill="#ff872f" stroke="#ff872f" stroke-width="1.51"/><path d="M-161,911L-92,1019L58,914Z" fill="#ff9933" stroke="#ff9933" stroke-width="1.51"/><path d="M-237,539L-24,477L-44,402Z" fill="#ff9933" stroke="#ff9933" stroke-width="1.51"/><path d="M-54,-198L-8,-57L76,-101Z" fill="#ff9933" stroke="#ff9933" stroke-width="1.51"/><path d="M76,-101L-8,-57L61,59Z" fill="#ff9532" stroke="#ff9532" stroke-width="1.51"/><path d="M-71,252L-170,278L-44,402Z" fill="#ff9131" stroke="#ff9131" stroke-width="1.51"/><path d="M-8,-57L-101,107L61,59Z" fill="#ff9331" stroke="#ff9331" stroke-width="1.51"/><path d="M58,914L54,1161L273,1052Z" fill="#ff8b30" stroke="#ff8b30" stroke-width="1.51"/><path d="M302,1076L54,1161L458,1131Z" fill="#ff7b2d" stroke="#ff7b2d" stroke-width="1.51"/><path d="M458,1131L54,1161L918,1162Z" fill="#ff8e30" stroke="#ff8e30" stroke-width="1.51"/><path d="M-92,1019L54,1161L58,914Z" fill="#ff9933" stroke="#ff9933" stroke-width="1.51"/><path d="M-101,107L-170,278L-71,252Z" fill="#ff7f2d" stroke="#ff7f2d" stroke-width="1.51"/><path d="M1560,1088L1692,1158L1636,961Z" fill="#ff9933" stroke="#ff9933" stroke-width="1.51"/><path d="M1636,961L1692,1158L1675,814Z" fill="#ff9933" stroke="#ff9933" stroke-width="1.51"/><path d="M1675,814L1692,1158L1710,556Z" fill="#ff8f31" stroke="#ff8f31" stroke-width="1.51"/><path d="M918,1162L1692,1158L1329,1113Z" fill="#ff8b30" stroke="#ff8b30" stroke-width="1.51"/><path d="M1710,556L1676,-207L1620,291Z" fill="#ff7f2d" stroke="#ff7f2d" stroke-width="1.51"/><path d="M1606,50L1676,-207L1591,-16Z" fill="#ff9933" stroke="#ff9933" stroke-width="1.51"/><path d="M1591,-16L1676,-207L1526,-65Z" fill="#ff9933" stroke="#ff9933" stroke-width="1.51"/><path d="M-161,911L-55,746L-196,843Z" fill="#ff8e30" stroke="#ff8e30" stroke-width="1.51"/><path d="M-161,911L58,914L-55,746Z" fill="#ff9231" stroke="#ff9231" stroke-width="1.51"/><path d="M-236,336L-237,539L-44,402Z" fill="#ff9933" stroke="#ff9933" stroke-width="1.51"/><path d="M-196,843L-55,746L-119,731Z" fill="#ff832e" stroke="#ff832e" stroke-width="1.51"/><path d="M-170,278L-236,336L-44,402Z" fill="#ff9632" stroke="#ff9632" stroke-width="1.51"/><path d="M-202,106L-236,336L-170,278Z" fill="#ff842e" stroke="#ff842e" stroke-width="1.51"/><path d="M-202,106L-170,278L-101,107Z" fill="#ff7c2d" stroke="#ff7c2d" stroke-width="1.51"/><path d="M-246,665L-196,843L-119,731Z" fill="#ff7e2d" stroke="#ff7e2d" stroke-width="1.51"/><path d="M-237,539L-246,665L-119,731Z" fill="#ff872f" stroke="#ff872f" stroke-width="1.51"/><path d="M-236,336L-246,665L-237,539Z" fill="#ff9933" stroke="#ff9933" stroke-width="1.51"/><path d="M-248,17L-202,106L-101,107Z" fill="#ff8c30" stroke="#ff8c30" stroke-width="1.51"/><path d="M246,-220L22,-269L76,-101Z" fill="#ff8d30" stroke="#ff8d30" stroke-width="1.51"/><path d="M1377,-246L22,-269L576,-212Z" fill="#ff9933" stroke="#ff9933" stroke-width="1.51"/><path d="M-248,17L-101,107L-8,-57Z" fill="#ff9532" stroke="#ff9532" stroke-width="1.51"/><path d="M22,-269L-54,-198L76,-101Z" fill="#ff9832" stroke="#ff9832" stroke-width="1.51"/><path d="M-92,1019L-136,1111L54,1161Z" fill="#ff9933" stroke="#ff9933" stroke-width="1.51"/><path d="M-161,911L-150,1026L-92,1019Z" fill="#ff9933" stroke="#ff9933" stroke-width="1.51"/><path d="M-196,843L-150,1026L-161,911Z" fill="#ff9933" stroke="#ff9933" stroke-width="1.51"/><path d="M-136,1111L-150,1026L-196,843Z" fill="#ff9933" stroke="#ff9933" stroke-width="1.51"/><path d="M-150,1026L-136,1111L-92,1019Z" fill="#ff9933" stroke="#ff9933" stroke-width="1.51"/><path d="M-246,665L-136,1111L-196,843Z" fill="#ff9532" stroke="#ff9532" stroke-width="1.51"/><path d="M-202,106L-248,17L-236,336Z" fill="#ff7e2d" stroke="#ff7e2d" stroke-width="1.51"/><path d="M-236,336L-248,17L-246,665Z" fill="#ff9632" stroke="#ff9632" stroke-width="1.51"/><path d="M-54,-198L-248,17L-8,-57Z" fill="#ff9933" stroke="#ff9933" stroke-width="1.51"/><path d="M-54,-198L-162,-267L-248,17Z" fill="#ff9933" stroke="#ff9933" stroke-width="1.51"/><path d="M22,-269L-162,-267L-54,-198Z" fill="#ff9933" stroke="#ff9933" stroke-width="1.51"/></svg>